<svg width="215" height="275" viewBox="0 0 215 275" fill="none" xmlns="http://www.w3.org/2000/svg">
<rect x="2.43868" y="2.46115" width="210.123" height="270.078" fill="white"/>
<rect x="2.43868" y="2.46115" width="210.123" height="270.078" stroke="#01003F" stroke-width="3.92229"/>
<rect x="22.4775" y="18.5" width="169" height="142" fill="#0047BB"/>
<path d="M19.609 196.004V181.458H24.5238C25.6649 181.458 26.5977 181.664 27.3221 182.076C28.0513 182.484 28.591 183.035 28.9414 183.731C29.2918 184.427 29.467 185.204 29.467 186.061C29.467 186.918 29.2918 187.697 28.9414 188.397C28.5958 189.098 28.0607 189.657 27.3363 190.074C26.6119 190.485 25.6838 190.691 24.5522 190.691H21.0295V189.129H24.4954C25.2766 189.129 25.904 188.994 26.3775 188.724C26.851 188.454 27.1942 188.09 27.4073 187.63C27.6251 187.166 27.734 186.643 27.734 186.061C27.734 185.478 27.6251 184.958 27.4073 184.498C27.1942 184.039 26.8486 183.679 26.3704 183.419C25.8922 183.154 25.2577 183.021 24.467 183.021H21.3704V196.004H19.609ZM31.4165 196.004H29.57L34.9109 181.458H36.729L42.07 196.004H40.2234L35.8768 183.76H35.7631L31.4165 196.004ZM32.0984 190.322H39.5415V191.885H32.0984V190.322ZM55.8697 181.458V196.004H54.1651L46.239 184.583H46.0969V196.004H44.3356V181.458H46.0401L53.9947 192.907H54.1367V181.458H55.8697ZM58.5987 183.021V181.458H69.5078V183.021H64.9339V196.004H63.1726V183.021H58.5987ZM83.8935 188.731C83.8935 190.265 83.6165 191.591 83.0625 192.708C82.5085 193.826 81.7486 194.688 80.7827 195.294C79.8168 195.9 78.7135 196.203 77.473 196.203C76.2325 196.203 75.1293 195.9 74.1634 195.294C73.1974 194.688 72.4375 193.826 71.8835 192.708C71.3295 191.591 71.0526 190.265 71.0526 188.731C71.0526 187.197 71.3295 185.871 71.8835 184.754C72.4375 183.636 73.1974 182.775 74.1634 182.169C75.1293 181.563 76.2325 181.26 77.473 181.26C78.7135 181.26 79.8168 181.563 80.7827 182.169C81.7486 182.775 82.5085 183.636 83.0625 184.754C83.6165 185.871 83.8935 187.197 83.8935 188.731ZM82.1889 188.731C82.1889 187.472 81.9782 186.409 81.5568 185.542C81.1402 184.676 80.5743 184.02 79.8594 183.575C79.1491 183.13 78.3537 182.907 77.473 182.907C76.5923 182.907 75.7945 183.13 75.0795 183.575C74.3693 184.02 73.8035 184.676 73.3821 185.542C72.9654 186.409 72.7571 187.472 72.7571 188.731C72.7571 189.991 72.9654 191.054 73.3821 191.92C73.8035 192.787 74.3693 193.442 75.0795 193.887C75.7945 194.333 76.5923 194.555 77.473 194.555C78.3537 194.555 79.1491 194.333 79.8594 193.887C80.5743 193.442 81.1402 192.787 81.5568 191.92C81.9782 191.054 82.1889 189.991 82.1889 188.731ZM98.3892 181.458V196.004H96.6847L88.7585 184.583H88.6165V196.004H86.8551V181.458H88.5597L96.5142 192.907H96.6562V181.458H98.3892ZM101.914 196.004V181.458H110.692V183.021H103.675V187.936H110.238V189.498H103.675V194.441H110.806V196.004H101.914Z" fill="#01003F"/>
<path d="M19.3533 225.934V224.655L24.1545 219.4C24.7179 218.784 25.1819 218.249 25.5465 217.794C25.9111 217.335 26.181 216.904 26.3562 216.502C26.5361 216.095 26.6261 215.668 26.6261 215.223C26.6261 214.712 26.503 214.269 26.2567 213.895C26.0153 213.521 25.6838 213.232 25.2624 213.029C24.841 212.825 24.3675 212.723 23.842 212.723C23.2833 212.723 22.7956 212.839 22.3789 213.071C21.967 213.299 21.6474 213.618 21.4201 214.03C21.1976 214.442 21.0863 214.925 21.0863 215.479H19.4102C19.4102 214.627 19.6067 213.879 19.9996 213.235C20.3926 212.591 20.9277 212.089 21.6048 211.729C22.2866 211.369 23.0513 211.189 23.8988 211.189C24.7511 211.189 25.5063 211.369 26.1644 211.729C26.8226 212.089 27.3387 212.574 27.7127 213.185C28.0868 213.796 28.2738 214.475 28.2738 215.223C28.2738 215.758 28.1767 216.282 27.9826 216.793C27.7932 217.3 27.4618 217.865 26.9883 218.49C26.5195 219.111 25.8685 219.868 25.0352 220.763L21.7681 224.257V224.371H28.5295V225.934H19.3533ZM31.9173 225.934L38.4229 213.064V212.951H30.9229V211.388H40.2411V213.036L33.7638 225.934H31.9173ZM42.8885 225.934V224.655L47.6896 219.4C48.2531 218.784 48.7171 218.249 49.0817 217.794C49.4463 217.335 49.7161 216.904 49.8913 216.502C50.0713 216.095 50.1612 215.668 50.1612 215.223C50.1612 214.712 50.0381 214.269 49.7919 213.895C49.5504 213.521 49.219 213.232 48.7976 213.029C48.3762 212.825 47.9027 212.723 47.3771 212.723C46.8184 212.723 46.3307 212.839 45.9141 213.071C45.5021 213.299 45.1825 213.618 44.9553 214.03C44.7327 214.442 44.6214 214.925 44.6214 215.479H42.9453C42.9453 214.627 43.1418 213.879 43.5348 213.235C43.9278 212.591 44.4628 212.089 45.1399 211.729C45.8217 211.369 46.5864 211.189 47.4339 211.189C48.2862 211.189 49.0414 211.369 49.6996 211.729C50.3577 212.089 50.8738 212.574 51.2479 213.185C51.6219 213.796 51.8089 214.475 51.8089 215.223C51.8089 215.758 51.7119 216.282 51.5178 216.793C51.3284 217.3 50.9969 217.865 50.5234 218.49C50.0547 219.111 49.4036 219.868 48.5703 220.763L45.3033 224.257V224.371H52.0646V225.934H42.8885ZM59.657 226.132C58.6816 226.132 57.8198 225.96 57.0717 225.614C56.3284 225.264 55.7483 224.783 55.3317 224.172C54.915 223.557 54.709 222.856 54.7138 222.07C54.709 221.454 54.8298 220.886 55.076 220.365C55.3222 219.84 55.6584 219.402 56.0845 219.051C56.5154 218.696 56.996 218.471 57.5263 218.377V218.292C56.8303 218.112 56.2763 217.721 55.8643 217.12C55.4524 216.514 55.2488 215.825 55.2536 215.053C55.2488 214.314 55.4358 213.654 55.8146 213.071C56.1934 212.489 56.7143 212.03 57.3771 211.694C58.0447 211.357 58.8047 211.189 59.657 211.189C60.4998 211.189 61.2526 211.357 61.9155 211.694C62.5784 212.03 63.0992 212.489 63.478 213.071C63.8615 213.654 64.0556 214.314 64.0604 215.053C64.0556 215.825 63.8449 216.514 63.4283 217.12C63.0163 217.721 62.4695 218.112 61.7876 218.292V218.377C62.3132 218.471 62.7867 218.696 63.2081 219.051C63.6295 219.402 63.9657 219.84 64.2166 220.365C64.4676 220.886 64.5954 221.454 64.6001 222.07C64.5954 222.856 64.3823 223.557 63.9609 224.172C63.5443 224.783 62.9643 225.264 62.2209 225.614C61.4822 225.96 60.6276 226.132 59.657 226.132ZM59.657 224.57C60.3151 224.57 60.8833 224.463 61.3615 224.25C61.8397 224.037 62.209 223.737 62.4695 223.348C62.7299 222.96 62.8625 222.506 62.8672 221.985C62.8625 221.435 62.7204 220.95 62.4411 220.529C62.1617 220.107 61.7805 219.776 61.2976 219.534C60.8194 219.293 60.2725 219.172 59.657 219.172C59.0367 219.172 58.4827 219.293 57.995 219.534C57.5121 219.776 57.1309 220.107 56.8516 220.529C56.5769 220.95 56.442 221.435 56.4467 221.985C56.442 222.506 56.5675 222.96 56.8232 223.348C57.0836 223.737 57.4553 224.037 57.9382 224.25C58.4212 224.463 58.9941 224.57 59.657 224.57ZM59.657 217.667C60.1778 217.667 60.6394 217.562 61.0419 217.354C61.4491 217.146 61.7687 216.855 62.0007 216.48C62.2327 216.106 62.3511 215.668 62.3558 215.167C62.3511 214.674 62.2351 214.246 62.0078 213.881C61.7805 213.512 61.4657 213.228 61.0632 213.029C60.6607 212.825 60.192 212.723 59.657 212.723C59.1125 212.723 58.6366 212.825 58.2294 213.029C57.8222 213.228 57.5073 213.512 57.2848 213.881C57.0623 214.246 56.9534 214.674 56.9581 215.167C56.9534 215.668 57.0646 216.106 57.2919 216.48C57.5239 216.855 57.8435 217.146 58.2507 217.354C58.6579 217.562 59.1267 217.667 59.657 217.667ZM84.9073 215.934H83.146C83.0418 215.427 82.8595 214.982 82.5991 214.598C82.3434 214.215 82.0309 213.893 81.6616 213.632C81.297 213.367 80.8922 213.168 80.4471 213.036C80.002 212.903 79.538 212.837 79.055 212.837C78.1744 212.837 77.3765 213.06 76.6616 213.505C75.9513 213.95 75.3855 214.605 74.9641 215.472C74.5475 216.338 74.3391 217.401 74.3391 218.661C74.3391 219.92 74.5475 220.983 74.9641 221.85C75.3855 222.716 75.9513 223.372 76.6616 223.817C77.3765 224.262 78.1744 224.485 79.055 224.485C79.538 224.485 80.002 224.418 80.4471 224.286C80.8922 224.153 81.297 223.957 81.6616 223.696C82.0309 223.431 82.3434 223.107 82.5991 222.723C82.8595 222.335 83.0418 221.89 83.146 221.388H84.9073C84.7747 222.132 84.5333 222.797 84.1829 223.384C83.8325 223.971 83.3969 224.471 82.8761 224.882C82.3552 225.29 81.7705 225.6 81.1218 225.813C80.4779 226.026 79.7889 226.132 79.055 226.132C77.8145 226.132 76.7113 225.829 75.7454 225.223C74.7795 224.617 74.0195 223.756 73.4656 222.638C72.9116 221.521 72.6346 220.195 72.6346 218.661C72.6346 217.127 72.9116 215.801 73.4656 214.684C74.0195 213.566 74.7795 212.704 75.7454 212.098C76.7113 211.492 77.8145 211.189 79.055 211.189C79.7889 211.189 80.4779 211.296 81.1218 211.509C81.7705 211.722 82.3552 212.034 82.8761 212.446C83.3969 212.854 83.8325 213.351 84.1829 213.938C84.5333 214.52 84.7747 215.185 84.9073 215.934Z" fill="#01003F"/>
</svg>
