<svg width="58" height="57" viewBox="0 0 58 57" fill="none" xmlns="http://www.w3.org/2000/svg">
<path fill-rule="evenodd" clip-rule="evenodd" d="M0.678589 0H57.3433V56.3172H0.678589V0Z" fill="#78B9F4"/>
<path fill-rule="evenodd" clip-rule="evenodd" d="M45.4452 20.9301C40.4042 18.3876 31.7255 19.6193 31.7255 26.2526C31.7255 31.1924 35.1433 33.1366 39.3221 34.7686C45.2604 37.0867 39.4893 41.4679 32.2401 36.9372C32.2401 36.9372 31.9806 36.8096 31.853 36.9372C31.7255 37.0647 31.7255 37.1923 31.7255 37.3242V42.0837C34.2592 43.3813 36.1506 44.0411 39.0758 44.0103C48.5111 43.9136 49.8703 34.8785 44.8514 31.4035C43.9408 30.7701 41.5039 29.5077 40.7341 29.2129C36.7445 27.691 37.0832 25.5268 38.35 24.4359C39.7488 23.2262 43.6285 25.0561 45.2604 26.0766C46.2502 26.6881 46.4129 25.9271 46.4085 25.2585L46.3953 22.0958C46.3953 21.3436 46.1358 21.282 45.4452 20.9301ZM16.3079 28.8303V17.2439C16.3079 17.1868 16.5102 16.9888 16.563 16.9888C21.472 16.7381 24.2652 17.697 24.5159 22.9403C24.8019 28.9578 19.7565 29.0854 16.3079 29.0854V28.8303ZM10.3871 12.7396V43.8872H16.3079V33.8492C23.5834 34.3683 30.1463 31.7598 30.1463 23.3494C30.1463 19.958 29.0906 16.5445 26.5877 14.4815C23.0907 11.5959 14.9179 12.2382 10.3871 12.7396Z" fill="white"/>
</svg>
