<svg width="57" height="57" viewBox="0 0 57 57" fill="none" xmlns="http://www.w3.org/2000/svg">
<path fill-rule="evenodd" clip-rule="evenodd" d="M0.387878 0.269531H56.9646V56.0489H0.387878V0.269531Z" fill="#78B9F4"/>
<path d="M19.931 12.5625H14.3138C14.1729 12.5625 14.0587 12.6758 14.0587 12.8156V43.2078C14.0587 43.3476 14.1729 43.4609 14.3138 43.4609H19.931C20.0719 43.4609 20.1861 43.3476 20.1861 43.2078V12.8156C20.1861 12.6758 20.0719 12.5625 19.931 12.5625Z" fill="white"/>
<path fill-rule="evenodd" clip-rule="evenodd" d="M36.6863 24.3346V38.7736C31.4606 39.1576 29.4064 35.4922 29.3316 31.7526C29.3008 30.1512 29.6175 28.5279 30.2333 27.2232C31.465 24.6182 34.1042 24.1557 36.6863 24.3346ZM43.1217 40.4187V12.4351L36.484 12.3086L36.4312 19.2728C36.4312 19.2947 36.22 19.2685 36.176 19.2728C35.3711 19.3427 31.9269 18.7405 28.5178 21.0444C25.707 22.9426 23.1162 25.7265 23.0282 31.9359C22.9226 39.4238 27.7832 43.6477 34.7552 43.9924C36.7611 44.0884 38.8989 43.8266 40.7727 43.0761C41.1466 42.9277 41.7713 42.6659 42.3079 42.4172C43.0689 42.0637 43.4516 41.8106 43.2228 41.0339L43.1217 40.4187Z" fill="white"/>
</svg>
