<svg width="57" height="57" viewBox="0 0 57 57" fill="none" xmlns="http://www.w3.org/2000/svg">
<path fill-rule="evenodd" clip-rule="evenodd" d="M0.067627 0.226562H56.279V56.0932H0.067627V0.226562Z" fill="#78B9F4"/>
<path d="M45.0207 21.4844H39.6884C39.5511 21.4844 39.4397 21.5957 39.4397 21.7331V43.6251C39.4397 43.7624 39.5511 43.8738 39.6884 43.8738H45.0207C45.1581 43.8738 45.2694 43.7624 45.2694 43.6251V21.7331C45.2694 21.5957 45.1581 21.4844 45.0207 21.4844Z" fill="white"/>
<path d="M42.3548 18.5273C44.0658 18.5273 45.4529 17.2008 45.4529 15.5644C45.4529 13.9281 44.0658 12.6016 42.3548 12.6016C40.6437 12.6016 39.2567 13.9281 39.2567 15.5644C39.2567 17.2008 40.6437 18.5273 42.3548 18.5273Z" fill="white"/>
<path fill-rule="evenodd" clip-rule="evenodd" d="M27.9157 36.0483L30.1019 43.2874C30.2153 43.715 30.4379 43.8198 30.739 43.8154H36.3374C36.7694 43.8198 36.7999 43.6889 36.7345 43.4009L27.4881 12.5592C27.4706 12.5025 27.427 12.4632 27.3397 12.4632L19.5857 12.4414C19.2802 12.4414 19.2759 12.5985 19.3021 12.8952C19.3981 13.9687 19.3457 14.5708 19.1188 15.413L10.9327 43.4183C10.8455 43.6845 10.8673 43.8154 11.2164 43.8198L16.5007 43.8154C17.0592 43.798 17.0897 43.6452 17.1857 43.366L19.0184 36.0483H27.9157ZM26.7856 30.4193H20.3668L23.478 17.8348L26.7856 30.4193Z" fill="white"/>
</svg>
