<svg width="66" height="65" viewBox="0 0 66 65" fill="none" xmlns="http://www.w3.org/2000/svg">
<path fill-rule="evenodd" clip-rule="evenodd" d="M0.403809 0.179688H65.9646V64.8165H0.403809V0.179688Z" fill="#78B9F4"/>
<path d="M40.5614 27.642H26.5389C24.3372 27.5561 22.2542 26.6211 20.7268 25.033C19.1994 23.4449 18.3463 21.3271 18.3463 19.1237C18.3463 16.9203 19.1994 14.8025 20.7268 13.2144C22.2542 11.6263 24.3372 10.6913 26.5389 10.6055H40.5614C42.7631 10.6913 44.8461 11.6263 46.3735 13.2144C47.9009 14.8025 48.7541 16.9203 48.7541 19.1237C48.7541 21.3271 47.9009 23.4449 46.3735 25.033C44.8461 26.6211 42.7631 27.5561 40.5614 27.642ZM26.5389 13.8394C25.1827 13.9065 23.9042 14.4926 22.968 15.4762C22.0318 16.4599 21.5097 17.7658 21.5097 19.1237C21.5097 20.4816 22.0318 21.7876 22.968 22.7712C23.9042 23.7548 25.1827 24.3409 26.5389 24.408H40.5614C41.9176 24.3409 43.1962 23.7548 44.1323 22.7712C45.0685 21.7876 45.5906 20.4816 45.5906 19.1237C45.5906 17.7658 45.0685 16.4599 44.1323 15.4762C43.1962 14.4926 41.9176 13.9065 40.5614 13.8394H26.5389Z" fill="white"/>
<path d="M33.4467 41.4298H26.5389C24.2815 41.4298 22.1165 40.533 20.5202 38.9368C18.9239 37.3405 18.0272 35.1755 18.0272 32.918C18.0272 30.6606 18.9239 28.4956 20.5202 26.8993C22.1165 25.303 24.2815 24.4063 26.5389 24.4062C26.9678 24.4062 27.3791 24.5766 27.6823 24.8799C27.9856 25.1831 28.1559 25.5944 28.1559 26.0232C28.1559 26.4521 27.9856 26.8634 27.6823 27.1666C27.3791 27.4698 26.9678 27.6402 26.5389 27.6402C25.1392 27.6402 23.7967 28.1963 22.807 29.186C21.8172 30.1758 21.2611 31.5183 21.2611 32.918C21.2611 34.3178 21.8172 35.6602 22.807 36.65C23.7967 37.6398 25.1392 38.1958 26.5389 38.1958H31.8297V26.0232C31.8297 25.5944 32 25.1831 32.3033 24.8799C32.6065 24.5766 33.0178 24.4063 33.4467 24.4062C33.8755 24.4063 34.2868 24.5766 34.59 24.8799C34.8933 25.1831 35.0636 25.5944 35.0636 26.0232V39.8128C35.0636 40.2417 34.8933 40.653 34.59 40.9562C34.2868 41.2594 33.8755 41.4298 33.4467 41.4298Z" fill="white"/>
<path d="M26.6424 55.2344C25.4959 55.279 24.3521 55.0918 23.2796 54.6839C22.2072 54.2759 21.2281 53.6557 20.4011 52.8603C19.5741 52.0649 18.9162 51.1107 18.4668 50.0549C18.0173 48.9992 17.7857 47.8635 17.7857 46.7161C17.7857 45.5687 18.0173 44.4331 18.4668 43.3773C18.9162 42.3215 19.5741 41.3674 20.4011 40.572C21.2281 39.7766 22.2072 39.1563 23.2796 38.7484C24.3521 38.3404 25.4959 38.1532 26.6424 38.1979C27.0713 38.1979 27.4826 38.3682 27.7858 38.6715C28.089 38.9747 28.2594 39.386 28.2594 39.8149C28.2594 40.2437 28.089 40.655 27.7858 40.9582C27.4826 41.2615 27.0713 41.4318 26.6424 41.4318C25.5955 41.4293 24.5713 41.7374 23.6995 42.3172C22.8278 42.897 22.1476 43.7224 21.7452 44.6889C21.3428 45.6555 21.2361 46.7196 21.4388 47.7468C21.6415 48.774 22.1444 49.7179 22.8838 50.4591C23.6232 51.2003 24.5659 51.7055 25.5926 51.9107C26.6192 52.1159 27.6837 52.0119 28.6512 51.6118C29.6187 51.2118 30.4458 50.5336 31.0277 49.6633C31.6096 48.793 31.9202 47.7695 31.9202 46.7226V39.8149C31.9202 39.386 32.0906 38.9747 32.3938 38.6715C32.6971 38.3682 33.1084 38.1979 33.5372 38.1979C33.9661 38.1979 34.3774 38.3682 34.6806 38.6715C34.9838 38.9747 35.1542 39.386 35.1542 39.8149V46.7226C35.1508 48.979 34.2529 51.142 32.6574 52.7375C31.0619 54.3331 28.8988 55.2309 26.6424 55.2344Z" fill="white"/>
<path d="M40.4449 41.6509C38.7384 41.6509 37.0703 41.1449 35.6514 40.1968C34.2325 39.2487 33.1266 37.9012 32.4735 36.3246C31.8205 34.748 31.6496 33.0132 31.9825 31.3395C32.3155 29.6657 33.1372 28.1284 34.3439 26.9217C35.5506 25.715 37.088 24.8932 38.7617 24.5603C40.4354 24.2274 42.1702 24.3983 43.7468 25.0513C45.3234 25.7044 46.6709 26.8103 47.619 28.2292C48.5671 29.6481 49.0731 31.3162 49.0731 33.0227C49.0731 34.1558 48.85 35.2778 48.4164 36.3246C47.9827 37.3714 47.3472 38.3226 46.546 39.1238C45.7448 39.925 44.7936 40.5605 43.7468 40.9941C42.7 41.4278 41.578 41.6509 40.4449 41.6509ZM40.4449 27.6414C39.3775 27.6414 38.3341 27.9581 37.4467 28.5514C36.5594 29.1447 35.868 29.988 35.4601 30.9744C35.0522 31.9608 34.9461 33.0461 35.1553 34.0928C35.3645 35.1395 35.8795 36.1007 36.6352 36.8545C37.3909 37.6084 38.3533 38.1212 39.4005 38.3278C40.4478 38.5345 41.5328 38.4258 42.5182 38.0156C43.5036 37.6053 44.3452 36.9119 44.9364 36.0231C45.5276 35.1343 45.8417 34.0902 45.8392 33.0227C45.8358 31.5943 45.2659 30.2256 44.2547 29.2168C43.2434 28.208 41.8733 27.6414 40.4449 27.6414Z" fill="white"/>
<path d="M33.4467 27.642C33.2343 27.6403 33.0244 27.5968 32.8289 27.5139C32.6333 27.4311 32.456 27.3106 32.3071 27.1592C32.1581 27.0079 32.0405 26.8287 31.9608 26.6318C31.8811 26.435 31.8409 26.2244 31.8426 26.012L31.9461 12.2095C31.9495 11.7851 32.1196 11.3791 32.4197 11.079C32.7198 10.7789 33.1258 10.6089 33.5502 10.6055C33.7625 10.6072 33.9725 10.6507 34.168 10.7335C34.3635 10.8163 34.5408 10.9368 34.6898 11.0882C34.8387 11.2396 34.9564 11.4188 35.0361 11.6156C35.1158 11.8124 35.1559 12.023 35.1542 12.2354L35.0507 26.0379C35.0441 26.4612 34.8729 26.8654 34.5735 27.1648C34.2742 27.4641 33.87 27.6353 33.4467 27.642Z" fill="white"/>
</svg>
