<svg width="241" height="271" viewBox="0 0 241 271" fill="none" xmlns="http://www.w3.org/2000/svg">
<rect x="3.02246" y="2.5" width="235" height="266" fill="white"/>
<rect x="3.02246" y="2.5" width="235" height="266" stroke="#01003F" stroke-width="5"/>
<path d="M38.0425 73L53.5945 39.16H59.5945L75.1465 73H67.6585L64.4905 65.656H48.6985L45.5785 73H38.0425ZM56.5225 47.08L51.1945 59.848H62.0425L56.6185 47.08H56.5225ZM86.7111 73V39.16H102.215C105.831 39.16 108.615 39.944 110.567 41.512C112.551 43.08 113.543 45.224 113.543 47.944C113.543 49.736 113.095 51.288 112.199 52.6C111.303 53.88 110.055 54.84 108.455 55.48C110.375 56.024 111.847 56.984 112.871 58.36C113.927 59.736 114.455 61.432 114.455 63.448C114.455 66.456 113.399 68.808 111.287 70.504C109.207 72.168 106.359 73 102.743 73H86.7111ZM93.8151 53.08H100.919C104.567 53.08 106.391 51.672 106.391 48.856C106.391 46.072 104.567 44.68 100.919 44.68H93.8151V53.08ZM93.8151 67.48H101.735C103.655 67.48 105.063 67.112 105.959 66.376C106.855 65.64 107.303 64.52 107.303 63.016C107.303 61.544 106.855 60.44 105.959 59.704C105.063 58.968 103.655 58.6 101.735 58.6H93.8151V67.48ZM145.142 73.528C141.494 73.528 138.374 72.808 135.782 71.368C133.19 69.928 131.19 67.912 129.782 65.32C128.406 62.696 127.718 59.608 127.718 56.056C127.718 52.536 128.406 49.48 129.782 46.888C131.19 44.264 133.19 42.232 135.782 40.792C138.374 39.352 141.494 38.632 145.142 38.632C147.382 38.632 149.526 38.984 151.574 39.688C153.622 40.392 155.302 41.352 156.614 42.568L154.31 48.472C152.87 47.352 151.414 46.536 149.942 46.024C148.502 45.48 146.982 45.208 145.382 45.208C142.15 45.208 139.702 46.152 138.038 48.04C136.406 49.896 135.59 52.568 135.59 56.056C135.59 59.544 136.406 62.232 138.038 64.12C139.702 66.008 142.15 66.952 145.382 66.952C146.982 66.952 148.502 66.696 149.942 66.184C151.414 65.64 152.87 64.808 154.31 63.688L156.614 69.592C155.302 70.776 153.622 71.736 151.574 72.472C149.526 73.176 147.382 73.528 145.142 73.528ZM49.2745 138.528C47.5145 138.528 45.9625 138.192 44.6185 137.52C43.2745 136.848 42.2025 135.936 41.4025 134.784C40.6345 133.632 40.2505 132.336 40.2505 130.896C40.2505 129.2 40.6985 127.84 41.5945 126.816C42.4905 125.792 43.9465 125.072 45.9625 124.656C47.9785 124.208 50.6505 123.984 53.9785 123.984H55.7065V123.168C55.7065 121.76 55.3865 120.768 54.7465 120.192C54.1065 119.584 53.0185 119.28 51.4825 119.28C50.2025 119.28 48.8425 119.488 47.4025 119.904C45.9945 120.288 44.5865 120.88 43.1785 121.68L41.2105 116.832C42.0425 116.288 43.0505 115.792 44.2345 115.344C45.4505 114.896 46.7145 114.56 48.0265 114.336C49.3385 114.08 50.5865 113.952 51.7705 113.952C55.4185 113.952 58.1385 114.784 59.9305 116.448C61.7225 118.08 62.6185 120.624 62.6185 124.08V138H55.8505V134.448C55.3705 135.696 54.5545 136.688 53.4025 137.424C52.2825 138.16 50.9065 138.528 49.2745 138.528ZM50.9065 133.68C52.2505 133.68 53.3865 133.216 54.3145 132.288C55.2425 131.36 55.7065 130.16 55.7065 128.688V127.728H54.0265C51.5625 127.728 49.8185 127.952 48.7945 128.4C47.7705 128.816 47.2585 129.552 47.2585 130.608C47.2585 131.504 47.5625 132.24 48.1705 132.816C48.8105 133.392 49.7225 133.68 50.9065 133.68ZM91.2092 138.528C89.5452 138.528 88.0412 138.16 86.6972 137.424C85.3852 136.688 84.4092 135.712 83.7692 134.496V138H76.6652V104.16H83.9132V117.6C84.6172 116.48 85.6092 115.6 86.8892 114.96C88.2012 114.288 89.6412 113.952 91.2092 113.952C93.2572 113.952 95.0492 114.448 96.5852 115.44C98.1532 116.432 99.3692 117.84 100.233 119.664C101.097 121.488 101.529 123.664 101.529 126.192C101.529 128.72 101.097 130.912 100.233 132.768C99.3692 134.592 98.1532 136.016 96.5852 137.04C95.0492 138.032 93.2572 138.528 91.2092 138.528ZM89.0492 133.104C90.5852 133.104 91.8332 132.544 92.7932 131.424C93.7532 130.304 94.2332 128.56 94.2332 126.192C94.2332 123.856 93.7532 122.144 92.7932 121.056C91.8332 119.936 90.5852 119.376 89.0492 119.376C87.4812 119.376 86.2172 119.936 85.2572 121.056C84.2972 122.144 83.8172 123.856 83.8172 126.192C83.8172 128.56 84.2972 130.304 85.2572 131.424C86.2172 132.544 87.4812 133.104 89.0492 133.104ZM126.074 138.528C123.514 138.528 121.274 138.032 119.354 137.04C117.466 136.016 116.01 134.576 114.986 132.72C113.962 130.864 113.45 128.672 113.45 126.144C113.45 123.616 113.962 121.44 114.986 119.616C116.01 117.792 117.466 116.4 119.354 115.44C121.274 114.448 123.514 113.952 126.074 113.952C127.578 113.952 129.098 114.176 130.634 114.624C132.17 115.072 133.418 115.712 134.378 116.544L132.362 121.536C131.562 120.896 130.666 120.4 129.674 120.048C128.682 119.664 127.722 119.472 126.794 119.472C124.906 119.472 123.434 120.064 122.378 121.248C121.354 122.4 120.842 124.048 120.842 126.192C120.842 128.304 121.354 129.968 122.378 131.184C123.434 132.368 124.906 132.96 126.794 132.96C127.69 132.96 128.634 132.784 129.626 132.432C130.65 132.08 131.562 131.568 132.362 130.896L134.378 135.888C133.418 136.72 132.17 137.376 130.634 137.856C129.098 138.304 127.578 138.528 126.074 138.528ZM43.3225 203V196.904H50.9065V177.464L45.0985 180.872L42.2665 175.448L53.0665 169.16H58.3465V196.904H65.4505V203H43.3225ZM79.4957 203V197.48L90.1037 186.344C91.4477 184.872 92.4077 183.592 92.9837 182.504C93.5917 181.384 93.8957 180.264 93.8957 179.144C93.8957 176.264 92.1197 174.824 88.5677 174.824C87.1917 174.824 85.8157 175.096 84.4397 175.64C83.0637 176.152 81.7197 176.952 80.4077 178.04L78.0077 172.568C79.4157 171.352 81.1437 170.392 83.1917 169.688C85.2717 168.984 87.3997 168.632 89.5757 168.632C93.3517 168.632 96.2317 169.48 98.2157 171.176C100.232 172.84 101.24 175.224 101.24 178.328C101.24 180.376 100.76 182.344 99.7997 184.232C98.8717 186.088 97.3357 188.104 95.1917 190.28L88.6637 196.904H102.488V203H79.4957ZM126.949 203.528C124.581 203.528 122.325 203.192 120.181 202.52C118.037 201.848 116.277 200.936 114.901 199.784L117.253 194.168C120.101 196.28 123.237 197.336 126.661 197.336C130.565 197.336 132.517 195.88 132.517 192.968C132.517 190.28 130.693 188.936 127.045 188.936H121.381V182.936H126.325C127.925 182.936 129.189 182.568 130.117 181.832C131.045 181.096 131.509 180.072 131.509 178.76C131.509 176.136 129.797 174.824 126.373 174.824C123.173 174.824 120.325 175.896 117.829 178.04L115.477 172.568C116.885 171.32 118.613 170.36 120.661 169.688C122.709 168.984 124.837 168.632 127.045 168.632C130.693 168.632 133.541 169.448 135.589 171.08C137.637 172.712 138.661 174.952 138.661 177.8C138.661 179.56 138.213 181.112 137.317 182.456C136.421 183.8 135.173 184.776 133.573 185.384C135.493 185.928 136.981 186.936 138.037 188.408C139.125 189.848 139.669 191.592 139.669 193.64C139.669 196.712 138.533 199.128 136.261 200.888C133.989 202.648 130.885 203.528 126.949 203.528ZM156.978 203V195.32H164.754V203H156.978ZM169.458 203V195.32H177.234V203H169.458ZM144.498 203V195.32H152.274V203H144.498Z" fill="#01003F"/>
<path d="M52.2955 228.455V243H50.5909L42.6648 231.58H42.5227V243H40.7614V228.455H42.4659L50.4205 239.903H50.5625V228.455H52.2955ZM62.4677 238.54V232.091H64.1438V243H62.4677V241.153H62.354C62.0984 241.707 61.7006 242.179 61.1609 242.567C60.6211 242.95 59.9393 243.142 59.1154 243.142C58.4336 243.142 57.8275 242.993 57.2972 242.695C56.7669 242.392 56.3503 241.937 56.0472 241.331C55.7442 240.72 55.5927 239.951 55.5927 239.023V232.091H57.2688V238.909C57.2688 239.705 57.4914 240.339 57.9364 240.812C58.3862 241.286 58.9592 241.523 59.6552 241.523C60.0719 241.523 60.4956 241.416 60.9265 241.203C61.3621 240.99 61.7267 240.663 62.0202 240.223C62.3185 239.783 62.4677 239.222 62.4677 238.54ZM68.8899 236.438V243H67.2138V232.091H68.8331V233.795H68.9751C69.2308 233.241 69.6191 232.796 70.1399 232.46C70.6607 232.119 71.3331 231.949 72.157 231.949C72.8956 231.949 73.5419 232.1 74.0959 232.403C74.6499 232.702 75.0807 233.156 75.3885 233.767C75.6963 234.373 75.8501 235.14 75.8501 236.068V243H74.174V236.182C74.174 235.325 73.9515 234.657 73.5064 234.179C73.0613 233.696 72.4505 233.455 71.674 233.455C71.139 233.455 70.6607 233.571 70.2393 233.803C69.8227 234.035 69.4936 234.373 69.2521 234.818C69.0107 235.263 68.8899 235.803 68.8899 236.438ZM78.913 243V232.091H80.5891V243H78.913ZM79.7653 230.273C79.4386 230.273 79.1568 230.161 78.9201 229.939C78.6881 229.716 78.5721 229.449 78.5721 229.136C78.5721 228.824 78.6881 228.556 78.9201 228.334C79.1568 228.111 79.4386 228 79.7653 228C80.092 228 80.3713 228.111 80.6033 228.334C80.8401 228.556 80.9585 228.824 80.9585 229.136C80.9585 229.449 80.8401 229.716 80.6033 229.939C80.3713 230.161 80.092 230.273 79.7653 230.273ZM88.4034 232.091V233.511H82.75V232.091H88.4034ZM84.3977 229.477H86.0739V239.875C86.0739 240.348 86.1425 240.704 86.2798 240.94C86.4219 241.172 86.6018 241.329 86.8196 241.409C87.0421 241.485 87.2765 241.523 87.5227 241.523C87.7074 241.523 87.8589 241.513 87.9773 241.494C88.0956 241.471 88.1903 241.452 88.2614 241.438L88.6023 242.943C88.4886 242.986 88.33 243.028 88.1264 243.071C87.9228 243.118 87.6648 243.142 87.3523 243.142C86.8788 243.142 86.4148 243.04 85.9602 242.837C85.5104 242.633 85.1364 242.323 84.8381 241.906C84.5445 241.49 84.3977 240.964 84.3977 240.33V229.477ZM95.2393 243.227C94.2545 243.227 93.3904 242.993 92.647 242.524C91.9084 242.055 91.3307 241.4 90.9141 240.557C90.5021 239.714 90.2962 238.729 90.2962 237.602C90.2962 236.466 90.5021 235.474 90.9141 234.626C91.3307 233.779 91.9084 233.121 92.647 232.652C93.3904 232.183 94.2545 231.949 95.2393 231.949C96.2242 231.949 97.0859 232.183 97.8246 232.652C98.5679 233.121 99.1456 233.779 99.5575 234.626C99.9742 235.474 100.183 236.466 100.183 237.602C100.183 238.729 99.9742 239.714 99.5575 240.557C99.1456 241.4 98.5679 242.055 97.8246 242.524C97.0859 242.993 96.2242 243.227 95.2393 243.227ZM95.2393 241.722C95.9875 241.722 96.603 241.53 97.0859 241.146C97.5689 240.763 97.9264 240.259 98.1584 239.634C98.3904 239.009 98.5064 238.331 98.5064 237.602C98.5064 236.873 98.3904 236.194 98.1584 235.564C97.9264 234.934 97.5689 234.425 97.0859 234.037C96.603 233.649 95.9875 233.455 95.2393 233.455C94.4912 233.455 93.8757 233.649 93.3928 234.037C92.9098 234.425 92.5523 234.934 92.3203 235.564C92.0883 236.194 91.9723 236.873 91.9723 237.602C91.9723 238.331 92.0883 239.009 92.3203 239.634C92.5523 240.259 92.9098 240.763 93.3928 241.146C93.8757 241.53 94.4912 241.722 95.2393 241.722ZM116.548 232.091C116.463 231.371 116.117 230.812 115.511 230.415C114.905 230.017 114.162 229.818 113.281 229.818C112.637 229.818 112.074 229.922 111.591 230.131C111.112 230.339 110.738 230.625 110.468 230.99C110.203 231.355 110.071 231.769 110.071 232.233C110.071 232.621 110.163 232.955 110.348 233.234C110.537 233.509 110.779 233.739 111.072 233.923C111.366 234.103 111.673 234.252 111.995 234.371C112.317 234.484 112.613 234.577 112.883 234.648L114.36 235.045C114.739 235.145 115.161 235.282 115.625 235.457C116.093 235.633 116.541 235.872 116.967 236.175C117.398 236.473 117.753 236.857 118.032 237.325C118.312 237.794 118.451 238.369 118.451 239.051C118.451 239.837 118.245 240.547 117.833 241.182C117.426 241.816 116.83 242.321 116.044 242.695C115.262 243.069 114.313 243.256 113.196 243.256C112.154 243.256 111.252 243.088 110.49 242.751C109.732 242.415 109.136 241.946 108.7 241.345C108.269 240.744 108.025 240.045 107.968 239.25H109.787C109.834 239.799 110.019 240.254 110.341 240.614C110.667 240.969 111.079 241.234 111.576 241.409C112.078 241.58 112.618 241.665 113.196 241.665C113.868 241.665 114.472 241.556 115.007 241.338C115.542 241.116 115.966 240.808 116.278 240.415C116.591 240.017 116.747 239.553 116.747 239.023C116.747 238.54 116.612 238.147 116.342 237.844C116.072 237.541 115.717 237.295 115.277 237.105C114.836 236.916 114.36 236.75 113.849 236.608L112.059 236.097C110.923 235.77 110.023 235.304 109.36 234.697C108.698 234.091 108.366 233.298 108.366 232.318C108.366 231.504 108.586 230.794 109.027 230.188C109.472 229.577 110.068 229.103 110.816 228.767C111.569 228.426 112.41 228.256 113.338 228.256C114.275 228.256 115.109 228.424 115.838 228.76C116.567 229.091 117.145 229.546 117.571 230.124C118.002 230.701 118.229 231.357 118.252 232.091H116.548ZM124.33 243.256C123.639 243.256 123.012 243.125 122.448 242.865C121.885 242.6 121.437 242.219 121.106 241.722C120.774 241.22 120.609 240.614 120.609 239.903C120.609 239.278 120.732 238.772 120.978 238.384C121.224 237.991 121.553 237.683 121.965 237.46C122.377 237.238 122.832 237.072 123.329 236.963C123.831 236.849 124.335 236.759 124.842 236.693C125.504 236.608 126.042 236.544 126.454 236.501C126.871 236.454 127.174 236.376 127.363 236.267C127.557 236.158 127.654 235.969 127.654 235.699V235.642C127.654 234.941 127.462 234.397 127.079 234.009C126.7 233.62 126.125 233.426 125.353 233.426C124.553 233.426 123.925 233.601 123.471 233.952C123.016 234.302 122.697 234.676 122.512 235.074L120.921 234.506C121.205 233.843 121.584 233.327 122.058 232.957C122.536 232.583 123.057 232.323 123.62 232.176C124.188 232.025 124.747 231.949 125.296 231.949C125.647 231.949 126.049 231.991 126.504 232.077C126.963 232.157 127.406 232.325 127.832 232.581C128.263 232.837 128.62 233.223 128.904 233.739C129.188 234.255 129.33 234.946 129.33 235.812V243H127.654V241.523H127.569C127.455 241.759 127.266 242.013 127.001 242.283C126.736 242.553 126.383 242.782 125.942 242.972C125.502 243.161 124.965 243.256 124.33 243.256ZM124.586 241.75C125.249 241.75 125.808 241.62 126.262 241.359C126.721 241.099 127.067 240.763 127.299 240.351C127.536 239.939 127.654 239.506 127.654 239.051V237.517C127.583 237.602 127.427 237.68 127.185 237.751C126.949 237.818 126.674 237.877 126.362 237.929C126.054 237.976 125.753 238.019 125.46 238.057C125.171 238.09 124.936 238.118 124.756 238.142C124.321 238.199 123.914 238.291 123.535 238.419C123.161 238.542 122.858 238.729 122.626 238.98C122.398 239.226 122.285 239.562 122.285 239.989C122.285 240.571 122.5 241.011 122.931 241.31C123.367 241.603 123.918 241.75 124.586 241.75ZM134.066 236.438V243H132.39V232.091H134.009V233.795H134.151C134.407 233.241 134.795 232.796 135.316 232.46C135.837 232.119 136.509 231.949 137.333 231.949C138.071 231.949 138.718 232.1 139.272 232.403C139.826 232.702 140.257 233.156 140.564 233.767C140.872 234.373 141.026 235.14 141.026 236.068V243H139.35V236.182C139.35 235.325 139.127 234.657 138.682 234.179C138.237 233.696 137.626 233.455 136.85 233.455C136.315 233.455 135.837 233.571 135.415 233.803C134.998 234.035 134.669 234.373 134.428 234.818C134.186 235.263 134.066 235.803 134.066 236.438ZM151.816 234.534L150.31 234.96C150.216 234.709 150.076 234.465 149.891 234.229C149.711 233.987 149.465 233.788 149.153 233.632C148.84 233.476 148.44 233.398 147.952 233.398C147.285 233.398 146.728 233.552 146.283 233.859C145.843 234.162 145.623 234.548 145.623 235.017C145.623 235.434 145.774 235.763 146.077 236.004C146.38 236.246 146.854 236.447 147.498 236.608L149.117 237.006C150.093 237.242 150.819 237.605 151.298 238.092C151.776 238.575 152.015 239.198 152.015 239.96C152.015 240.585 151.835 241.144 151.475 241.636C151.12 242.129 150.623 242.517 149.984 242.801C149.344 243.085 148.601 243.227 147.754 243.227C146.641 243.227 145.72 242.986 144.991 242.503C144.262 242.02 143.8 241.314 143.606 240.386L145.197 239.989C145.348 240.576 145.635 241.016 146.056 241.31C146.482 241.603 147.039 241.75 147.725 241.75C148.506 241.75 149.127 241.584 149.586 241.253C150.05 240.917 150.282 240.514 150.282 240.045C150.282 239.667 150.149 239.349 149.884 239.094C149.619 238.833 149.212 238.639 148.663 238.511L146.844 238.085C145.845 237.848 145.112 237.482 144.643 236.984C144.179 236.482 143.947 235.855 143.947 235.102C143.947 234.487 144.12 233.942 144.465 233.469C144.816 232.995 145.291 232.624 145.893 232.354C146.499 232.084 147.185 231.949 147.952 231.949C149.032 231.949 149.879 232.186 150.495 232.659C151.115 233.133 151.556 233.758 151.816 234.534Z" fill="#01003F"/>
</svg>
