<svg width="241" height="271" viewBox="0 0 241 271" fill="none" xmlns="http://www.w3.org/2000/svg">
<rect x="3.02246" y="2.5" width="235" height="266" fill="white"/>
<rect x="3.02246" y="2.5" width="235" height="266" stroke="#01003F" stroke-width="5"/>
<path d="M38.0425 73L53.5945 39.16H59.5945L75.1465 73H67.6585L64.4905 65.656H48.6985L45.5785 73H38.0425ZM56.5225 47.08L51.1945 59.848H62.0425L56.6185 47.08H56.5225ZM86.7111 73V39.16H102.215C105.831 39.16 108.615 39.944 110.567 41.512C112.551 43.08 113.543 45.224 113.543 47.944C113.543 49.736 113.095 51.288 112.199 52.6C111.303 53.88 110.055 54.84 108.455 55.48C110.375 56.024 111.847 56.984 112.871 58.36C113.927 59.736 114.455 61.432 114.455 63.448C114.455 66.456 113.399 68.808 111.287 70.504C109.207 72.168 106.359 73 102.743 73H86.7111ZM93.8151 53.08H100.919C104.567 53.08 106.391 51.672 106.391 48.856C106.391 46.072 104.567 44.68 100.919 44.68H93.8151V53.08ZM93.8151 67.48H101.735C103.655 67.48 105.063 67.112 105.959 66.376C106.855 65.64 107.303 64.52 107.303 63.016C107.303 61.544 106.855 60.44 105.959 59.704C105.063 58.968 103.655 58.6 101.735 58.6H93.8151V67.48ZM145.142 73.528C141.494 73.528 138.374 72.808 135.782 71.368C133.19 69.928 131.19 67.912 129.782 65.32C128.406 62.696 127.718 59.608 127.718 56.056C127.718 52.536 128.406 49.48 129.782 46.888C131.19 44.264 133.19 42.232 135.782 40.792C138.374 39.352 141.494 38.632 145.142 38.632C147.382 38.632 149.526 38.984 151.574 39.688C153.622 40.392 155.302 41.352 156.614 42.568L154.31 48.472C152.87 47.352 151.414 46.536 149.942 46.024C148.502 45.48 146.982 45.208 145.382 45.208C142.15 45.208 139.702 46.152 138.038 48.04C136.406 49.896 135.59 52.568 135.59 56.056C135.59 59.544 136.406 62.232 138.038 64.12C139.702 66.008 142.15 66.952 145.382 66.952C146.982 66.952 148.502 66.696 149.942 66.184C151.414 65.64 152.87 64.808 154.31 63.688L156.614 69.592C155.302 70.776 153.622 71.736 151.574 72.472C149.526 73.176 147.382 73.528 145.142 73.528ZM49.2745 138.528C47.5145 138.528 45.9625 138.192 44.6185 137.52C43.2745 136.848 42.2025 135.936 41.4025 134.784C40.6345 133.632 40.2505 132.336 40.2505 130.896C40.2505 129.2 40.6985 127.84 41.5945 126.816C42.4905 125.792 43.9465 125.072 45.9625 124.656C47.9785 124.208 50.6505 123.984 53.9785 123.984H55.7065V123.168C55.7065 121.76 55.3865 120.768 54.7465 120.192C54.1065 119.584 53.0185 119.28 51.4825 119.28C50.2025 119.28 48.8425 119.488 47.4025 119.904C45.9945 120.288 44.5865 120.88 43.1785 121.68L41.2105 116.832C42.0425 116.288 43.0505 115.792 44.2345 115.344C45.4505 114.896 46.7145 114.56 48.0265 114.336C49.3385 114.08 50.5865 113.952 51.7705 113.952C55.4185 113.952 58.1385 114.784 59.9305 116.448C61.7225 118.08 62.6185 120.624 62.6185 124.08V138H55.8505V134.448C55.3705 135.696 54.5545 136.688 53.4025 137.424C52.2825 138.16 50.9065 138.528 49.2745 138.528ZM50.9065 133.68C52.2505 133.68 53.3865 133.216 54.3145 132.288C55.2425 131.36 55.7065 130.16 55.7065 128.688V127.728H54.0265C51.5625 127.728 49.8185 127.952 48.7945 128.4C47.7705 128.816 47.2585 129.552 47.2585 130.608C47.2585 131.504 47.5625 132.24 48.1705 132.816C48.8105 133.392 49.7225 133.68 50.9065 133.68ZM91.2092 138.528C89.5452 138.528 88.0412 138.16 86.6972 137.424C85.3852 136.688 84.4092 135.712 83.7692 134.496V138H76.6652V104.16H83.9132V117.6C84.6172 116.48 85.6092 115.6 86.8892 114.96C88.2012 114.288 89.6412 113.952 91.2092 113.952C93.2572 113.952 95.0492 114.448 96.5852 115.44C98.1532 116.432 99.3692 117.84 100.233 119.664C101.097 121.488 101.529 123.664 101.529 126.192C101.529 128.72 101.097 130.912 100.233 132.768C99.3692 134.592 98.1532 136.016 96.5852 137.04C95.0492 138.032 93.2572 138.528 91.2092 138.528ZM89.0492 133.104C90.5852 133.104 91.8332 132.544 92.7932 131.424C93.7532 130.304 94.2332 128.56 94.2332 126.192C94.2332 123.856 93.7532 122.144 92.7932 121.056C91.8332 119.936 90.5852 119.376 89.0492 119.376C87.4812 119.376 86.2172 119.936 85.2572 121.056C84.2972 122.144 83.8172 123.856 83.8172 126.192C83.8172 128.56 84.2972 130.304 85.2572 131.424C86.2172 132.544 87.4812 133.104 89.0492 133.104ZM126.074 138.528C123.514 138.528 121.274 138.032 119.354 137.04C117.466 136.016 116.01 134.576 114.986 132.72C113.962 130.864 113.45 128.672 113.45 126.144C113.45 123.616 113.962 121.44 114.986 119.616C116.01 117.792 117.466 116.4 119.354 115.44C121.274 114.448 123.514 113.952 126.074 113.952C127.578 113.952 129.098 114.176 130.634 114.624C132.17 115.072 133.418 115.712 134.378 116.544L132.362 121.536C131.562 120.896 130.666 120.4 129.674 120.048C128.682 119.664 127.722 119.472 126.794 119.472C124.906 119.472 123.434 120.064 122.378 121.248C121.354 122.4 120.842 124.048 120.842 126.192C120.842 128.304 121.354 129.968 122.378 131.184C123.434 132.368 124.906 132.96 126.794 132.96C127.69 132.96 128.634 132.784 129.626 132.432C130.65 132.08 131.562 131.568 132.362 130.896L134.378 135.888C133.418 136.72 132.17 137.376 130.634 137.856C129.098 138.304 127.578 138.528 126.074 138.528ZM43.3225 203V196.904H50.9065V177.464L45.0985 180.872L42.2665 175.448L53.0665 169.16H58.3465V196.904H65.4505V203H43.3225ZM79.4957 203V197.48L90.1037 186.344C91.4477 184.872 92.4077 183.592 92.9837 182.504C93.5917 181.384 93.8957 180.264 93.8957 179.144C93.8957 176.264 92.1197 174.824 88.5677 174.824C87.1917 174.824 85.8157 175.096 84.4397 175.64C83.0637 176.152 81.7197 176.952 80.4077 178.04L78.0077 172.568C79.4157 171.352 81.1437 170.392 83.1917 169.688C85.2717 168.984 87.3997 168.632 89.5757 168.632C93.3517 168.632 96.2317 169.48 98.2157 171.176C100.232 172.84 101.24 175.224 101.24 178.328C101.24 180.376 100.76 182.344 99.7997 184.232C98.8717 186.088 97.3357 188.104 95.1917 190.28L88.6637 196.904H102.488V203H79.4957ZM126.949 203.528C124.581 203.528 122.325 203.192 120.181 202.52C118.037 201.848 116.277 200.936 114.901 199.784L117.253 194.168C120.101 196.28 123.237 197.336 126.661 197.336C130.565 197.336 132.517 195.88 132.517 192.968C132.517 190.28 130.693 188.936 127.045 188.936H121.381V182.936H126.325C127.925 182.936 129.189 182.568 130.117 181.832C131.045 181.096 131.509 180.072 131.509 178.76C131.509 176.136 129.797 174.824 126.373 174.824C123.173 174.824 120.325 175.896 117.829 178.04L115.477 172.568C116.885 171.32 118.613 170.36 120.661 169.688C122.709 168.984 124.837 168.632 127.045 168.632C130.693 168.632 133.541 169.448 135.589 171.08C137.637 172.712 138.661 174.952 138.661 177.8C138.661 179.56 138.213 181.112 137.317 182.456C136.421 183.8 135.173 184.776 133.573 185.384C135.493 185.928 136.981 186.936 138.037 188.408C139.125 189.848 139.669 191.592 139.669 193.64C139.669 196.712 138.533 199.128 136.261 200.888C133.989 202.648 130.885 203.528 126.949 203.528ZM156.978 203V195.32H164.754V203H156.978ZM169.458 203V195.32H177.234V203H169.458ZM144.498 203V195.32H152.274V203H144.498Z" fill="#01003F"/>
<path d="M23.8804 243H22.0338L27.3747 228.455H29.1929L34.5338 243H32.6872L28.3406 230.756H28.227L23.8804 243ZM24.5622 237.318H32.0054V238.881H24.5622V237.318ZM44.1254 232.091L40.0914 243H38.3868L34.3527 232.091H36.1709L39.1823 240.784H39.2959L42.3073 232.091H44.1254ZM50.521 243.227C49.4699 243.227 48.5632 242.995 47.8009 242.531C47.0433 242.062 46.4585 241.409 46.0466 240.571C45.6394 239.728 45.4358 238.748 45.4358 237.631C45.4358 236.513 45.6394 235.528 46.0466 234.676C46.4585 233.819 47.0315 233.152 47.7654 232.673C48.504 232.19 49.3657 231.949 50.3506 231.949C50.9188 231.949 51.4798 232.044 52.0338 232.233C52.5878 232.422 53.0921 232.73 53.5466 233.156C54.0012 233.578 54.3634 234.136 54.6333 234.832C54.9031 235.528 55.0381 236.385 55.0381 237.403V238.114H46.629V236.665H53.3335C53.3335 236.049 53.2104 235.5 52.9642 235.017C52.7227 234.534 52.3771 234.153 51.9273 233.874C51.4822 233.594 50.9566 233.455 50.3506 233.455C49.683 233.455 49.1053 233.62 48.6176 233.952C48.1347 234.278 47.763 234.705 47.5026 235.23C47.2422 235.756 47.1119 236.319 47.1119 236.92V237.886C47.1119 238.71 47.254 239.409 47.5381 239.982C47.8269 240.55 48.227 240.983 48.7384 241.281C49.2497 241.575 49.844 241.722 50.521 241.722C50.9614 241.722 51.3591 241.66 51.7142 241.537C52.0741 241.409 52.3842 241.22 52.6446 240.969C52.905 240.713 53.1063 240.396 53.2483 240.017L54.8676 240.472C54.6972 241.021 54.4107 241.504 54.0083 241.92C53.6058 242.332 53.1086 242.654 52.5168 242.886C51.9249 243.114 51.2597 243.227 50.521 243.227ZM59.2639 236.438V243H57.5878V232.091H59.2071V233.795H59.3492C59.6048 233.241 59.9931 232.796 60.5139 232.46C61.0348 232.119 61.7071 231.949 62.531 231.949C63.2696 231.949 63.9159 232.1 64.4699 232.403C65.0239 232.702 65.4548 233.156 65.7625 233.767C66.0703 234.373 66.2242 235.14 66.2242 236.068V243H64.548V236.182C64.548 235.325 64.3255 234.657 63.8804 234.179C63.4353 233.696 62.8245 233.455 62.048 233.455C61.513 233.455 61.0348 233.571 60.6134 233.803C60.1967 234.035 59.8676 234.373 59.6262 234.818C59.3847 235.263 59.2639 235.803 59.2639 236.438ZM69.287 243V232.091H70.9632V243H69.287ZM70.1393 230.273C69.8126 230.273 69.5309 230.161 69.2941 229.939C69.0621 229.716 68.9461 229.449 68.9461 229.136C68.9461 228.824 69.0621 228.556 69.2941 228.334C69.5309 228.111 69.8126 228 70.1393 228C70.466 228 70.7454 228.111 70.9774 228.334C71.2141 228.556 71.3325 228.824 71.3325 229.136C71.3325 229.449 71.2141 229.716 70.9774 229.939C70.7454 230.161 70.466 230.273 70.1393 230.273ZM74.0331 243V232.091H75.6524V233.739H75.7661C75.9649 233.199 76.3248 232.761 76.8456 232.425C77.3664 232.089 77.9536 231.92 78.607 231.92C78.7301 231.92 78.884 231.923 79.0686 231.928C79.2533 231.932 79.393 231.939 79.4877 231.949V233.653C79.4308 233.639 79.3006 233.618 79.097 233.589C78.8982 233.556 78.6875 233.54 78.4649 233.54C77.9346 233.54 77.4611 233.651 77.0445 233.874C76.6325 234.091 76.3058 234.394 76.0644 234.783C75.8276 235.166 75.7093 235.604 75.7093 236.097V243H74.0331ZM87.3268 243V228.455H89.0882V241.438H95.8495V243H87.3268ZM95.8477 230.017V228.455H106.757V230.017H102.183V243H100.422V230.017H95.8477ZM115.1 243V228.455H120.015C121.156 228.455 122.089 228.661 122.813 229.072C123.542 229.48 124.082 230.031 124.433 230.727C124.783 231.423 124.958 232.2 124.958 233.057C124.958 233.914 124.783 234.693 124.433 235.393C124.087 236.094 123.552 236.653 122.828 237.07C122.103 237.482 121.175 237.688 120.043 237.688H116.521V236.125H119.987C120.768 236.125 121.395 235.99 121.869 235.72C122.342 235.45 122.685 235.086 122.899 234.626C123.116 234.162 123.225 233.639 123.225 233.057C123.225 232.474 123.116 231.954 122.899 231.494C122.685 231.035 122.34 230.675 121.862 230.415C121.383 230.15 120.749 230.017 119.958 230.017H116.862V243H115.1ZM127.796 243V228.455H132.71C133.847 228.455 134.779 228.649 135.509 229.037C136.238 229.42 136.778 229.948 137.128 230.621C137.478 231.293 137.653 232.058 137.653 232.915C137.653 233.772 137.478 234.532 137.128 235.195C136.778 235.857 136.24 236.378 135.516 236.757C134.791 237.131 133.866 237.318 132.739 237.318H128.761V235.727H132.682C133.458 235.727 134.083 235.614 134.557 235.386C135.035 235.159 135.381 234.837 135.594 234.42C135.812 233.999 135.921 233.497 135.921 232.915C135.921 232.332 135.812 231.823 135.594 231.388C135.376 230.952 135.028 230.616 134.55 230.379C134.072 230.138 133.439 230.017 132.653 230.017H129.557V243H127.796ZM134.642 236.466L138.222 243H136.176L132.653 236.466H134.642ZM152.861 235.727C152.861 237.261 152.584 238.587 152.03 239.705C151.476 240.822 150.716 241.684 149.75 242.29C148.785 242.896 147.681 243.199 146.441 243.199C145.2 243.199 144.097 242.896 143.131 242.29C142.165 241.684 141.405 240.822 140.851 239.705C140.297 238.587 140.02 237.261 140.02 235.727C140.02 234.193 140.297 232.867 140.851 231.75C141.405 230.633 142.165 229.771 143.131 229.165C144.097 228.559 145.2 228.256 146.441 228.256C147.681 228.256 148.785 228.559 149.75 229.165C150.716 229.771 151.476 230.633 152.03 231.75C152.584 232.867 152.861 234.193 152.861 235.727ZM151.157 235.727C151.157 234.468 150.946 233.405 150.525 232.538C150.108 231.672 149.542 231.016 148.827 230.571C148.117 230.126 147.321 229.903 146.441 229.903C145.56 229.903 144.762 230.126 144.047 230.571C143.337 231.016 142.771 231.672 142.35 232.538C141.933 233.405 141.725 234.468 141.725 235.727C141.725 236.987 141.933 238.05 142.35 238.916C142.771 239.783 143.337 240.438 144.047 240.884C144.762 241.329 145.56 241.551 146.441 241.551C147.321 241.551 148.117 241.329 148.827 240.884C149.542 240.438 150.108 239.783 150.525 238.916C150.946 238.05 151.157 236.987 151.157 235.727Z" fill="#01003F"/>
</svg>
