<svg width="101" height="54" viewBox="0 0 101 54" fill="none" xmlns="http://www.w3.org/2000/svg">
<path fill-rule="evenodd" clip-rule="evenodd" d="M99.1412 2.12711C100.081 3.08426 100.605 4.35399 100.605 5.67389C100.605 6.99378 100.081 8.26351 99.1412 9.22066L57.7342 50.7101C56.8214 51.6387 55.7228 52.3783 54.5053 52.8837C53.288 53.3891 51.9768 53.6496 50.6519 53.6496C49.3269 53.6496 48.0157 53.3891 46.7981 52.8837C45.5806 52.3783 44.4823 51.6387 43.5695 50.7101L1.85681 8.92032C-0.072241 6.98218 -0.0972937 3.84234 1.80671 1.87535C2.26032 1.39913 2.81031 1.0179 3.42257 0.755799C4.03486 0.493702 4.69628 0.356068 5.36584 0.351679C6.03537 0.347133 6.69877 0.475832 7.31475 0.729464C7.93076 0.983097 8.48624 1.3568 8.94671 1.82676L47.1119 40.0701C47.5682 40.5347 48.1178 40.905 48.7266 41.1577C49.3357 41.4107 49.9917 41.5411 50.6544 41.5411C51.317 41.5411 51.9731 41.4107 52.5818 41.1577C53.1909 40.905 53.7405 40.5347 54.1968 40.0701L92.0614 2.13212C92.5173 1.6675 93.0663 1.29755 93.6747 1.04455C94.2835 0.791854 94.939 0.661432 95.6013 0.661432C96.2636 0.661432 96.9191 0.791854 97.5275 1.04455C98.1363 1.29755 98.6853 1.66248 99.1412 2.12711Z" fill="#001AFF"/>
</svg>
