<?xml version="1.0" encoding="UTF-8"?>
<svg id="Capa_2" data-name="Capa 2" xmlns="http://www.w3.org/2000/svg" viewBox="0 0 41.44 45.09">
  <defs>
    <style>
      .cls-1 {
        fill: #01003f;
      }

      .cls-1, .cls-2, .cls-3 {
        stroke-width: 0px;
      }

      .cls-2 {
        fill: none;
      }

      .cls-3 {
        fill: #0026ff;
      }
    </style>
  </defs>
  <g id="Capa_1-2" data-name="Capa 1">
    <g>
      <path class="cls-2" d="M21.12,11.37h-6.37v8.85h6.37c1.43,0,2.51-.37,3.25-1.12.73-.75,1.1-1.84,1.1-3.29s-.37-2.56-1.1-3.31c-.74-.75-1.82-1.13-3.25-1.13Z"/>
      <path class="cls-1" d="M36.69,34.53c-1.15-2.55-2.61-4.39-4.37-5.55-.95.51-1.97.94-3.07,1.3-2.28.75-4.81,1.12-7.59,1.12h-3.17c.16.25.32.54.5.89.29.58.65,1.33,1.09,2.27l4.89,10.53h16.48l-4.75-10.56Z"/>
      <path class="cls-3" d="M29.26,30.29c1.1-.36,2.12-.8,3.07-1.3,1.01-.54,1.94-1.16,2.78-1.87,1.62-1.37,2.88-3.01,3.77-4.93.89-1.92,1.34-4.05,1.34-6.39,0-1.56-.2-3.03-.6-4.4-.4-1.37-.98-2.64-1.74-3.8-.76-1.16-1.68-2.2-2.77-3.11-1.09-.92-2.32-1.69-3.69-2.33-1.37-.64-2.88-1.12-4.52-1.46-1.64-.34-3.39-.51-5.24-.51L.03,0l-.03,45.09h14.75v-13.69h6.91c2.78,0,5.31-.37,7.59-1.12ZM24.36,19.11c-.74.75-1.82,1.12-3.25,1.12h-6.37v-8.85h6.37c1.43,0,2.51.38,3.25,1.13.73.75,1.1,1.86,1.1,3.31s-.37,2.55-1.1,3.29Z"/>
    </g>
  </g>
</svg>