<?xml version="1.0" encoding="UTF-8"?>
<svg id="Capa_2" data-name="Capa 2" xmlns="http://www.w3.org/2000/svg" viewBox="0 0 74.33 44.44">
  <defs>
    <style>
      .cls-1 {
        fill: #01003f;
        stroke-width: 0px;
      }
    </style>
  </defs>
  <g id="Capa_1-2" data-name="Capa 1">
    <path class="cls-1" d="M0,44.44V0h22.67c2.92,0,5.48.31,7.67.92,2.19.62,4.02,1.52,5.49,2.7,1.47,1.19,2.57,2.64,3.31,4.38.74,1.73,1.11,3.72,1.11,5.96,0,1.91-.29,3.65-.86,5.21-.57,1.56-1.4,2.9-2.47,4.01-1.07,1.12-2.37,2-3.88,2.63-1.52.64-3.22.99-5.12,1.05,3.84.23,6.76,2.57,8.77,7.02l4.75,10.56h-16.48s-4.89-10.53-4.89-10.53c-.43-.93-.8-1.69-1.09-2.27s-.56-1.03-.8-1.34c-.24-.32-.49-.53-.74-.64-.25-.11-.55-.16-.92-.16h-1.79v14.94s-14.75,0-14.75,0ZM21.12,18.79c1.43,0,2.51-.32,3.25-.96.73-.64,1.1-1.58,1.1-2.83s-.37-2.2-1.1-2.85c-.74-.65-1.82-.97-3.25-.97h-6.37s0,7.61,0,7.61h6.37Z"/>
    <path class="cls-1" d="M42.65,24.85l11.54,4.34,4.22,11.58,4.34-11.54,11.58-4.22-11.54-4.34-4.22-11.58-4.34,11.54-11.58,4.22Z"/>
  </g>
</svg>