<svg width="80" height="80" viewBox="0 0 80 80" fill="none" xmlns="http://www.w3.org/2000/svg">
<rect x="1" y="1" width="78" height="78" fill="white"/>
<rect x="1" y="1" width="78" height="78" stroke="#01003F" stroke-width="2"/>
<mask id="path-2-outside-1_695_743" maskUnits="userSpaceOnUse" x="15.5547" y="12.4727" width="49" height="55" fill="black">
<rect fill="white" x="15.5547" y="12.4727" width="49" height="55"/>
<path d="M59.6797 34.6108H26.6318L34.4959 31.6568L34.4992 31.6555L48.3549 26.4509L48.362 26.4482L61.1934 21.6283C61.5341 21.5004 61.8471 21.3044 62.1144 21.0517C62.3817 20.7989 62.5981 20.4943 62.7513 20.1552C62.9045 19.816 62.9915 19.4491 63.0073 19.0753C63.0231 18.7015 62.9674 18.3281 62.8433 17.9766L61.9166 15.3473C61.6654 14.6375 61.1516 14.0595 60.488 13.7401C59.8244 13.4207 59.0652 13.386 58.3768 13.6436L33.1819 23.1081L33.1807 23.1085L18.3725 28.6713C18.0317 28.7992 17.7187 28.9951 17.4513 29.2479C17.184 29.5006 16.9674 29.8053 16.8141 30.1444C16.6608 30.4835 16.5738 30.8504 16.5579 31.2243C16.542 31.5981 16.5976 31.9715 16.7216 32.3232L17.1885 33.6475C16.9104 34.0762 16.7184 34.558 16.6237 35.0645C16.5783 35.1659 16.5548 35.2763 16.5547 35.388V62.6414C16.5558 63.6717 16.9529 64.6594 17.6587 65.388C18.3646 66.1165 19.3217 66.5262 20.32 66.5274H59.6797C60.678 66.5262 61.635 66.1165 62.3409 65.388C63.0468 64.6594 63.4439 63.6717 63.445 62.6414V38.4968C63.4439 37.4665 63.0468 36.4788 62.3409 35.7502C61.635 35.0217 60.678 34.612 59.6797 34.6108ZM50.7411 36.1652H56.7234L55.5759 41.1392H49.5936L50.7411 36.1652ZM43.2106 36.1652H49.1928L48.0454 41.1392H42.063L43.2106 36.1652ZM35.68 36.1652H41.6623L40.5148 41.1392H34.5324L35.68 36.1652ZM28.1494 36.1652H34.1317L32.9843 41.1392H27.0019L28.1494 36.1652ZM58.8921 15.1041C59.2051 14.987 59.5502 15.0029 59.8519 15.1481C60.1535 15.2934 60.3871 15.5562 60.5012 15.8789L61.428 18.5081C61.4844 18.6678 61.5098 18.8376 61.5026 19.0075C61.4955 19.1774 61.456 19.3442 61.3863 19.4983C61.3167 19.6525 61.2183 19.7909 61.0968 19.9058C60.9753 20.0207 60.833 20.1097 60.6781 20.1678L55.2979 22.1888L54.6873 16.6836L58.8921 15.1041ZM53.2321 17.2304L53.8426 22.7355L48.7364 24.6536L48.0438 19.1793L53.2321 17.2304ZM46.5937 19.724L47.2863 25.1982L41.9542 27.2011L41.3618 21.6894L46.5937 19.724ZM39.9052 22.2365L40.4977 27.7482L34.8896 29.8548L34.2413 24.3642L39.9052 22.2365ZM32.7885 24.91L33.4368 30.4005L28.1941 32.3698L27.584 26.865L32.7885 24.91ZM18.1789 30.8018C18.2483 30.6473 18.3467 30.5085 18.4683 30.3936C18.59 30.2786 18.7326 30.1896 18.8878 30.1318L26.1288 27.4116L26.7389 32.9163L23.6855 34.0633C23.4535 33.584 23.1278 33.1595 22.7291 32.8165C22.3303 32.4734 21.8671 32.2193 21.3685 32.0701C20.8699 31.9209 20.3468 31.8798 19.8321 31.9494C19.3173 32.019 18.8222 32.1979 18.3777 32.4747L18.1368 31.7914C18.08 31.6318 18.0545 31.4621 18.0617 31.2922C18.069 31.1223 18.1088 30.9556 18.1789 30.8018ZM20.32 33.4709C20.8245 33.4716 21.3144 33.6463 21.7117 33.9673C22.109 34.2883 22.391 34.7371 22.5129 35.2424L22.5139 35.2476C22.6257 35.7187 22.5924 36.214 22.4186 36.6646C22.2448 37.1153 21.9391 37.4987 21.5442 37.7616C21.1493 38.0245 20.6848 38.1538 20.2153 38.1314C19.7459 38.109 19.2949 37.936 18.9251 37.6366C18.5554 37.3372 18.2854 36.9262 18.1526 36.461C18.0199 35.9957 18.031 35.4993 18.1845 35.0409C18.338 34.5825 18.6262 34.1849 19.009 33.9035C19.3917 33.6221 19.85 33.4709 20.32 33.4709ZM18.0608 38.9092C18.5959 39.3244 19.2287 39.5847 19.8939 39.6633C20.559 39.7419 21.2324 39.6359 21.8446 39.3562C22.4568 39.0766 22.9857 38.6335 23.3765 38.0725C23.7674 37.5116 24.0062 36.8532 24.0683 36.1652H26.6013L25.4536 41.1392H18.0608V38.9092ZM18.0608 48.9111H27.9509V58.2374H18.0608V48.9111ZM61.9389 62.6414C61.9382 63.2596 61.7 63.8523 61.2764 64.2894C60.8529 64.7265 60.2787 64.9723 59.6797 64.973H20.32C19.721 64.9723 19.1468 64.7265 18.7232 64.2894C18.2997 63.8523 18.0615 63.2596 18.0608 62.6414V59.7918H61.9389V62.6414ZM29.457 58.2374V48.9111H39.2468V58.2374H29.457ZM40.7529 58.2374V48.9111H50.5426V58.2374H40.7529ZM61.9389 58.2374H52.0487V48.9111H61.9389V58.2374ZM61.9389 47.3567H18.0608V42.6936H26.0458L26.0491 42.6938L26.0514 42.6936H33.5764L33.5797 42.6938L33.582 42.6936H41.1069L41.1102 42.6938L41.1125 42.6936H48.6375L48.6408 42.6938L48.6431 42.6936H56.168L56.1714 42.6938L56.1737 42.6936H61.9389V47.3567ZM61.9389 41.1392H57.1241L58.2717 36.1652H59.6797C60.2787 36.1659 60.8529 36.4117 61.2764 36.8488C61.7 37.286 61.9382 37.8786 61.9389 38.4968V41.1392Z"/>
</mask>
<path d="M59.6797 34.6108H26.6318L34.4959 31.6568L34.4992 31.6555L48.3549 26.4509L48.362 26.4482L61.1934 21.6283C61.5341 21.5004 61.8471 21.3044 62.1144 21.0517C62.3817 20.7989 62.5981 20.4943 62.7513 20.1552C62.9045 19.816 62.9915 19.4491 63.0073 19.0753C63.0231 18.7015 62.9674 18.3281 62.8433 17.9766L61.9166 15.3473C61.6654 14.6375 61.1516 14.0595 60.488 13.7401C59.8244 13.4207 59.0652 13.386 58.3768 13.6436L33.1819 23.1081L33.1807 23.1085L18.3725 28.6713C18.0317 28.7992 17.7187 28.9951 17.4513 29.2479C17.184 29.5006 16.9674 29.8053 16.8141 30.1444C16.6608 30.4835 16.5738 30.8504 16.5579 31.2243C16.542 31.5981 16.5976 31.9715 16.7216 32.3232L17.1885 33.6475C16.9104 34.0762 16.7184 34.558 16.6237 35.0645C16.5783 35.1659 16.5548 35.2763 16.5547 35.388V62.6414C16.5558 63.6717 16.9529 64.6594 17.6587 65.388C18.3646 66.1165 19.3217 66.5262 20.32 66.5274H59.6797C60.678 66.5262 61.635 66.1165 62.3409 65.388C63.0468 64.6594 63.4439 63.6717 63.445 62.6414V38.4968C63.4439 37.4665 63.0468 36.4788 62.3409 35.7502C61.635 35.0217 60.678 34.612 59.6797 34.6108ZM50.7411 36.1652H56.7234L55.5759 41.1392H49.5936L50.7411 36.1652ZM43.2106 36.1652H49.1928L48.0454 41.1392H42.063L43.2106 36.1652ZM35.68 36.1652H41.6623L40.5148 41.1392H34.5324L35.68 36.1652ZM28.1494 36.1652H34.1317L32.9843 41.1392H27.0019L28.1494 36.1652ZM58.8921 15.1041C59.2051 14.987 59.5502 15.0029 59.8519 15.1481C60.1535 15.2934 60.3871 15.5562 60.5012 15.8789L61.428 18.5081C61.4844 18.6678 61.5098 18.8376 61.5026 19.0075C61.4955 19.1774 61.456 19.3442 61.3863 19.4983C61.3167 19.6525 61.2183 19.7909 61.0968 19.9058C60.9753 20.0207 60.833 20.1097 60.6781 20.1678L55.2979 22.1888L54.6873 16.6836L58.8921 15.1041ZM53.2321 17.2304L53.8426 22.7355L48.7364 24.6536L48.0438 19.1793L53.2321 17.2304ZM46.5937 19.724L47.2863 25.1982L41.9542 27.2011L41.3618 21.6894L46.5937 19.724ZM39.9052 22.2365L40.4977 27.7482L34.8896 29.8548L34.2413 24.3642L39.9052 22.2365ZM32.7885 24.91L33.4368 30.4005L28.1941 32.3698L27.584 26.865L32.7885 24.91ZM18.1789 30.8018C18.2483 30.6473 18.3467 30.5085 18.4683 30.3936C18.59 30.2786 18.7326 30.1896 18.8878 30.1318L26.1288 27.4116L26.7389 32.9163L23.6855 34.0633C23.4535 33.584 23.1278 33.1595 22.7291 32.8165C22.3303 32.4734 21.8671 32.2193 21.3685 32.0701C20.8699 31.9209 20.3468 31.8798 19.8321 31.9494C19.3173 32.019 18.8222 32.1979 18.3777 32.4747L18.1368 31.7914C18.08 31.6318 18.0545 31.4621 18.0617 31.2922C18.069 31.1223 18.1088 30.9556 18.1789 30.8018ZM20.32 33.4709C20.8245 33.4716 21.3144 33.6463 21.7117 33.9673C22.109 34.2883 22.391 34.7371 22.5129 35.2424L22.5139 35.2476C22.6257 35.7187 22.5924 36.214 22.4186 36.6646C22.2448 37.1153 21.9391 37.4987 21.5442 37.7616C21.1493 38.0245 20.6848 38.1538 20.2153 38.1314C19.7459 38.109 19.2949 37.936 18.9251 37.6366C18.5554 37.3372 18.2854 36.9262 18.1526 36.461C18.0199 35.9957 18.031 35.4993 18.1845 35.0409C18.338 34.5825 18.6262 34.1849 19.009 33.9035C19.3917 33.6221 19.85 33.4709 20.32 33.4709ZM18.0608 38.9092C18.5959 39.3244 19.2287 39.5847 19.8939 39.6633C20.559 39.7419 21.2324 39.6359 21.8446 39.3562C22.4568 39.0766 22.9857 38.6335 23.3765 38.0725C23.7674 37.5116 24.0062 36.8532 24.0683 36.1652H26.6013L25.4536 41.1392H18.0608V38.9092ZM18.0608 48.9111H27.9509V58.2374H18.0608V48.9111ZM61.9389 62.6414C61.9382 63.2596 61.7 63.8523 61.2764 64.2894C60.8529 64.7265 60.2787 64.9723 59.6797 64.973H20.32C19.721 64.9723 19.1468 64.7265 18.7232 64.2894C18.2997 63.8523 18.0615 63.2596 18.0608 62.6414V59.7918H61.9389V62.6414ZM29.457 58.2374V48.9111H39.2468V58.2374H29.457ZM40.7529 58.2374V48.9111H50.5426V58.2374H40.7529ZM61.9389 58.2374H52.0487V48.9111H61.9389V58.2374ZM61.9389 47.3567H18.0608V42.6936H26.0458L26.0491 42.6938L26.0514 42.6936H33.5764L33.5797 42.6938L33.582 42.6936H41.1069L41.1102 42.6938L41.1125 42.6936H48.6375L48.6408 42.6938L48.6431 42.6936H56.168L56.1714 42.6938L56.1737 42.6936H61.9389V47.3567ZM61.9389 41.1392H57.1241L58.2717 36.1652H59.6797C60.2787 36.1659 60.8529 36.4117 61.2764 36.8488C61.7 37.286 61.9382 37.8786 61.9389 38.4968V41.1392Z" fill="#01003F"/>
<path d="M59.6797 34.6108H26.6318L34.4959 31.6568L34.4992 31.6555L48.3549 26.4509L48.362 26.4482L61.1934 21.6283C61.5341 21.5004 61.8471 21.3044 62.1144 21.0517C62.3817 20.7989 62.5981 20.4943 62.7513 20.1552C62.9045 19.816 62.9915 19.4491 63.0073 19.0753C63.0231 18.7015 62.9674 18.3281 62.8433 17.9766L61.9166 15.3473C61.6654 14.6375 61.1516 14.0595 60.488 13.7401C59.8244 13.4207 59.0652 13.386 58.3768 13.6436L33.1819 23.1081L33.1807 23.1085L18.3725 28.6713C18.0317 28.7992 17.7187 28.9951 17.4513 29.2479C17.184 29.5006 16.9674 29.8053 16.8141 30.1444C16.6608 30.4835 16.5738 30.8504 16.5579 31.2243C16.542 31.5981 16.5976 31.9715 16.7216 32.3232L17.1885 33.6475C16.9104 34.0762 16.7184 34.558 16.6237 35.0645C16.5783 35.1659 16.5548 35.2763 16.5547 35.388V62.6414C16.5558 63.6717 16.9529 64.6594 17.6587 65.388C18.3646 66.1165 19.3217 66.5262 20.32 66.5274H59.6797C60.678 66.5262 61.635 66.1165 62.3409 65.388C63.0468 64.6594 63.4439 63.6717 63.445 62.6414V38.4968C63.4439 37.4665 63.0468 36.4788 62.3409 35.7502C61.635 35.0217 60.678 34.612 59.6797 34.6108ZM50.7411 36.1652H56.7234L55.5759 41.1392H49.5936L50.7411 36.1652ZM43.2106 36.1652H49.1928L48.0454 41.1392H42.063L43.2106 36.1652ZM35.68 36.1652H41.6623L40.5148 41.1392H34.5324L35.68 36.1652ZM28.1494 36.1652H34.1317L32.9843 41.1392H27.0019L28.1494 36.1652ZM58.8921 15.1041C59.2051 14.987 59.5502 15.0029 59.8519 15.1481C60.1535 15.2934 60.3871 15.5562 60.5012 15.8789L61.428 18.5081C61.4844 18.6678 61.5098 18.8376 61.5026 19.0075C61.4955 19.1774 61.456 19.3442 61.3863 19.4983C61.3167 19.6525 61.2183 19.7909 61.0968 19.9058C60.9753 20.0207 60.833 20.1097 60.6781 20.1678L55.2979 22.1888L54.6873 16.6836L58.8921 15.1041ZM53.2321 17.2304L53.8426 22.7355L48.7364 24.6536L48.0438 19.1793L53.2321 17.2304ZM46.5937 19.724L47.2863 25.1982L41.9542 27.2011L41.3618 21.6894L46.5937 19.724ZM39.9052 22.2365L40.4977 27.7482L34.8896 29.8548L34.2413 24.3642L39.9052 22.2365ZM32.7885 24.91L33.4368 30.4005L28.1941 32.3698L27.584 26.865L32.7885 24.91ZM18.1789 30.8018C18.2483 30.6473 18.3467 30.5085 18.4683 30.3936C18.59 30.2786 18.7326 30.1896 18.8878 30.1318L26.1288 27.4116L26.7389 32.9163L23.6855 34.0633C23.4535 33.584 23.1278 33.1595 22.7291 32.8165C22.3303 32.4734 21.8671 32.2193 21.3685 32.0701C20.8699 31.9209 20.3468 31.8798 19.8321 31.9494C19.3173 32.019 18.8222 32.1979 18.3777 32.4747L18.1368 31.7914C18.08 31.6318 18.0545 31.4621 18.0617 31.2922C18.069 31.1223 18.1088 30.9556 18.1789 30.8018ZM20.32 33.4709C20.8245 33.4716 21.3144 33.6463 21.7117 33.9673C22.109 34.2883 22.391 34.7371 22.5129 35.2424L22.5139 35.2476C22.6257 35.7187 22.5924 36.214 22.4186 36.6646C22.2448 37.1153 21.9391 37.4987 21.5442 37.7616C21.1493 38.0245 20.6848 38.1538 20.2153 38.1314C19.7459 38.109 19.2949 37.936 18.9251 37.6366C18.5554 37.3372 18.2854 36.9262 18.1526 36.461C18.0199 35.9957 18.031 35.4993 18.1845 35.0409C18.338 34.5825 18.6262 34.1849 19.009 33.9035C19.3917 33.6221 19.85 33.4709 20.32 33.4709ZM18.0608 38.9092C18.5959 39.3244 19.2287 39.5847 19.8939 39.6633C20.559 39.7419 21.2324 39.6359 21.8446 39.3562C22.4568 39.0766 22.9857 38.6335 23.3765 38.0725C23.7674 37.5116 24.0062 36.8532 24.0683 36.1652H26.6013L25.4536 41.1392H18.0608V38.9092ZM18.0608 48.9111H27.9509V58.2374H18.0608V48.9111ZM61.9389 62.6414C61.9382 63.2596 61.7 63.8523 61.2764 64.2894C60.8529 64.7265 60.2787 64.9723 59.6797 64.973H20.32C19.721 64.9723 19.1468 64.7265 18.7232 64.2894C18.2997 63.8523 18.0615 63.2596 18.0608 62.6414V59.7918H61.9389V62.6414ZM29.457 58.2374V48.9111H39.2468V58.2374H29.457ZM40.7529 58.2374V48.9111H50.5426V58.2374H40.7529ZM61.9389 58.2374H52.0487V48.9111H61.9389V58.2374ZM61.9389 47.3567H18.0608V42.6936H26.0458L26.0491 42.6938L26.0514 42.6936H33.5764L33.5797 42.6938L33.582 42.6936H41.1069L41.1102 42.6938L41.1125 42.6936H48.6375L48.6408 42.6938L48.6431 42.6936H56.168L56.1714 42.6938L56.1737 42.6936H61.9389V47.3567ZM61.9389 41.1392H57.1241L58.2717 36.1652H59.6797C60.2787 36.1659 60.8529 36.4117 61.2764 36.8488C61.7 37.286 61.9382 37.8786 61.9389 38.4968V41.1392Z" stroke="#78B9F4" stroke-width="1.46991" mask="url(#path-2-outside-1_695_743)"/>
</svg>
