<svg width="80" height="80" viewBox="0 0 80 80" fill="none" xmlns="http://www.w3.org/2000/svg">
<rect x="1" y="1" width="78" height="78" fill="white"/>
<rect x="1" y="1" width="78" height="78" stroke="#01003F" stroke-width="2"/>
<path d="M29.2354 24.1362L29.2354 24.1362L29.2374 24.132L30.8416 20.7022C31.4304 19.5932 32.81 18.6878 34.0503 18.6878H45.9501C47.1904 18.6878 48.57 19.5932 49.1588 20.7022L50.763 24.132L50.763 24.132L50.765 24.1362C50.858 24.3286 51.0502 24.5113 51.2357 24.6392C51.4214 24.7673 51.6837 24.8983 51.9535 24.8983H60.9587C63.2099 24.8983 65.0939 26.829 65.0939 29.1887V57.0171C64.9904 59.3881 63.098 61.3153 60.8515 61.3153H19.0417C16.7905 61.3153 14.9065 59.3846 14.9065 57.0249V29.1887C14.9065 26.829 16.7905 24.8983 19.0417 24.8983H28.0469C28.1763 24.8983 28.3056 24.8534 28.3992 24.8139C28.5035 24.7698 28.6122 24.7111 28.7132 24.6467C28.8143 24.5824 28.9155 24.5076 29.0025 24.4285C29.0832 24.3552 29.178 24.255 29.2354 24.1362ZM47.0334 21.9353L47.0334 21.9353L47.0314 21.9311C46.9384 21.7386 46.7462 21.5559 46.5607 21.428C46.375 21.2999 46.1127 21.169 45.8429 21.169H33.9431C33.8137 21.169 33.6844 21.2138 33.5908 21.2534C33.4865 21.2974 33.3778 21.3562 33.2768 21.4205C33.1757 21.4849 33.0745 21.5597 32.9875 21.6387C32.9068 21.7121 32.812 21.8123 32.7546 21.9311L32.7546 21.931L32.7526 21.9353L31.1484 25.3651C30.5596 26.474 29.18 27.3795 27.9397 27.3795H19.0417C17.9694 27.3795 17.1733 28.2212 17.1733 29.2996V57.1358C17.1733 58.2142 17.9694 59.0559 19.0417 59.0559H60.8515C61.9238 59.0559 62.7199 58.2142 62.7199 57.1358V29.2996C62.7199 28.2212 61.9238 27.3795 60.8515 27.3795H51.8463C50.606 27.3795 49.2264 26.474 48.6376 25.365L47.0334 21.9353Z" fill="#01003F" stroke="#78B9F4" stroke-width="0.734957"/>
<path d="M39.947 55.1035C32.7645 55.1035 26.9139 49.0694 26.9139 41.6083C26.9139 34.1472 32.7645 28.1131 39.947 28.1131C47.1296 28.1131 52.9802 34.1472 52.9802 41.6083C52.9802 49.0694 47.1296 55.1035 39.947 55.1035ZM39.947 30.3725C33.9434 30.3725 29.0735 35.4285 29.0735 41.6083C29.0735 47.7881 33.9434 52.8442 39.947 52.8442C45.9507 52.8442 50.8206 47.7881 50.8206 41.6083C50.8206 35.4285 45.9507 30.3725 39.947 30.3725ZM55.9819 30.74C55.9819 31.4361 55.4915 31.9251 54.8485 31.9251C54.2055 31.9251 53.7151 31.4361 53.7151 30.74C53.7151 30.0439 54.2055 29.5548 54.8485 29.5548C55.4752 29.5548 55.9819 30.1374 55.9819 30.74ZM20.9104 21.9026H26.179V23.4637H20.9104V21.9026Z" fill="#01003F" stroke="#78B9F4" stroke-width="0.734957"/>
</svg>
