<svg width="80" height="80" viewBox="0 0 80 80" fill="none" xmlns="http://www.w3.org/2000/svg">
<rect x="1" y="1" width="78" height="78" fill="white"/>
<rect x="1" y="1" width="78" height="78" stroke="#01003F" stroke-width="2"/>
<mask id="path-2-outside-1_695_762" maskUnits="userSpaceOnUse" x="10.0244" y="10.0234" width="57" height="54" fill="black">
<rect fill="white" x="10.0244" y="10.0234" width="57" height="54"/>
<path d="M61.723 11.0234H15.0312C13.9689 11.0248 12.9504 11.5012 12.1993 12.3483C11.4481 13.1953 11.0256 14.3437 11.0244 15.5416V47.2291C11.0256 48.427 11.4481 49.5754 12.1993 50.4225C12.9504 51.2695 13.9689 51.746 15.0312 51.7473H34.1032V55.2414H28.3557C27.9632 55.241 27.5806 55.38 27.2621 55.6389C26.9437 55.8977 26.7057 56.263 26.5819 56.6831L25.6914 59.6952C25.5977 60.0122 25.5722 60.3497 25.6169 60.68C25.6615 61.0102 25.7752 61.3238 25.9484 61.5948C26.1217 61.8659 26.3495 62.0866 26.6133 62.2388C26.877 62.3911 27.169 62.4705 27.4653 62.4705H49.2889C49.5851 62.4705 49.8772 62.3911 50.1409 62.2388C50.4046 62.0866 50.6325 61.8659 50.8057 61.5948C50.979 61.3238 51.0926 61.0102 51.1373 60.68C51.182 60.3497 51.1564 60.0122 51.0627 59.6952L50.1723 56.6831C50.0485 56.2631 49.8105 55.8977 49.492 55.6389C49.1736 55.3801 48.7909 55.241 48.3984 55.2414H42.6509V51.7473H56.1136V59.7596C56.1143 60.4783 56.3678 61.1674 56.8185 61.6756C57.2692 62.1838 57.8802 62.4697 58.5176 62.4705H63.3257C63.9631 62.4697 64.5741 62.1838 65.0248 61.6756C65.4755 61.1674 65.729 60.4783 65.7297 59.7596V15.5416C65.7286 14.3437 65.306 13.1953 64.5549 12.3483C63.8037 11.5012 62.7853 11.0248 61.723 11.0234ZM48.3984 57.0486C48.4545 57.0486 48.5092 57.0685 48.5547 57.1054C48.6002 57.1424 48.6342 57.1946 48.6519 57.2547L49.5423 60.2668C49.5557 60.3121 49.5593 60.3603 49.5529 60.4075C49.5465 60.4546 49.5303 60.4994 49.5056 60.5381C49.4808 60.5768 49.4483 60.6084 49.4106 60.6301C49.3729 60.6519 49.3312 60.6632 49.2889 60.6632H27.4653C27.423 60.6632 27.3813 60.6519 27.3436 60.6301C27.3059 60.6084 27.2734 60.5768 27.2486 60.5381C27.2239 60.4994 27.2076 60.4546 27.2012 60.4075C27.1948 60.3603 27.1985 60.3121 27.2119 60.2668L28.1023 57.2547C28.12 57.1947 28.154 57.1425 28.1994 57.1055C28.2449 57.0685 28.2996 57.0486 28.3556 57.0486H48.3984ZM35.7059 55.2414V51.7473H41.0482V55.2414H35.7059ZM56.1136 38.1928V46.3255H15.8325V16.4453H60.9217V35.4819H58.5176C57.8802 35.4827 57.2692 35.7685 56.8185 36.2767C56.3678 36.785 56.1143 37.474 56.1136 38.1928ZM64.1271 59.7596C64.1268 59.9991 64.0423 60.2288 63.8921 60.3982C63.7419 60.5676 63.5382 60.6629 63.3257 60.6632H58.5176C58.3052 60.6629 58.1015 60.5676 57.9512 60.3982C57.801 60.2288 57.7165 59.9991 57.7163 59.7596V38.1928C57.7165 37.9532 57.801 37.7235 57.9512 37.5541C58.1015 37.3847 58.3052 37.2894 58.5176 37.2891H63.3257C63.5382 37.2894 63.7419 37.3847 63.8921 37.5541C64.0423 37.7235 64.1268 37.9532 64.1271 38.1928V59.7596ZM64.1271 35.6373C63.8698 35.5343 63.5987 35.4817 63.3257 35.4819H62.5244V15.5416C62.5244 15.302 62.4399 15.0721 62.2896 14.9027C62.1394 14.7332 61.9355 14.638 61.723 14.638H15.0312C14.8186 14.638 14.6148 14.7332 14.4645 14.9027C14.3142 15.0721 14.2298 15.302 14.2298 15.5416V47.2291C14.2298 47.4688 14.3142 47.6986 14.4645 47.8681C14.6148 48.0376 14.8186 48.1328 15.0312 48.1328H56.1136V49.94H15.0312C14.3938 49.9392 13.7827 49.6534 13.332 49.1452C12.8813 48.6369 12.6278 47.9479 12.6271 47.2291V15.5416C12.6278 14.8229 12.8813 14.1338 13.332 13.6256C13.7827 13.1174 14.3938 12.8315 15.0312 12.8307H61.723C62.3604 12.8315 62.9715 13.1174 63.4221 13.6256C63.8728 14.1338 64.1263 14.8229 64.1271 15.5416V35.6373ZM60.1812 40.2253C60.2013 40.2797 60.226 40.3318 60.2549 40.3808C60.3141 40.4796 60.3895 40.5647 60.4772 40.6314C60.5206 40.664 60.5668 40.6919 60.615 40.7145C60.6633 40.7367 60.7134 40.7536 60.7646 40.7651C60.8682 40.7893 60.9751 40.7893 61.0787 40.7651C61.1299 40.7536 61.18 40.7367 61.2283 40.7145C61.2765 40.6919 61.3227 40.664 61.3661 40.6314C61.4538 40.5647 61.5292 40.4796 61.5884 40.3808C61.6173 40.3318 61.642 40.2797 61.6621 40.2253C61.6818 40.1708 61.6968 40.1144 61.707 40.0567C61.7284 39.9398 61.7284 39.8193 61.707 39.7024C61.6968 39.6447 61.6817 39.5883 61.6621 39.5338C61.642 39.4794 61.6173 39.4273 61.5884 39.3783C61.5292 39.2795 61.4538 39.1944 61.3661 39.1277C61.3227 39.0951 61.2765 39.0672 61.2283 39.0446C61.18 39.0224 61.1299 39.0055 61.0787 38.994C60.9751 38.9699 60.8682 38.9699 60.7646 38.994C60.7134 39.0055 60.6633 39.0224 60.615 39.0446C60.5668 39.0672 60.5206 39.0951 60.4772 39.1277C60.3895 39.1944 60.3141 39.2795 60.2549 39.3783C60.226 39.4273 60.2013 39.4794 60.1812 39.5338C60.1616 39.5883 60.1466 39.6447 60.1363 39.7024C60.115 39.8193 60.115 39.9398 60.1363 40.0567C60.1465 40.1144 60.1616 40.1708 60.1812 40.2253ZM61.723 53.4341H60.1203C59.9078 53.4341 59.704 53.5293 59.5537 53.6988C59.4034 53.8682 59.319 54.0981 59.319 54.3377C59.319 54.5774 59.4034 54.8072 59.5537 54.9767C59.704 55.1462 59.9078 55.2414 60.1203 55.2414H61.723C61.9355 55.2414 62.1394 55.1462 62.2896 54.9767C62.4399 54.8072 62.5244 54.5774 62.5244 54.3377C62.5244 54.0981 62.4399 53.8682 62.2896 53.6988C62.1394 53.5293 61.9355 53.4341 61.723 53.4341ZM61.723 57.0486H60.1203C59.9078 57.0486 59.704 57.1438 59.5537 57.3133C59.4034 57.4828 59.319 57.7126 59.319 57.9523C59.319 58.1919 59.4034 58.4218 59.5537 58.5912C59.704 58.7607 59.9078 58.8559 60.1203 58.8559H61.723C61.9355 58.8559 62.1394 58.7607 62.2896 58.5912C62.4399 58.4218 62.5244 58.1919 62.5244 57.9523C62.5244 57.7126 62.4399 57.4828 62.2896 57.3133C62.1394 57.1438 61.9355 57.0486 61.723 57.0486Z"/>
</mask>
<path d="M61.723 11.0234H15.0312C13.9689 11.0248 12.9504 11.5012 12.1993 12.3483C11.4481 13.1953 11.0256 14.3437 11.0244 15.5416V47.2291C11.0256 48.427 11.4481 49.5754 12.1993 50.4225C12.9504 51.2695 13.9689 51.746 15.0312 51.7473H34.1032V55.2414H28.3557C27.9632 55.241 27.5806 55.38 27.2621 55.6389C26.9437 55.8977 26.7057 56.263 26.5819 56.6831L25.6914 59.6952C25.5977 60.0122 25.5722 60.3497 25.6169 60.68C25.6615 61.0102 25.7752 61.3238 25.9484 61.5948C26.1217 61.8659 26.3495 62.0866 26.6133 62.2388C26.877 62.3911 27.169 62.4705 27.4653 62.4705H49.2889C49.5851 62.4705 49.8772 62.3911 50.1409 62.2388C50.4046 62.0866 50.6325 61.8659 50.8057 61.5948C50.979 61.3238 51.0926 61.0102 51.1373 60.68C51.182 60.3497 51.1564 60.0122 51.0627 59.6952L50.1723 56.6831C50.0485 56.2631 49.8105 55.8977 49.492 55.6389C49.1736 55.3801 48.7909 55.241 48.3984 55.2414H42.6509V51.7473H56.1136V59.7596C56.1143 60.4783 56.3678 61.1674 56.8185 61.6756C57.2692 62.1838 57.8802 62.4697 58.5176 62.4705H63.3257C63.9631 62.4697 64.5741 62.1838 65.0248 61.6756C65.4755 61.1674 65.729 60.4783 65.7297 59.7596V15.5416C65.7286 14.3437 65.306 13.1953 64.5549 12.3483C63.8037 11.5012 62.7853 11.0248 61.723 11.0234ZM48.3984 57.0486C48.4545 57.0486 48.5092 57.0685 48.5547 57.1054C48.6002 57.1424 48.6342 57.1946 48.6519 57.2547L49.5423 60.2668C49.5557 60.3121 49.5593 60.3603 49.5529 60.4075C49.5465 60.4546 49.5303 60.4994 49.5056 60.5381C49.4808 60.5768 49.4483 60.6084 49.4106 60.6301C49.3729 60.6519 49.3312 60.6632 49.2889 60.6632H27.4653C27.423 60.6632 27.3813 60.6519 27.3436 60.6301C27.3059 60.6084 27.2734 60.5768 27.2486 60.5381C27.2239 60.4994 27.2076 60.4546 27.2012 60.4075C27.1948 60.3603 27.1985 60.3121 27.2119 60.2668L28.1023 57.2547C28.12 57.1947 28.154 57.1425 28.1994 57.1055C28.2449 57.0685 28.2996 57.0486 28.3556 57.0486H48.3984ZM35.7059 55.2414V51.7473H41.0482V55.2414H35.7059ZM56.1136 38.1928V46.3255H15.8325V16.4453H60.9217V35.4819H58.5176C57.8802 35.4827 57.2692 35.7685 56.8185 36.2767C56.3678 36.785 56.1143 37.474 56.1136 38.1928ZM64.1271 59.7596C64.1268 59.9991 64.0423 60.2288 63.8921 60.3982C63.7419 60.5676 63.5382 60.6629 63.3257 60.6632H58.5176C58.3052 60.6629 58.1015 60.5676 57.9512 60.3982C57.801 60.2288 57.7165 59.9991 57.7163 59.7596V38.1928C57.7165 37.9532 57.801 37.7235 57.9512 37.5541C58.1015 37.3847 58.3052 37.2894 58.5176 37.2891H63.3257C63.5382 37.2894 63.7419 37.3847 63.8921 37.5541C64.0423 37.7235 64.1268 37.9532 64.1271 38.1928V59.7596ZM64.1271 35.6373C63.8698 35.5343 63.5987 35.4817 63.3257 35.4819H62.5244V15.5416C62.5244 15.302 62.4399 15.0721 62.2896 14.9027C62.1394 14.7332 61.9355 14.638 61.723 14.638H15.0312C14.8186 14.638 14.6148 14.7332 14.4645 14.9027C14.3142 15.0721 14.2298 15.302 14.2298 15.5416V47.2291C14.2298 47.4688 14.3142 47.6986 14.4645 47.8681C14.6148 48.0376 14.8186 48.1328 15.0312 48.1328H56.1136V49.94H15.0312C14.3938 49.9392 13.7827 49.6534 13.332 49.1452C12.8813 48.6369 12.6278 47.9479 12.6271 47.2291V15.5416C12.6278 14.8229 12.8813 14.1338 13.332 13.6256C13.7827 13.1174 14.3938 12.8315 15.0312 12.8307H61.723C62.3604 12.8315 62.9715 13.1174 63.4221 13.6256C63.8728 14.1338 64.1263 14.8229 64.1271 15.5416V35.6373ZM60.1812 40.2253C60.2013 40.2797 60.226 40.3318 60.2549 40.3808C60.3141 40.4796 60.3895 40.5647 60.4772 40.6314C60.5206 40.664 60.5668 40.6919 60.615 40.7145C60.6633 40.7367 60.7134 40.7536 60.7646 40.7651C60.8682 40.7893 60.9751 40.7893 61.0787 40.7651C61.1299 40.7536 61.18 40.7367 61.2283 40.7145C61.2765 40.6919 61.3227 40.664 61.3661 40.6314C61.4538 40.5647 61.5292 40.4796 61.5884 40.3808C61.6173 40.3318 61.642 40.2797 61.6621 40.2253C61.6818 40.1708 61.6968 40.1144 61.707 40.0567C61.7284 39.9398 61.7284 39.8193 61.707 39.7024C61.6968 39.6447 61.6817 39.5883 61.6621 39.5338C61.642 39.4794 61.6173 39.4273 61.5884 39.3783C61.5292 39.2795 61.4538 39.1944 61.3661 39.1277C61.3227 39.0951 61.2765 39.0672 61.2283 39.0446C61.18 39.0224 61.1299 39.0055 61.0787 38.994C60.9751 38.9699 60.8682 38.9699 60.7646 38.994C60.7134 39.0055 60.6633 39.0224 60.615 39.0446C60.5668 39.0672 60.5206 39.0951 60.4772 39.1277C60.3895 39.1944 60.3141 39.2795 60.2549 39.3783C60.226 39.4273 60.2013 39.4794 60.1812 39.5338C60.1616 39.5883 60.1466 39.6447 60.1363 39.7024C60.115 39.8193 60.115 39.9398 60.1363 40.0567C60.1465 40.1144 60.1616 40.1708 60.1812 40.2253ZM61.723 53.4341H60.1203C59.9078 53.4341 59.704 53.5293 59.5537 53.6988C59.4034 53.8682 59.319 54.0981 59.319 54.3377C59.319 54.5774 59.4034 54.8072 59.5537 54.9767C59.704 55.1462 59.9078 55.2414 60.1203 55.2414H61.723C61.9355 55.2414 62.1394 55.1462 62.2896 54.9767C62.4399 54.8072 62.5244 54.5774 62.5244 54.3377C62.5244 54.0981 62.4399 53.8682 62.2896 53.6988C62.1394 53.5293 61.9355 53.4341 61.723 53.4341ZM61.723 57.0486H60.1203C59.9078 57.0486 59.704 57.1438 59.5537 57.3133C59.4034 57.4828 59.319 57.7126 59.319 57.9523C59.319 58.1919 59.4034 58.4218 59.5537 58.5912C59.704 58.7607 59.9078 58.8559 60.1203 58.8559H61.723C61.9355 58.8559 62.1394 58.7607 62.2896 58.5912C62.4399 58.4218 62.5244 58.1919 62.5244 57.9523C62.5244 57.7126 62.4399 57.4828 62.2896 57.3133C62.1394 57.1438 61.9355 57.0486 61.723 57.0486Z" fill="#01003F"/>
<path d="M61.723 11.0234H15.0312C13.9689 11.0248 12.9504 11.5012 12.1993 12.3483C11.4481 13.1953 11.0256 14.3437 11.0244 15.5416V47.2291C11.0256 48.427 11.4481 49.5754 12.1993 50.4225C12.9504 51.2695 13.9689 51.746 15.0312 51.7473H34.1032V55.2414H28.3557C27.9632 55.241 27.5806 55.38 27.2621 55.6389C26.9437 55.8977 26.7057 56.263 26.5819 56.6831L25.6914 59.6952C25.5977 60.0122 25.5722 60.3497 25.6169 60.68C25.6615 61.0102 25.7752 61.3238 25.9484 61.5948C26.1217 61.8659 26.3495 62.0866 26.6133 62.2388C26.877 62.3911 27.169 62.4705 27.4653 62.4705H49.2889C49.5851 62.4705 49.8772 62.3911 50.1409 62.2388C50.4046 62.0866 50.6325 61.8659 50.8057 61.5948C50.979 61.3238 51.0926 61.0102 51.1373 60.68C51.182 60.3497 51.1564 60.0122 51.0627 59.6952L50.1723 56.6831C50.0485 56.2631 49.8105 55.8977 49.492 55.6389C49.1736 55.3801 48.7909 55.241 48.3984 55.2414H42.6509V51.7473H56.1136V59.7596C56.1143 60.4783 56.3678 61.1674 56.8185 61.6756C57.2692 62.1838 57.8802 62.4697 58.5176 62.4705H63.3257C63.9631 62.4697 64.5741 62.1838 65.0248 61.6756C65.4755 61.1674 65.729 60.4783 65.7297 59.7596V15.5416C65.7286 14.3437 65.306 13.1953 64.5549 12.3483C63.8037 11.5012 62.7853 11.0248 61.723 11.0234ZM48.3984 57.0486C48.4545 57.0486 48.5092 57.0685 48.5547 57.1054C48.6002 57.1424 48.6342 57.1946 48.6519 57.2547L49.5423 60.2668C49.5557 60.3121 49.5593 60.3603 49.5529 60.4075C49.5465 60.4546 49.5303 60.4994 49.5056 60.5381C49.4808 60.5768 49.4483 60.6084 49.4106 60.6301C49.3729 60.6519 49.3312 60.6632 49.2889 60.6632H27.4653C27.423 60.6632 27.3813 60.6519 27.3436 60.6301C27.3059 60.6084 27.2734 60.5768 27.2486 60.5381C27.2239 60.4994 27.2076 60.4546 27.2012 60.4075C27.1948 60.3603 27.1985 60.3121 27.2119 60.2668L28.1023 57.2547C28.12 57.1947 28.154 57.1425 28.1994 57.1055C28.2449 57.0685 28.2996 57.0486 28.3556 57.0486H48.3984ZM35.7059 55.2414V51.7473H41.0482V55.2414H35.7059ZM56.1136 38.1928V46.3255H15.8325V16.4453H60.9217V35.4819H58.5176C57.8802 35.4827 57.2692 35.7685 56.8185 36.2767C56.3678 36.785 56.1143 37.474 56.1136 38.1928ZM64.1271 59.7596C64.1268 59.9991 64.0423 60.2288 63.8921 60.3982C63.7419 60.5676 63.5382 60.6629 63.3257 60.6632H58.5176C58.3052 60.6629 58.1015 60.5676 57.9512 60.3982C57.801 60.2288 57.7165 59.9991 57.7163 59.7596V38.1928C57.7165 37.9532 57.801 37.7235 57.9512 37.5541C58.1015 37.3847 58.3052 37.2894 58.5176 37.2891H63.3257C63.5382 37.2894 63.7419 37.3847 63.8921 37.5541C64.0423 37.7235 64.1268 37.9532 64.1271 38.1928V59.7596ZM64.1271 35.6373C63.8698 35.5343 63.5987 35.4817 63.3257 35.4819H62.5244V15.5416C62.5244 15.302 62.4399 15.0721 62.2896 14.9027C62.1394 14.7332 61.9355 14.638 61.723 14.638H15.0312C14.8186 14.638 14.6148 14.7332 14.4645 14.9027C14.3142 15.0721 14.2298 15.302 14.2298 15.5416V47.2291C14.2298 47.4688 14.3142 47.6986 14.4645 47.8681C14.6148 48.0376 14.8186 48.1328 15.0312 48.1328H56.1136V49.94H15.0312C14.3938 49.9392 13.7827 49.6534 13.332 49.1452C12.8813 48.6369 12.6278 47.9479 12.6271 47.2291V15.5416C12.6278 14.8229 12.8813 14.1338 13.332 13.6256C13.7827 13.1174 14.3938 12.8315 15.0312 12.8307H61.723C62.3604 12.8315 62.9715 13.1174 63.4221 13.6256C63.8728 14.1338 64.1263 14.8229 64.1271 15.5416V35.6373ZM60.1812 40.2253C60.2013 40.2797 60.226 40.3318 60.2549 40.3808C60.3141 40.4796 60.3895 40.5647 60.4772 40.6314C60.5206 40.664 60.5668 40.6919 60.615 40.7145C60.6633 40.7367 60.7134 40.7536 60.7646 40.7651C60.8682 40.7893 60.9751 40.7893 61.0787 40.7651C61.1299 40.7536 61.18 40.7367 61.2283 40.7145C61.2765 40.6919 61.3227 40.664 61.3661 40.6314C61.4538 40.5647 61.5292 40.4796 61.5884 40.3808C61.6173 40.3318 61.642 40.2797 61.6621 40.2253C61.6818 40.1708 61.6968 40.1144 61.707 40.0567C61.7284 39.9398 61.7284 39.8193 61.707 39.7024C61.6968 39.6447 61.6817 39.5883 61.6621 39.5338C61.642 39.4794 61.6173 39.4273 61.5884 39.3783C61.5292 39.2795 61.4538 39.1944 61.3661 39.1277C61.3227 39.0951 61.2765 39.0672 61.2283 39.0446C61.18 39.0224 61.1299 39.0055 61.0787 38.994C60.9751 38.9699 60.8682 38.9699 60.7646 38.994C60.7134 39.0055 60.6633 39.0224 60.615 39.0446C60.5668 39.0672 60.5206 39.0951 60.4772 39.1277C60.3895 39.1944 60.3141 39.2795 60.2549 39.3783C60.226 39.4273 60.2013 39.4794 60.1812 39.5338C60.1616 39.5883 60.1466 39.6447 60.1363 39.7024C60.115 39.8193 60.115 39.9398 60.1363 40.0567C60.1465 40.1144 60.1616 40.1708 60.1812 40.2253ZM61.723 53.4341H60.1203C59.9078 53.4341 59.704 53.5293 59.5537 53.6988C59.4034 53.8682 59.319 54.0981 59.319 54.3377C59.319 54.5774 59.4034 54.8072 59.5537 54.9767C59.704 55.1462 59.9078 55.2414 60.1203 55.2414H61.723C61.9355 55.2414 62.1394 55.1462 62.2896 54.9767C62.4399 54.8072 62.5244 54.5774 62.5244 54.3377C62.5244 54.0981 62.4399 53.8682 62.2896 53.6988C62.1394 53.5293 61.9355 53.4341 61.723 53.4341ZM61.723 57.0486H60.1203C59.9078 57.0486 59.704 57.1438 59.5537 57.3133C59.4034 57.4828 59.319 57.7126 59.319 57.9523C59.319 58.1919 59.4034 58.4218 59.5537 58.5912C59.704 58.7607 59.9078 58.8559 60.1203 58.8559H61.723C61.9355 58.8559 62.1394 58.7607 62.2896 58.5912C62.4399 58.4218 62.5244 58.1919 62.5244 57.9523C62.5244 57.7126 62.4399 57.4828 62.2896 57.3133C62.1394 57.1438 61.9355 57.0486 61.723 57.0486Z" stroke="#78B9F4" stroke-width="1.46991" mask="url(#path-2-outside-1_695_762)"/>
</svg>
