<svg width="80" height="80" viewBox="0 0 80 80" fill="none" xmlns="http://www.w3.org/2000/svg">
<rect x="1" y="1" width="78" height="78" fill="white"/>
<rect x="1" y="1" width="78" height="78" stroke="#01003F" stroke-width="2"/>
<mask id="path-2-inside-1_474_527" fill="white">
<path fill-rule="evenodd" clip-rule="evenodd" d="M50.4294 32.6433H20.107C18.9703 32.6433 17.8904 33.1138 17.0947 33.9371C16.299 34.7604 15.8443 35.8924 15.8443 37.0539C15.8469 37.9656 16.1212 38.8543 16.6298 39.5989C17.1383 40.3434 17.8564 40.9076 18.6861 41.2145V43.0229H16.0006C13.5992 43.0229 11.5815 45.14 11.5815 47.7716C11.6242 50.3886 13.6419 52.4762 16.029 52.4615H18.6861V59.7831C18.6861 65.0758 22.8068 69.3982 27.78 69.3982H52.2198C57.193 69.3982 61.3137 65.0611 61.3137 59.7831V52.4615H64.0276C66.4148 52.4468 68.4183 50.3297 68.4183 47.7128C68.4183 47.6687 68.4183 47.7569 68.4183 47.7128C68.3756 45.14 66.3863 42.9494 64.0276 42.9347H61.3137V41.2145C62.144 40.9085 62.8626 40.3446 63.3713 39.5998C63.88 38.8551 64.1539 37.9659 64.1555 37.0539C64.1555 35.8924 63.7008 34.7604 62.9051 33.9371C62.1094 33.1138 61.0153 32.6433 59.8927 32.6433H58.0456L62.3651 22.5725C63.2603 20.5142 62.4504 18.0149 60.589 16.9563H60.5748C60.0064 16.6329 59.367 16.4712 58.7134 16.4712C57.0225 16.4712 55.4879 17.6032 54.9053 19.3234L50.4294 32.6433ZM21.528 41.4645V59.7831C21.528 63.4439 24.3414 66.4578 27.78 66.4578H52.2198C55.6584 66.4578 58.4718 63.4292 58.4718 59.7831V41.4645H21.528ZM22.9489 53.226V59.0921C22.9489 60.6505 23.5457 62.1648 24.6256 63.2675C25.6953 64.3763 27.1468 65.0003 28.661 65.0023H31.4886C32.2701 65.0023 32.9095 64.3407 32.9095 63.5321C32.9095 62.7235 32.2701 62.0619 31.4886 62.0619H28.661C27.9079 62.0619 27.169 61.7532 26.6433 61.1945C26.1033 60.6358 25.8049 59.886 25.8049 59.1068V53.2407C25.8049 52.4321 25.1655 51.7705 24.384 51.7705C23.6025 51.7705 22.9631 52.4321 22.9631 53.2407L22.9489 53.226ZM45.6836 44.4049C45.6836 43.5963 45.0442 42.9347 44.2626 42.9347H35.7371C34.9556 42.9347 34.3162 43.5963 34.3162 44.4049V48.8154C34.3162 49.6241 34.9556 50.2856 35.7371 50.2856H44.2626C45.0442 50.2856 45.6836 49.6241 45.6836 48.8154V44.4049ZM61.3137 45.8751H64.0134C64.8802 45.8751 65.5622 46.7719 65.5764 47.7128C65.5764 48.6684 64.8944 49.5064 64.0134 49.5211H61.3137V45.8751ZM18.6861 49.5064H16.0148C15.1338 49.5064 14.4518 48.6978 14.4234 47.7569C14.4234 46.7866 15.1196 45.9486 16.0006 45.9486H18.6861V49.5064ZM42.8417 45.8751V47.3453H37.1581V45.8751H42.8417ZM59.8927 38.5241H20.107C19.7234 38.5241 19.3682 38.3624 19.0982 38.0977C18.8282 37.8184 18.6861 37.4508 18.6861 37.0539C18.6861 36.6569 18.8424 36.2894 19.0982 36.0101C19.2305 35.8731 19.3879 35.7649 19.5611 35.6917C19.7343 35.6185 19.9199 35.5818 20.107 35.5837H59.8927C60.2764 35.5837 60.6316 35.7454 60.9016 36.0101C61.1716 36.2894 61.3137 36.6569 61.3137 37.0539C61.3137 37.4508 61.1574 37.8184 60.9016 38.0977C60.7693 38.2347 60.6119 38.3429 60.4387 38.4161C60.2655 38.4893 60.0799 38.526 59.8927 38.5241ZM54.9337 32.6433L59.7649 21.3669C60.049 20.6906 59.8359 19.882 59.2249 19.5292C59.0674 19.4425 58.8918 19.397 58.7134 19.3969C58.2019 19.3969 57.7614 19.7644 57.5766 20.279L53.4276 32.6286H54.9337V32.6433ZM39.3747 10.7374C39.3747 10.7374 36.4476 12.2664 35.8508 15.0304C35.4672 16.7946 35.9077 19.2057 39.0763 21.9991C41.023 23.7045 41.6055 25.013 41.364 26.0862C41.0372 27.6005 39.3605 28.3797 39.3605 28.3797C39.1923 28.4644 39.042 28.5826 38.918 28.7276C38.7941 28.8725 38.6991 29.0413 38.6383 29.2244C38.5776 29.4074 38.5524 29.601 38.5642 29.7942C38.5759 29.9873 38.6244 30.1761 38.7069 30.3498C38.7887 30.5238 38.9029 30.6794 39.043 30.8076C39.1831 30.9358 39.3463 31.0342 39.5232 31.097C39.7001 31.1598 39.8872 31.1859 40.0739 31.1737C40.2605 31.1616 40.443 31.1114 40.6109 31.0261C40.6109 31.0261 43.538 29.4971 44.1348 26.7331C44.5184 24.9689 44.0779 22.5431 40.9093 19.7644C38.9626 18.059 38.3801 16.7652 38.6216 15.6773C38.9484 14.163 40.6109 13.3985 40.6109 13.3985C40.7791 13.3138 40.9294 13.1956 41.0533 13.0507C41.1773 12.9057 41.2723 12.7369 41.333 12.5539C41.3938 12.3708 41.419 12.1772 41.4072 11.9841C41.3955 11.7909 41.347 11.6021 41.2645 11.4284C41.1827 11.2544 41.0684 11.0988 40.9284 10.9706C40.7883 10.8424 40.6251 10.744 40.4482 10.6812C40.2713 10.6184 40.0842 10.5923 39.8975 10.6045C39.7109 10.6166 39.5284 10.6668 39.3605 10.7521L39.3747 10.7374ZM47.9144 13.7219C47.9144 13.7219 46.0104 14.854 45.6125 16.9122C45.371 18.1913 45.6125 19.9114 47.6018 21.9256C48.5822 22.9106 48.9091 23.6604 48.7954 24.2926C48.6533 25.0718 47.9002 25.4835 47.9002 25.4835C47.5938 25.6856 47.374 26.0016 47.2858 26.3663C47.1976 26.7311 47.2479 27.1169 47.4262 27.4445C47.6045 27.7721 47.8974 28.0165 48.2445 28.1276C48.5917 28.2387 48.9668 28.2079 49.2927 28.0416C49.2927 28.0416 51.1967 26.9096 51.5804 24.8366C51.8219 23.5575 51.5804 21.8374 49.5911 19.8232C48.6249 18.8382 48.2838 18.0884 48.3975 17.4709C48.5396 16.6917 49.2927 16.2801 49.2927 16.2801C49.9747 15.8831 50.2163 14.9863 49.8469 14.2806C49.4632 13.5749 48.5965 13.325 47.9144 13.7072V13.7219ZM30.6076 13.7366C30.6076 13.7366 28.7604 14.854 28.391 16.9269C28.1637 18.1913 28.4052 19.9114 30.3092 21.9109C31.247 22.9106 31.5739 23.6751 31.4602 24.3073C31.3181 25.0865 30.6076 25.4982 30.6076 25.4982C29.9256 25.9098 29.6982 26.8066 30.0961 27.5123C30.494 28.218 31.3607 28.4533 32.0428 28.0416C32.0428 28.0416 33.8899 26.9096 34.2594 24.8366C34.4867 23.5722 34.2452 21.8521 32.3412 19.8526C31.4033 18.8529 31.0765 18.0884 31.1902 17.4709C31.3323 16.6917 32.0428 16.2801 32.0428 16.2801C32.7248 15.8684 32.9521 14.9716 32.5543 14.2659C32.4605 14.0984 32.3357 13.9517 32.1869 13.8343C32.0381 13.7169 31.8684 13.6312 31.6874 13.582C31.5065 13.5328 31.3179 13.5211 31.1326 13.5476C30.9473 13.5742 30.7689 13.6384 30.6076 13.7366Z"/>
</mask>
<path fill-rule="evenodd" clip-rule="evenodd" d="M50.4294 32.6433H20.107C18.9703 32.6433 17.8904 33.1138 17.0947 33.9371C16.299 34.7604 15.8443 35.8924 15.8443 37.0539C15.8469 37.9656 16.1212 38.8543 16.6298 39.5989C17.1383 40.3434 17.8564 40.9076 18.6861 41.2145V43.0229H16.0006C13.5992 43.0229 11.5815 45.14 11.5815 47.7716C11.6242 50.3886 13.6419 52.4762 16.029 52.4615H18.6861V59.7831C18.6861 65.0758 22.8068 69.3982 27.78 69.3982H52.2198C57.193 69.3982 61.3137 65.0611 61.3137 59.7831V52.4615H64.0276C66.4148 52.4468 68.4183 50.3297 68.4183 47.7128C68.4183 47.6687 68.4183 47.7569 68.4183 47.7128C68.3756 45.14 66.3863 42.9494 64.0276 42.9347H61.3137V41.2145C62.144 40.9085 62.8626 40.3446 63.3713 39.5998C63.88 38.8551 64.1539 37.9659 64.1555 37.0539C64.1555 35.8924 63.7008 34.7604 62.9051 33.9371C62.1094 33.1138 61.0153 32.6433 59.8927 32.6433H58.0456L62.3651 22.5725C63.2603 20.5142 62.4504 18.0149 60.589 16.9563H60.5748C60.0064 16.6329 59.367 16.4712 58.7134 16.4712C57.0225 16.4712 55.4879 17.6032 54.9053 19.3234L50.4294 32.6433ZM21.528 41.4645V59.7831C21.528 63.4439 24.3414 66.4578 27.78 66.4578H52.2198C55.6584 66.4578 58.4718 63.4292 58.4718 59.7831V41.4645H21.528ZM22.9489 53.226V59.0921C22.9489 60.6505 23.5457 62.1648 24.6256 63.2675C25.6953 64.3763 27.1468 65.0003 28.661 65.0023H31.4886C32.2701 65.0023 32.9095 64.3407 32.9095 63.5321C32.9095 62.7235 32.2701 62.0619 31.4886 62.0619H28.661C27.9079 62.0619 27.169 61.7532 26.6433 61.1945C26.1033 60.6358 25.8049 59.886 25.8049 59.1068V53.2407C25.8049 52.4321 25.1655 51.7705 24.384 51.7705C23.6025 51.7705 22.9631 52.4321 22.9631 53.2407L22.9489 53.226ZM45.6836 44.4049C45.6836 43.5963 45.0442 42.9347 44.2626 42.9347H35.7371C34.9556 42.9347 34.3162 43.5963 34.3162 44.4049V48.8154C34.3162 49.6241 34.9556 50.2856 35.7371 50.2856H44.2626C45.0442 50.2856 45.6836 49.6241 45.6836 48.8154V44.4049ZM61.3137 45.8751H64.0134C64.8802 45.8751 65.5622 46.7719 65.5764 47.7128C65.5764 48.6684 64.8944 49.5064 64.0134 49.5211H61.3137V45.8751ZM18.6861 49.5064H16.0148C15.1338 49.5064 14.4518 48.6978 14.4234 47.7569C14.4234 46.7866 15.1196 45.9486 16.0006 45.9486H18.6861V49.5064ZM42.8417 45.8751V47.3453H37.1581V45.8751H42.8417ZM59.8927 38.5241H20.107C19.7234 38.5241 19.3682 38.3624 19.0982 38.0977C18.8282 37.8184 18.6861 37.4508 18.6861 37.0539C18.6861 36.6569 18.8424 36.2894 19.0982 36.0101C19.2305 35.8731 19.3879 35.7649 19.5611 35.6917C19.7343 35.6185 19.9199 35.5818 20.107 35.5837H59.8927C60.2764 35.5837 60.6316 35.7454 60.9016 36.0101C61.1716 36.2894 61.3137 36.6569 61.3137 37.0539C61.3137 37.4508 61.1574 37.8184 60.9016 38.0977C60.7693 38.2347 60.6119 38.3429 60.4387 38.4161C60.2655 38.4893 60.0799 38.526 59.8927 38.5241ZM54.9337 32.6433L59.7649 21.3669C60.049 20.6906 59.8359 19.882 59.2249 19.5292C59.0674 19.4425 58.8918 19.397 58.7134 19.3969C58.2019 19.3969 57.7614 19.7644 57.5766 20.279L53.4276 32.6286H54.9337V32.6433ZM39.3747 10.7374C39.3747 10.7374 36.4476 12.2664 35.8508 15.0304C35.4672 16.7946 35.9077 19.2057 39.0763 21.9991C41.023 23.7045 41.6055 25.013 41.364 26.0862C41.0372 27.6005 39.3605 28.3797 39.3605 28.3797C39.1923 28.4644 39.042 28.5826 38.918 28.7276C38.7941 28.8725 38.6991 29.0413 38.6383 29.2244C38.5776 29.4074 38.5524 29.601 38.5642 29.7942C38.5759 29.9873 38.6244 30.1761 38.7069 30.3498C38.7887 30.5238 38.9029 30.6794 39.043 30.8076C39.1831 30.9358 39.3463 31.0342 39.5232 31.097C39.7001 31.1598 39.8872 31.1859 40.0739 31.1737C40.2605 31.1616 40.443 31.1114 40.6109 31.0261C40.6109 31.0261 43.538 29.4971 44.1348 26.7331C44.5184 24.9689 44.0779 22.5431 40.9093 19.7644C38.9626 18.059 38.3801 16.7652 38.6216 15.6773C38.9484 14.163 40.6109 13.3985 40.6109 13.3985C40.7791 13.3138 40.9294 13.1956 41.0533 13.0507C41.1773 12.9057 41.2723 12.7369 41.333 12.5539C41.3938 12.3708 41.419 12.1772 41.4072 11.9841C41.3955 11.7909 41.347 11.6021 41.2645 11.4284C41.1827 11.2544 41.0684 11.0988 40.9284 10.9706C40.7883 10.8424 40.6251 10.744 40.4482 10.6812C40.2713 10.6184 40.0842 10.5923 39.8975 10.6045C39.7109 10.6166 39.5284 10.6668 39.3605 10.7521L39.3747 10.7374ZM47.9144 13.7219C47.9144 13.7219 46.0104 14.854 45.6125 16.9122C45.371 18.1913 45.6125 19.9114 47.6018 21.9256C48.5822 22.9106 48.9091 23.6604 48.7954 24.2926C48.6533 25.0718 47.9002 25.4835 47.9002 25.4835C47.5938 25.6856 47.374 26.0016 47.2858 26.3663C47.1976 26.7311 47.2479 27.1169 47.4262 27.4445C47.6045 27.7721 47.8974 28.0165 48.2445 28.1276C48.5917 28.2387 48.9668 28.2079 49.2927 28.0416C49.2927 28.0416 51.1967 26.9096 51.5804 24.8366C51.8219 23.5575 51.5804 21.8374 49.5911 19.8232C48.6249 18.8382 48.2838 18.0884 48.3975 17.4709C48.5396 16.6917 49.2927 16.2801 49.2927 16.2801C49.9747 15.8831 50.2163 14.9863 49.8469 14.2806C49.4632 13.5749 48.5965 13.325 47.9144 13.7072V13.7219ZM30.6076 13.7366C30.6076 13.7366 28.7604 14.854 28.391 16.9269C28.1637 18.1913 28.4052 19.9114 30.3092 21.9109C31.247 22.9106 31.5739 23.6751 31.4602 24.3073C31.3181 25.0865 30.6076 25.4982 30.6076 25.4982C29.9256 25.9098 29.6982 26.8066 30.0961 27.5123C30.494 28.218 31.3607 28.4533 32.0428 28.0416C32.0428 28.0416 33.8899 26.9096 34.2594 24.8366C34.4867 23.5722 34.2452 21.8521 32.3412 19.8526C31.4033 18.8529 31.0765 18.0884 31.1902 17.4709C31.3323 16.6917 32.0428 16.2801 32.0428 16.2801C32.7248 15.8684 32.9521 14.9716 32.5543 14.2659C32.4605 14.0984 32.3357 13.9517 32.1869 13.8343C32.0381 13.7169 31.8684 13.6312 31.6874 13.582C31.5065 13.5328 31.3179 13.5211 31.1326 13.5476C30.9473 13.5742 30.7689 13.6384 30.6076 13.7366Z" fill="#01003F"/>
<path d="M50.4294 32.6433V33.3783H50.9578L51.1261 32.8774L50.4294 32.6433ZM15.8443 37.0539H15.1093L15.1093 37.056L15.8443 37.0539ZM18.6861 41.2145H19.4211V40.7028L18.9411 40.5252L18.6861 41.2145ZM18.6861 43.0229V43.7578H19.4211V43.0229H18.6861ZM11.5815 47.7716H10.8465L10.8467 47.7836L11.5815 47.7716ZM16.029 52.4615V51.7266L16.0245 51.7266L16.029 52.4615ZM18.6861 52.4615H19.4211V51.7266H18.6861V52.4615ZM61.3137 52.4615V51.7266H60.5787V52.4615H61.3137ZM64.0276 52.4615V53.1965L64.0321 53.1965L64.0276 52.4615ZM64.0276 42.9347L64.0322 42.1997H64.0276V42.9347ZM61.3137 42.9347H60.5787V43.6696H61.3137V42.9347ZM61.3137 41.2145L61.0595 40.5249L60.5787 40.7021V41.2145H61.3137ZM64.1555 37.0539L64.8905 37.0552V37.0539H64.1555ZM58.0456 32.6433L57.3701 32.3536L56.9306 33.3783H58.0456V32.6433ZM62.3651 22.5725L61.6912 22.2794L61.6897 22.2828L62.3651 22.5725ZM60.589 16.9563L60.9523 16.3175L60.7834 16.2214H60.589V16.9563ZM60.5748 16.9563L60.2113 17.5951L60.3803 17.6913H60.5748V16.9563ZM54.9053 19.3234L54.2092 19.0876L54.2087 19.0892L54.9053 19.3234ZM21.528 41.4645V40.7295H20.793V41.4645H21.528ZM58.4718 41.4645H59.2068V40.7295H58.4718V41.4645ZM22.9489 53.226L23.4773 52.7152L22.2139 51.4083V53.226H22.9489ZM24.6256 63.2675L25.1545 62.7572L25.1507 62.7532L24.6256 63.2675ZM28.661 65.0023L28.66 65.7372H28.661V65.0023ZM26.6433 61.1945L27.1785 60.6908L27.1717 60.6837L26.6433 61.1945ZM22.9631 53.2407L22.4347 53.7515L23.6981 55.0585V53.2407H22.9631ZM61.3137 45.8751V45.1401H60.5787V45.8751H61.3137ZM65.5764 47.7128H66.3115L66.3113 47.7017L65.5764 47.7128ZM64.0134 49.5211V50.2562L64.0257 50.256L64.0134 49.5211ZM61.3137 49.5211H60.5787V50.2561H61.3137V49.5211ZM18.6861 49.5064V50.2414H19.4211V49.5064H18.6861ZM14.4234 47.7569H13.6884V47.768L13.6888 47.7791L14.4234 47.7569ZM18.6861 45.9486H19.4211V45.2136H18.6861V45.9486ZM42.8417 45.8751H43.5767V45.1401H42.8417V45.8751ZM42.8417 47.3453V48.0802H43.5767V47.3453H42.8417ZM37.1581 47.3453H36.4231V48.0802H37.1581V47.3453ZM37.1581 45.8751V45.1401H36.4231V45.8751H37.1581ZM59.8927 38.5241L59.9003 37.7891H59.8927V38.5241ZM19.0982 38.0977L18.5697 38.6085L18.5766 38.6156L18.5837 38.6226L19.0982 38.0977ZM19.0982 36.0101L18.5697 35.4994L18.5628 35.5065L18.5561 35.5137L19.0982 36.0101ZM20.107 35.5837L20.0995 36.3187H20.107V35.5837ZM60.9016 36.0101L61.4301 35.4993L61.4232 35.4922L61.4161 35.4852L60.9016 36.0101ZM60.9016 38.0977L61.4301 38.6084L61.437 38.6013L61.4437 38.594L60.9016 38.0977ZM54.9337 32.6433H54.1988L55.6093 32.9327L54.9337 32.6433ZM59.7649 21.3669L60.4404 21.6564L60.4424 21.6516L59.7649 21.3669ZM59.2249 19.5292L59.5925 18.8927L59.586 18.889L59.5794 18.8853L59.2249 19.5292ZM58.7134 19.3969L58.7141 18.6619H58.7134V19.3969ZM57.5766 20.279L56.8849 20.0307L56.8824 20.0378L56.88 20.0449L57.5766 20.279ZM53.4276 32.6286L52.7309 32.3945L52.4053 33.3636H53.4276V32.6286ZM54.9337 32.6286H55.6687V31.8937H54.9337V32.6286ZM39.3747 10.7374L39.9032 11.2482L39.0344 10.086L39.3747 10.7374ZM35.8508 15.0304L36.569 15.1866L36.5692 15.1855L35.8508 15.0304ZM39.0763 21.9991L38.5903 22.5504L38.592 22.5519L39.0763 21.9991ZM41.364 26.0862L40.6469 25.9249L40.6456 25.9312L41.364 26.0862ZM39.3605 28.3797L39.0507 27.7132L39.0403 27.7181L39.0299 27.7233L39.3605 28.3797ZM38.7069 30.3498L39.3719 30.037L39.3708 30.0347L38.7069 30.3498ZM40.6109 31.0261L40.9439 31.6814L40.9512 31.6775L40.6109 31.0261ZM44.1348 26.7331L43.4166 26.577L43.4164 26.578L44.1348 26.7331ZM40.9093 19.7644L41.3939 19.2118L41.3936 19.2116L40.9093 19.7644ZM38.6216 15.6773L39.3391 15.8366L39.34 15.8323L38.6216 15.6773ZM40.6109 13.3985L40.918 14.0662L40.9298 14.0608L40.9414 14.0549L40.6109 13.3985ZM41.2645 11.4284L40.5994 11.7412L40.6006 11.7436L41.2645 11.4284ZM39.3605 10.7521L38.832 10.2414L39.6934 11.4073L39.3605 10.7521ZM47.9144 13.7219L48.29 14.3536L48.6494 14.14V13.7219H47.9144ZM45.6125 16.9122L44.8909 16.7728L44.8903 16.7758L45.6125 16.9122ZM47.6018 21.9256L47.0789 22.4421L47.0809 22.4441L47.6018 21.9256ZM48.7954 24.2926L49.5184 24.4245L49.5187 24.4227L48.7954 24.2926ZM47.9002 25.4835L47.5477 24.8386L47.5209 24.8532L47.4954 24.87L47.9002 25.4835ZM47.2858 26.3663L46.5714 26.1936L47.2858 26.3663ZM49.2927 28.0416L49.6267 28.6963L50.0277 28.4917V28.0416H49.2927ZM51.5804 24.8366L50.8582 24.7002L50.8577 24.7028L51.5804 24.8366ZM49.5911 19.8232L49.0664 20.3379L49.0682 20.3397L49.5911 19.8232ZM48.3975 17.4709L49.1203 17.604L49.1206 17.6028L48.3975 17.4709ZM49.2927 16.2801L49.6452 16.925L49.6539 16.9202L49.6624 16.9153L49.2927 16.2801ZM49.8469 14.2806L50.4981 13.9397L50.4926 13.9296L49.8469 14.2806ZM47.9144 13.7072L47.5551 13.0661L47.1795 13.2766V13.7072H47.9144ZM30.6076 13.7366L30.988 14.3655L30.99 14.3643L30.6076 13.7366ZM28.391 16.9269L29.1144 17.057L29.1146 17.0559L28.391 16.9269ZM30.3092 21.9109L30.8453 21.4081L30.8415 21.4041L30.3092 21.9109ZM31.4602 24.3073L32.1832 24.4392L32.1835 24.4374L31.4602 24.3073ZM30.6076 25.4982L30.2391 24.8621L30.2279 24.8689L30.6076 25.4982ZM32.0428 28.0416L32.4225 28.6708L32.4268 28.6682L32.0428 28.0416ZM34.2594 24.8366L33.536 24.7065L33.5358 24.7076L34.2594 24.8366ZM32.3412 19.8526L31.8051 20.3555L31.8089 20.3595L32.3412 19.8526ZM31.1902 17.4709L31.913 17.604L31.9132 17.6028L31.1902 17.4709ZM32.0428 16.2801L32.4113 16.9161L32.4225 16.9093L32.0428 16.2801ZM32.5543 14.2659L31.9129 14.6248L31.9141 14.6268L32.5543 14.2659ZM50.4294 31.9084H20.107V33.3783H50.4294V31.9084ZM20.107 31.9084C18.7649 31.9084 17.4961 32.4642 16.5662 33.4263L17.6232 34.4478C18.2847 33.7633 19.1757 33.3783 20.107 33.3783V31.9084ZM16.5662 33.4263C15.6362 34.3886 15.1093 35.7046 15.1093 37.0539H16.5793C16.5793 36.0803 16.9618 35.1322 17.6232 34.4478L16.5662 33.4263ZM15.1093 37.056C15.1124 38.1132 15.4303 39.1459 16.0229 40.0134L17.2367 39.1843C16.8121 38.5628 16.5815 37.8181 16.5793 37.0518L15.1093 37.056ZM16.0229 40.0134C16.6156 40.8812 17.4555 41.543 18.4311 41.9039L18.9411 40.5252C18.2573 40.2723 17.661 39.8056 17.2367 39.1843L16.0229 40.0134ZM17.9512 41.2145V43.0229H19.4211V41.2145H17.9512ZM18.6861 42.2879H16.0006V43.7578H18.6861V42.2879ZM16.0006 42.2879C13.1494 42.2879 10.8466 44.7795 10.8466 47.7716H12.3165C12.3165 45.5005 14.0491 43.7578 16.0006 43.7578V42.2879ZM10.8467 47.7836C10.8951 50.7546 13.1963 53.2139 16.0335 53.1965L16.0245 51.7266C14.0875 51.7385 12.3533 50.0225 12.3164 47.7596L10.8467 47.7836ZM16.029 53.1965H18.6861V51.7266H16.029V53.1965ZM17.9512 52.4615V59.7831H19.4211V52.4615H17.9512ZM17.9512 59.7831C17.9512 65.4443 22.3645 70.1331 27.78 70.1331V68.6632C23.2491 68.6632 19.4211 64.7073 19.4211 59.7831H17.9512ZM27.78 70.1331H52.2198V68.6632H27.78V70.1331ZM52.2198 70.1331C57.636 70.1331 62.0486 65.4289 62.0486 59.7831H60.5787C60.5787 64.6933 56.75 68.6632 52.2198 68.6632V70.1331ZM62.0486 59.7831V52.4615H60.5787V59.7831H62.0486ZM61.3137 53.1965H64.0276V51.7266H61.3137V53.1965ZM64.0321 53.1965C66.8675 53.179 69.1532 50.6883 69.1532 47.7128H67.6833C67.6833 49.9712 65.962 51.7146 64.0231 51.7266L64.0321 53.1965ZM69.1532 47.7128C69.1532 47.7127 69.1532 47.7126 69.1532 47.7125C69.1532 47.7125 69.1532 47.7124 69.1532 47.7123C69.1532 47.7122 69.1532 47.7121 69.1532 47.712C69.1532 47.712 69.1532 47.7119 69.1532 47.7118C69.1532 47.7117 69.1532 47.7116 69.1532 47.7115C69.1532 47.7115 69.1532 47.7114 69.1532 47.7113C69.1532 47.7112 69.1532 47.7111 69.1532 47.7111C69.1532 47.711 69.1532 47.7109 69.1532 47.7108C69.1532 47.7108 69.1532 47.7107 69.1532 47.7106C69.1532 47.7105 69.1532 47.7104 69.1532 47.7104C69.1532 47.7103 69.1532 47.7102 69.1532 47.7101C69.1532 47.7101 69.1532 47.71 69.1532 47.7099C69.1532 47.7098 69.1532 47.7098 69.1532 47.7097C69.1532 47.7096 69.1532 47.7095 69.1532 47.7095C69.1532 47.7094 69.1532 47.7093 69.1532 47.7093C69.1532 47.7092 69.1532 47.7091 69.1532 47.709C69.1532 47.709 69.1532 47.7089 69.1532 47.7088C69.1532 47.7088 69.1532 47.7087 69.1532 47.7086C69.1532 47.7086 69.1532 47.7085 69.1532 47.7084C69.1532 47.7084 69.1532 47.7083 69.1532 47.7082C69.1532 47.7082 69.1532 47.7081 69.1532 47.708C69.1532 47.708 69.1532 47.7079 69.1532 47.7078C69.1532 47.7078 69.1532 47.7077 69.1532 47.7076C69.1532 47.7076 69.1532 47.7075 69.1532 47.7074C69.1532 47.7074 69.1532 47.7073 69.1532 47.7073C69.1532 47.7072 69.1532 47.7071 69.1532 47.7071C69.1532 47.707 69.1532 47.7069 69.1532 47.7069C69.1532 47.7068 69.1532 47.7068 69.1532 47.7067C69.1532 47.7066 69.1532 47.7066 69.1532 47.7065C69.1532 47.7065 69.1532 47.7064 69.1532 47.7064C69.1532 47.7063 69.1532 47.7062 69.1532 47.7062C69.1532 47.7061 69.1532 47.7061 69.1532 47.706C69.1532 47.706 69.1532 47.7059 69.1532 47.7058C69.1532 47.7058 69.1532 47.7057 69.1532 47.7057C69.1532 47.7056 69.1532 47.7056 69.1532 47.7055C69.1532 47.7055 69.1532 47.7054 69.1532 47.7054C69.1532 47.7053 69.1532 47.7053 69.1532 47.7052C69.1532 47.7052 69.1532 47.7051 69.1532 47.7051C69.1532 47.705 69.1532 47.705 69.1532 47.7049C69.1532 47.7049 69.1532 47.7048 69.1532 47.7048C69.1532 47.7047 69.1532 47.7047 69.1532 47.7046C69.1532 47.7046 69.1532 47.7045 69.1532 47.7045C69.1532 47.7044 69.1532 47.7044 69.1532 47.7043C69.1532 47.7043 69.1532 47.7042 69.1532 47.7042C69.1532 47.7041 69.1532 47.7041 69.1532 47.7041C69.1532 47.704 69.1532 47.704 69.1532 47.7039C69.1532 47.7039 69.1532 47.7038 69.1532 47.7038C69.1532 47.7038 69.1532 47.7037 69.1532 47.7037C69.1532 47.7036 69.1532 47.7036 69.1532 47.7035C69.1532 47.7035 69.1532 47.7035 69.1532 47.7034C69.1532 47.7034 69.1532 47.7033 69.1532 47.7033C69.1532 47.7033 69.1532 47.7032 69.1532 47.7032C69.1532 47.7031 69.1532 47.7031 69.1532 47.7031C69.1532 47.703 69.1532 47.703 69.1532 47.7029C69.1532 47.7029 69.1532 47.7029 69.1532 47.7028C69.1532 47.7028 69.1532 47.7028 69.1532 47.7027C69.1532 47.7027 69.1532 47.7027 69.1532 47.7026C69.1532 47.7026 69.1532 47.7026 69.1532 47.7025C69.1532 47.7025 69.1532 47.7025 69.1532 47.7024C69.1532 47.7024 69.1532 47.7024 69.1532 47.7023C69.1532 47.7023 69.1532 47.7023 69.1532 47.7022C69.1532 47.7022 69.1532 47.7022 69.1532 47.7021C69.1532 47.7021 69.1532 47.7021 69.1532 47.702C69.1532 47.702 69.1532 47.702 69.1532 47.7019C69.1532 47.7019 69.1532 47.7019 69.1532 47.7019C69.1532 47.7018 69.1532 47.7018 69.1532 47.7018C69.1532 47.7017 69.1532 47.7017 69.1532 47.7017C69.1532 47.7017 69.1532 47.7016 69.1532 47.7016C69.1532 47.7016 69.1532 47.7016 69.1532 47.7015C69.1532 47.7015 69.1532 47.7015 69.1532 47.7015C69.1532 47.7014 69.1532 47.7014 69.1532 47.7014C69.1532 47.7014 69.1532 47.7013 69.1532 47.7013C69.1532 47.7013 69.1532 47.7013 69.1532 47.7012C69.1532 47.7012 69.1532 47.7012 69.1532 47.7012C69.1532 47.7011 69.1532 47.7011 69.1532 47.7011C69.1532 47.7011 69.1532 47.7011 69.1532 47.701C69.1532 47.701 69.1532 47.701 69.1532 47.701C69.1532 47.701 69.1532 47.7009 69.1532 47.7009C69.1532 47.7009 69.1532 47.7009 69.1532 47.7009C69.1532 47.7008 69.1532 47.7008 69.1532 47.7008C69.1532 47.7008 69.1532 47.7008 69.1532 47.7008C69.1532 47.7007 69.1532 47.7007 69.1532 47.7007C69.1532 47.7007 69.1532 47.7007 69.1532 47.7007C69.1532 47.7006 69.1532 47.7006 69.1532 47.7006C69.1532 47.7006 69.1532 47.7006 69.1532 47.7006C69.1532 47.7006 69.1532 47.7005 69.1532 47.7005C69.1532 47.7005 69.1532 47.7005 69.1532 47.7005C69.1532 47.7005 69.1532 47.7005 69.1532 47.7004C69.1532 47.7004 69.1532 47.7004 69.1532 47.7004C69.1532 47.7004 69.1532 47.7004 69.1532 47.7004C69.1532 47.7004 69.1532 47.7003 69.1532 47.7003C69.1532 47.7003 69.1532 47.7003 69.1532 47.7003C69.1532 47.7003 69.1532 47.7003 69.1532 47.7003C69.1532 47.7003 69.1532 47.7003 69.1532 47.7002C69.1532 47.7002 69.1532 47.7002 69.1532 47.7002C69.1532 47.7002 69.1532 47.7002 69.1532 47.7002C69.1532 47.7002 69.1532 47.7002 69.1532 47.7002C69.1532 47.7002 69.1532 47.7002 69.1532 47.7002C69.1532 47.7002 69.1532 47.7001 69.1532 47.7001C69.1532 47.7001 69.1532 47.7001 69.1532 47.7001C69.1532 47.7001 69.1532 47.7001 69.1532 47.7001C69.1532 47.7001 69.1532 47.7001 69.1532 47.7001C69.1532 47.7001 69.1532 47.7001 69.1532 47.7001C69.1532 47.7001 69.1532 47.7001 69.1532 47.7001C69.1532 47.7001 69.1532 47.7001 69.1532 47.7001C69.1532 47.7001 69.1532 47.7001 69.1532 47.7001C69.1532 47.7001 69.1532 47.7001 69.1532 47.7001C68.4183 47.7001 67.6833 47.7001 67.6833 47.7001C67.6833 47.7001 67.6833 47.7001 67.6833 47.7001C67.6833 47.7001 67.6833 47.7001 67.6833 47.7001C67.6833 47.7001 67.6833 47.7001 67.6833 47.7001C67.6833 47.7001 67.6833 47.7001 67.6833 47.7001C67.6833 47.7001 67.6833 47.7001 67.6833 47.7001C67.6833 47.7001 67.6833 47.7001 67.6833 47.7001C67.6833 47.7001 67.6833 47.7001 67.6833 47.7001C67.6833 47.7001 67.6833 47.7001 67.6833 47.7001C67.6833 47.7002 67.6833 47.7002 67.6833 47.7002C67.6833 47.7002 67.6833 47.7002 67.6833 47.7002C67.6833 47.7002 67.6833 47.7002 67.6833 47.7002C67.6833 47.7002 67.6833 47.7002 67.6833 47.7002C67.6833 47.7002 67.6833 47.7002 67.6833 47.7003C67.6833 47.7003 67.6833 47.7003 67.6833 47.7003C67.6833 47.7003 67.6833 47.7003 67.6833 47.7003C67.6833 47.7003 67.6833 47.7003 67.6833 47.7003C67.6833 47.7003 67.6833 47.7004 67.6833 47.7004C67.6833 47.7004 67.6833 47.7004 67.6833 47.7004C67.6833 47.7004 67.6833 47.7004 67.6833 47.7004C67.6833 47.7004 67.6833 47.7005 67.6833 47.7005C67.6833 47.7005 67.6833 47.7005 67.6833 47.7005C67.6833 47.7005 67.6833 47.7005 67.6833 47.7005C67.6833 47.7006 67.6833 47.7006 67.6833 47.7006C67.6833 47.7006 67.6833 47.7006 67.6833 47.7006C67.6833 47.7006 67.6833 47.7006 67.6833 47.7007C67.6833 47.7007 67.6833 47.7007 67.6833 47.7007C67.6833 47.7007 67.6833 47.7007 67.6833 47.7007C67.6833 47.7008 67.6833 47.7008 67.6833 47.7008C67.6833 47.7008 67.6833 47.7008 67.6833 47.7008C67.6833 47.7009 67.6833 47.7009 67.6833 47.7009C67.6833 47.7009 67.6833 47.7009 67.6833 47.7009C67.6833 47.701 67.6833 47.701 67.6833 47.701C67.6833 47.701 67.6833 47.701 67.6833 47.701C67.6833 47.7011 67.6833 47.7011 67.6833 47.7011C67.6833 47.7011 67.6833 47.7011 67.6833 47.7012C67.6833 47.7012 67.6833 47.7012 67.6833 47.7012C67.6833 47.7012 67.6833 47.7012 67.6833 47.7013C67.6833 47.7013 67.6833 47.7013 67.6833 47.7013C67.6833 47.7013 67.6833 47.7014 67.6833 47.7014C67.6833 47.7014 67.6833 47.7014 67.6833 47.7015C67.6833 47.7015 67.6833 47.7015 67.6833 47.7015C67.6833 47.7015 67.6833 47.7016 67.6833 47.7016C67.6833 47.7016 67.6833 47.7016 67.6833 47.7016C67.6833 47.7017 67.6833 47.7017 67.6833 47.7017C67.6833 47.7017 67.6833 47.7018 67.6833 47.7018C67.6833 47.7018 67.6833 47.7018 67.6833 47.7019C67.6833 47.7019 67.6833 47.7019 67.6833 47.7019C67.6833 47.7019 67.6833 47.702 67.6833 47.702C67.6833 47.702 67.6833 47.702 67.6833 47.7021C67.6833 47.7021 67.6833 47.7021 67.6833 47.7021C67.6833 47.7022 67.6833 47.7022 67.6833 47.7022C67.6833 47.7022 67.6833 47.7023 67.6833 47.7023C67.6833 47.7023 67.6833 47.7023 67.6833 47.7024C67.6833 47.7024 67.6833 47.7024 67.6833 47.7024C67.6833 47.7025 67.6833 47.7025 67.6833 47.7025C67.6833 47.7026 67.6833 47.7026 67.6833 47.7026C67.6833 47.7026 67.6833 47.7027 67.6833 47.7027C67.6833 47.7027 67.6833 47.7027 67.6833 47.7028C67.6833 47.7028 67.6833 47.7028 67.6833 47.7029C67.6833 47.7029 67.6833 47.7029 67.6833 47.7029C67.6833 47.703 67.6833 47.703 67.6833 47.703C67.6833 47.7031 67.6833 47.7031 67.6833 47.7031C67.6833 47.7031 67.6833 47.7032 67.6833 47.7032C67.6833 47.7032 67.6833 47.7033 67.6833 47.7033C67.6833 47.7033 67.6833 47.7034 67.6833 47.7034C67.6833 47.7034 67.6833 47.7034 67.6833 47.7035C67.6833 47.7035 67.6833 47.7035 67.6833 47.7036C67.6833 47.7036 67.6833 47.7036 67.6833 47.7037C67.6833 47.7037 67.6833 47.7037 67.6833 47.7038C67.6833 47.7038 67.6833 47.7038 67.6833 47.7038C67.6833 47.7039 67.6833 47.7039 67.6833 47.7039C67.6833 47.704 67.6833 47.704 67.6833 47.704C67.6833 47.7041 67.6833 47.7041 67.6833 47.7041C67.6833 47.7042 67.6833 47.7042 67.6833 47.7042C67.6833 47.7043 67.6833 47.7043 67.6833 47.7043C67.6833 47.7044 67.6833 47.7044 67.6833 47.7044C67.6833 47.7045 67.6833 47.7045 67.6833 47.7045C67.6833 47.7046 67.6833 47.7046 67.6833 47.7046C67.6833 47.7047 67.6833 47.7047 67.6833 47.7047C67.6833 47.7048 67.6833 47.7048 67.6833 47.7048C67.6833 47.7049 67.6833 47.7049 67.6833 47.7049C67.6833 47.705 67.6833 47.705 67.6833 47.705C67.6833 47.7051 67.6833 47.7051 67.6833 47.7052C67.6833 47.7052 67.6833 47.7052 67.6833 47.7053C67.6833 47.7053 67.6833 47.7053 67.6833 47.7054C67.6833 47.7054 67.6833 47.7054 67.6833 47.7055C67.6833 47.7055 67.6833 47.7055 67.6833 47.7056C67.6833 47.7056 67.6833 47.7057 67.6833 47.7057C67.6833 47.7057 67.6833 47.7058 67.6833 47.7058C67.6833 47.7058 67.6833 47.7059 67.6833 47.7059C67.6833 47.7059 67.6833 47.706 67.6833 47.706C67.6833 47.7061 67.6833 47.7061 67.6833 47.7061C67.6833 47.7062 67.6833 47.7062 67.6833 47.7062C67.6833 47.7063 67.6833 47.7063 67.6833 47.7064C67.6833 47.7064 67.6833 47.7064 67.6833 47.7065C67.6833 47.7065 67.6833 47.7065 67.6833 47.7066C67.6833 47.7066 67.6833 47.7067 67.6833 47.7067C67.6833 47.7067 67.6833 47.7068 67.6833 47.7068C67.6833 47.7069 67.6833 47.7069 67.6833 47.7069C67.6833 47.707 67.6833 47.707 67.6833 47.707C67.6833 47.7071 67.6833 47.7071 67.6833 47.7072C67.6833 47.7072 67.6833 47.7072 67.6833 47.7073C67.6833 47.7073 67.6833 47.7074 67.6833 47.7074C67.6833 47.7074 67.6833 47.7075 67.6833 47.7075C67.6833 47.7076 67.6833 47.7076 67.6833 47.7076C67.6833 47.7077 67.6833 47.7077 67.6833 47.7078C67.6833 47.7078 67.6833 47.7078 67.6833 47.7079C67.6833 47.7079 67.6833 47.708 67.6833 47.708C67.6833 47.708 67.6833 47.7081 67.6833 47.7081C67.6833 47.7082 67.6833 47.7082 67.6833 47.7082C67.6833 47.7083 67.6833 47.7083 67.6833 47.7084C67.6833 47.7084 67.6833 47.7084 67.6833 47.7085C67.6833 47.7085 67.6833 47.7086 67.6833 47.7086C67.6833 47.7086 67.6833 47.7087 67.6833 47.7087C67.6833 47.7088 67.6833 47.7088 67.6833 47.7089C67.6833 47.7089 67.6833 47.7089 67.6833 47.709C67.6833 47.709 67.6833 47.7091 67.6833 47.7091C67.6833 47.7091 67.6833 47.7092 67.6833 47.7092C67.6833 47.7093 67.6833 47.7093 67.6833 47.7094C67.6833 47.7094 67.6833 47.7094 67.6833 47.7095C67.6833 47.7095 67.6833 47.7096 67.6833 47.7096C67.6833 47.7096 67.6833 47.7097 67.6833 47.7097C67.6833 47.7098 67.6833 47.7098 67.6833 47.7099C67.6833 47.7099 67.6833 47.7099 67.6833 47.71C67.6833 47.71 67.6833 47.7101 67.6833 47.7101C67.6833 47.7101 67.6833 47.7102 67.6833 47.7102C67.6833 47.7103 67.6833 47.7103 67.6833 47.7104C67.6833 47.7104 67.6833 47.7104 67.6833 47.7105C67.6833 47.7105 67.6833 47.7106 67.6833 47.7106C67.6833 47.7107 67.6833 47.7107 67.6833 47.7107C67.6833 47.7108 67.6833 47.7108 67.6833 47.7109C67.6833 47.7109 67.6833 47.711 67.6833 47.711C67.6833 47.711 67.6833 47.7111 67.6833 47.7111C67.6833 47.7112 67.6833 47.7112 67.6833 47.7113C67.6833 47.7113 67.6833 47.7113 67.6833 47.7114C67.6833 47.7114 67.6833 47.7115 67.6833 47.7115C67.6833 47.7116 67.6833 47.7116 67.6833 47.7116C67.6833 47.7117 67.6833 47.7117 67.6833 47.7118C67.6833 47.7118 67.6833 47.7119 67.6833 47.7119C67.6833 47.7119 67.6833 47.712 67.6833 47.712C67.6833 47.7121 67.6833 47.7121 67.6833 47.7122C67.6833 47.7122 67.6833 47.7122 67.6833 47.7123C67.6833 47.7123 67.6833 47.7124 67.6833 47.7124C67.6833 47.7125 67.6833 47.7125 67.6833 47.7125C67.6833 47.7126 67.6833 47.7126 67.6833 47.7127C67.6833 47.7127 67.6833 47.7128 67.6833 47.7128C67.6833 47.7128 67.6833 47.7129 67.6833 47.7129C67.6833 47.713 67.6833 47.713 67.6833 47.7131C67.6833 47.7131 67.6833 47.7131 67.6833 47.7132C67.6833 47.7132 67.6833 47.7133 67.6833 47.7133C67.6833 47.7134 67.6833 47.7134 67.6833 47.7134C67.6833 47.7135 67.6833 47.7135 67.6833 47.7136C67.6833 47.7136 67.6833 47.7137 67.6833 47.7137C67.6833 47.7137 67.6833 47.7138 67.6833 47.7138C67.6833 47.7139 67.6833 47.7139 67.6833 47.714C67.6833 47.714 67.6833 47.714 67.6833 47.7141C67.6833 47.7141 67.6833 47.7142 67.6833 47.7142C67.6833 47.7143 67.6833 47.7143 67.6833 47.7143C67.6833 47.7144 67.6833 47.7144 67.6833 47.7145C67.6833 47.7145 67.6833 47.7146 67.6833 47.7146C67.6833 47.7146 67.6833 47.7147 67.6833 47.7147C67.6833 47.7148 67.6833 47.7148 67.6833 47.7149C67.6833 47.7149 67.6833 47.7149 67.6833 47.715C67.6833 47.715 67.6833 47.7151 67.6833 47.7151C67.6833 47.7152 67.6833 47.7152 67.6833 47.7152C67.6833 47.7153 67.6833 47.7153 67.6833 47.7154C67.6833 47.7154 67.6833 47.7155 67.6833 47.7155C67.6833 47.7155 67.6833 47.7156 67.6833 47.7156C67.6833 47.7157 67.6833 47.7157 67.6833 47.7157C67.6833 47.7158 67.6833 47.7158 67.6833 47.7159C67.6833 47.7159 67.6833 47.716 67.6833 47.716C67.6833 47.716 67.6833 47.7161 67.6833 47.7161C67.6833 47.7162 67.6833 47.7162 67.6833 47.7163C67.6833 47.7163 67.6833 47.7163 67.6833 47.7164C67.6833 47.7164 67.6833 47.7165 67.6833 47.7165C67.6833 47.7165 67.6833 47.7166 67.6833 47.7166C67.6833 47.7167 67.6833 47.7167 67.6833 47.7167C67.6833 47.7168 67.6833 47.7168 67.6833 47.7169C67.6833 47.7169 67.6833 47.717 67.6833 47.717C67.6833 47.717 67.6833 47.7171 67.6833 47.7171C67.6833 47.7172 67.6833 47.7172 67.6833 47.7172C67.6833 47.7173 67.6833 47.7173 67.6833 47.7174C67.6833 47.7174 67.6833 47.7174 67.6833 47.7175C67.6833 47.7175 67.6833 47.7176 67.6833 47.7176C67.6833 47.7176 67.6833 47.7177 67.6833 47.7177C67.6833 47.7178 67.6833 47.7178 67.6833 47.7178C67.6833 47.7179 67.6833 47.7179 67.6833 47.718C67.6833 47.718 67.6833 47.718 67.6833 47.7181C67.6833 47.7181 67.6833 47.7182 67.6833 47.7182C67.6833 47.7182 67.6833 47.7183 67.6833 47.7183C67.6833 47.7184 67.6833 47.7184 67.6833 47.7184C67.6833 47.7185 67.6833 47.7185 67.6833 47.7186C67.6833 47.7186 67.6833 47.7186 67.6833 47.7187C67.6833 47.7187 67.6833 47.7187 67.6833 47.7188C67.6833 47.7188 67.6833 47.7189 67.6833 47.7189C67.6833 47.7189 67.6833 47.719 67.6833 47.719C67.6833 47.7191 67.6833 47.7191 67.6833 47.7191C67.6833 47.7192 67.6833 47.7192 67.6833 47.7192C67.6833 47.7193 67.6833 47.7193 67.6833 47.7194C67.6833 47.7194 67.6833 47.7194 67.6833 47.7195C67.6833 47.7195 67.6833 47.7195 67.6833 47.7196C67.6833 47.7196 67.6833 47.7197 67.6833 47.7197C67.6833 47.7197 67.6833 47.7198 67.6833 47.7198C67.6833 47.7198 67.6833 47.7199 67.6833 47.7199C67.6833 47.7199 67.6833 47.72 67.6833 47.72C67.6833 47.7201 67.6833 47.7201 67.6833 47.7201C67.6833 47.7202 67.6833 47.7202 67.6833 47.7202C67.6833 47.7203 67.6833 47.7203 67.6833 47.7203C67.6833 47.7204 67.6833 47.7204 67.6833 47.7204C67.6833 47.7205 67.6833 47.7205 67.6833 47.7206C67.6833 47.7206 67.6833 47.7206 67.6833 47.7207C67.6833 47.7207 67.6833 47.7207 67.6833 47.7208C67.6833 47.7208 67.6833 47.7208 67.6833 47.7209C67.6833 47.7209 67.6833 47.7209 67.6833 47.721C67.6833 47.721 67.6833 47.721 67.6833 47.7211C67.6833 47.7211 67.6833 47.7211 67.6833 47.7212C67.6833 47.7212 67.6833 47.7212 67.6833 47.7213C67.6833 47.7213 67.6833 47.7213 67.6833 47.7214C67.6833 47.7214 67.6833 47.7214 67.6833 47.7215C67.6833 47.7215 67.6833 47.7215 67.6833 47.7216C67.6833 47.7216 67.6833 47.7216 67.6833 47.7217C67.6833 47.7217 67.6833 47.7217 67.6833 47.7218C67.6833 47.7218 67.6833 47.7218 67.6833 47.7219C67.6833 47.7219 67.6833 47.7219 67.6833 47.7219C67.6833 47.722 67.6833 47.722 67.6833 47.722C67.6833 47.7221 67.6833 47.7221 67.6833 47.7221C67.6833 47.7222 67.6833 47.7222 67.6833 47.7222C67.6833 47.7222 67.6833 47.7223 67.6833 47.7223C67.6833 47.7223 67.6833 47.7224 67.6833 47.7224C67.6833 47.7224 67.6833 47.7225 67.6833 47.7225C67.6833 47.7225 67.6833 47.7225 67.6833 47.7226C67.6833 47.7226 67.6833 47.7226 67.6833 47.7227C67.6833 47.7227 67.6833 47.7227 67.6833 47.7227C67.6833 47.7228 67.6833 47.7228 67.6833 47.7228C67.6833 47.7229 67.6833 47.7229 67.6833 47.7229C67.6833 47.7229 67.6833 47.723 67.6833 47.723C67.6833 47.723 67.6833 47.723 67.6833 47.7231C67.6833 47.7231 67.6833 47.7231 67.6833 47.7232C67.6833 47.7232 67.6833 47.7232 67.6833 47.7232C67.6833 47.7233 67.6833 47.7233 67.6833 47.7233C67.6833 47.7233 67.6833 47.7234 67.6833 47.7234C67.6833 47.7234 67.6833 47.7234 67.6833 47.7235C67.6833 47.7235 67.6833 47.7235 67.6833 47.7235C67.6833 47.7236 67.6833 47.7236 67.6833 47.7236C67.6833 47.7236 67.6833 47.7237 67.6833 47.7237C67.6833 47.7237 67.6833 47.7237 67.6833 47.7238C67.6833 47.7238 67.6833 47.7238 67.6833 47.7238C67.6833 47.7238 67.6833 47.7239 67.6833 47.7239C67.6833 47.7239 67.6833 47.7239 67.6833 47.724C67.6833 47.724 67.6833 47.724 67.6833 47.724C67.6833 47.724 67.6833 47.7241 67.6833 47.7241C67.6833 47.7241 67.6833 47.7241 67.6833 47.7241C67.6833 47.7242 67.6833 47.7242 67.6833 47.7242C67.6833 47.7242 67.6833 47.7243 67.6833 47.7243C67.6833 47.7243 67.6833 47.7243 67.6833 47.7243C67.6833 47.7243 67.6833 47.7244 67.6833 47.7244C67.6833 47.7244 67.6833 47.7244 67.6833 47.7244C67.6833 47.7245 67.6833 47.7245 67.6833 47.7245C67.6833 47.7245 67.6833 47.7245 67.6833 47.7246C67.6833 47.7246 67.6833 47.7246 67.6833 47.7246C67.6833 47.7246 67.6833 47.7246 67.6833 47.7247C67.6833 47.7247 67.6833 47.7247 67.6833 47.7247C67.6833 47.7247 67.6833 47.7247 67.6833 47.7248C67.6833 47.7248 67.6833 47.7248 67.6833 47.7248C67.6833 47.7248 67.6833 47.7248 67.6833 47.7249C67.6833 47.7249 67.6833 47.7249 67.6833 47.7249C67.6833 47.7249 67.6833 47.7249 67.6833 47.7249C67.6833 47.725 67.6833 47.725 67.6833 47.725C67.6833 47.725 67.6833 47.725 67.6833 47.725C67.6833 47.725 67.6833 47.7251 67.6833 47.7251C67.6833 47.7251 67.6833 47.7251 67.6833 47.7251C67.6833 47.7251 67.6833 47.7251 67.6833 47.7251C67.6833 47.7251 67.6833 47.7252 67.6833 47.7252C67.6833 47.7252 67.6833 47.7252 67.6833 47.7252C67.6833 47.7252 67.6833 47.7252 67.6833 47.7252C67.6833 47.7252 67.6833 47.7253 67.6833 47.7253C67.6833 47.7253 67.6833 47.7253 67.6833 47.7253C67.6833 47.7253 67.6833 47.7253 67.6833 47.7253C67.6833 47.7253 67.6833 47.7253 67.6833 47.7253C67.6833 47.7254 67.6833 47.7254 67.6833 47.7254C67.6833 47.7254 67.6833 47.7254 67.6833 47.7254C67.6833 47.7254 67.6833 47.7254 67.6833 47.7254C67.6833 47.7254 67.6833 47.7254 67.6833 47.7254C67.6833 47.7254 67.6833 47.7254 67.6833 47.7254C67.6833 47.7255 67.6833 47.7255 67.6833 47.7255C67.6833 47.7255 67.6833 47.7255 67.6833 47.7255C67.6833 47.7255 67.6833 47.7255 67.6833 47.7255C67.6833 47.7255 67.6833 47.7255 67.6833 47.7255C67.6833 47.7255 67.6833 47.7255 67.6833 47.7255C67.6833 47.7255 67.6833 47.7255 67.6833 47.7255V47.7255C67.6833 47.7255 67.6833 47.7255 67.6833 47.7255V47.7255C67.6833 47.7255 68.4183 47.7255 69.1532 47.7255C69.1532 47.7255 69.1532 47.7255 69.1532 47.7255C69.1532 47.7255 69.1532 47.7255 69.1532 47.7255C69.1532 47.7255 69.1532 47.7255 69.1532 47.7255C69.1532 47.7255 69.1532 47.7255 69.1532 47.7255C69.1532 47.7255 69.1532 47.7255 69.1532 47.7255C69.1532 47.7255 69.1532 47.7255 69.1532 47.7255C69.1532 47.7255 69.1532 47.7255 69.1532 47.7255C69.1532 47.7255 69.1532 47.7255 69.1532 47.7255C69.1532 47.7255 69.1532 47.7254 69.1532 47.7254C69.1532 47.7254 69.1532 47.7254 69.1532 47.7254C69.1532 47.7254 69.1532 47.7254 69.1532 47.7254C69.1532 47.7254 69.1532 47.7254 69.1532 47.7254C69.1532 47.7254 69.1532 47.7254 69.1532 47.7253C69.1532 47.7253 69.1532 47.7253 69.1532 47.7253C69.1532 47.7253 69.1532 47.7253 69.1532 47.7253C69.1532 47.7253 69.1532 47.7253 69.1532 47.7253C69.1532 47.7253 69.1532 47.7252 69.1532 47.7252C69.1532 47.7252 69.1532 47.7252 69.1532 47.7252C69.1532 47.7252 69.1532 47.7252 69.1532 47.7252C69.1532 47.7251 69.1532 47.7251 69.1532 47.7251C69.1532 47.7251 69.1532 47.7251 69.1532 47.7251C69.1532 47.7251 69.1532 47.7251 69.1532 47.725C69.1532 47.725 69.1532 47.725 69.1532 47.725C69.1532 47.725 69.1532 47.725 69.1532 47.7249C69.1532 47.7249 69.1532 47.7249 69.1532 47.7249C69.1532 47.7249 69.1532 47.7249 69.1532 47.7248C69.1532 47.7248 69.1532 47.7248 69.1532 47.7248C69.1532 47.7248 69.1532 47.7248 69.1532 47.7247C69.1532 47.7247 69.1532 47.7247 69.1532 47.7247C69.1532 47.7247 69.1532 47.7246 69.1532 47.7246C69.1532 47.7246 69.1532 47.7246 69.1532 47.7246C69.1532 47.7245 69.1532 47.7245 69.1532 47.7245C69.1532 47.7245 69.1532 47.7245 69.1532 47.7244C69.1532 47.7244 69.1532 47.7244 69.1532 47.7244C69.1532 47.7243 69.1532 47.7243 69.1532 47.7243C69.1532 47.7243 69.1532 47.7242 69.1532 47.7242C69.1532 47.7242 69.1532 47.7242 69.1532 47.7241C69.1532 47.7241 69.1532 47.7241 69.1532 47.7241C69.1532 47.724 69.1532 47.724 69.1532 47.724C69.1532 47.724 69.1532 47.7239 69.1532 47.7239C69.1532 47.7239 69.1532 47.7239 69.1532 47.7238C69.1532 47.7238 69.1532 47.7238 69.1532 47.7237C69.1532 47.7237 69.1532 47.7237 69.1532 47.7237C69.1532 47.7236 69.1532 47.7236 69.1532 47.7236C69.1532 47.7235 69.1532 47.7235 69.1532 47.7235C69.1532 47.7234 69.1532 47.7234 69.1532 47.7234C69.1532 47.7233 69.1532 47.7233 69.1532 47.7233C69.1532 47.7232 69.1532 47.7232 69.1532 47.7232C69.1532 47.7231 69.1532 47.7231 69.1532 47.7231C69.1532 47.723 69.1532 47.723 69.1532 47.723C69.1532 47.7229 69.1532 47.7229 69.1532 47.7229C69.1532 47.7228 69.1532 47.7228 69.1532 47.7228C69.1532 47.7227 69.1532 47.7227 69.1532 47.7226C69.1532 47.7226 69.1532 47.7226 69.1532 47.7225C69.1532 47.7225 69.1532 47.7225 69.1532 47.7224C69.1532 47.7224 69.1532 47.7223 69.1532 47.7223C69.1532 47.7223 69.1532 47.7222 69.1532 47.7222C69.1532 47.7221 69.1532 47.7221 69.1532 47.7221C69.1532 47.722 69.1532 47.722 69.1532 47.7219C69.1532 47.7219 69.1532 47.7218 69.1532 47.7218C69.1532 47.7218 69.1532 47.7217 69.1532 47.7217C69.1532 47.7216 69.1532 47.7216 69.1532 47.7215C69.1532 47.7215 69.1532 47.7215 69.1532 47.7214C69.1532 47.7214 69.1532 47.7213 69.1532 47.7213C69.1532 47.7212 69.1532 47.7212 69.1532 47.7211C69.1532 47.7211 69.1532 47.721 69.1532 47.721C69.1532 47.7209 69.1532 47.7209 69.1532 47.7208C69.1532 47.7208 69.1532 47.7207 69.1532 47.7207C69.1532 47.7206 69.1532 47.7206 69.1532 47.7205C69.1532 47.7205 69.1532 47.7204 69.1532 47.7204C69.1532 47.7203 69.1532 47.7203 69.1532 47.7202C69.1532 47.7202 69.1532 47.7201 69.1532 47.7201C69.1532 47.72 69.1532 47.72 69.1532 47.7199C69.1532 47.7199 69.1532 47.7198 69.1532 47.7197C69.1532 47.7197 69.1532 47.7196 69.1532 47.7196C69.1532 47.7195 69.1532 47.7195 69.1532 47.7194C69.1532 47.7194 69.1532 47.7193 69.1532 47.7192C69.1532 47.7192 69.1532 47.7191 69.1532 47.7191C69.1532 47.719 69.1532 47.719 69.1532 47.7189C69.1532 47.7188 69.1532 47.7188 69.1532 47.7187C69.1532 47.7187 69.1532 47.7186 69.1532 47.7185C69.1532 47.7185 69.1532 47.7184 69.1532 47.7183C69.1532 47.7183 69.1532 47.7182 69.1532 47.7182C69.1532 47.7181 69.1532 47.718 69.1532 47.718C69.1532 47.7179 69.1532 47.7178 69.1532 47.7178C69.1532 47.7177 69.1532 47.7176 69.1532 47.7176C69.1532 47.7175 69.1532 47.7174 69.1532 47.7174C69.1532 47.7173 69.1532 47.7172 69.1532 47.7172C69.1532 47.7171 69.1532 47.717 69.1532 47.717C69.1532 47.7169 69.1532 47.7168 69.1532 47.7168C69.1532 47.7167 69.1532 47.7166 69.1532 47.7166C69.1532 47.7165 69.1532 47.7164 69.1532 47.7163C69.1532 47.7163 69.1532 47.7162 69.1532 47.7161C69.1532 47.7161 69.1532 47.716 69.1532 47.7159C69.1532 47.7158 69.1532 47.7158 69.1532 47.7157C69.1532 47.7156 69.1532 47.7155 69.1532 47.7155C69.1532 47.7154 69.1532 47.7153 69.1532 47.7152C69.1532 47.7152 69.1532 47.7151 69.1532 47.715C69.1532 47.7149 69.1532 47.7149 69.1532 47.7148C69.1532 47.7147 69.1532 47.7146 69.1532 47.7145C69.1532 47.7145 69.1532 47.7144 69.1532 47.7143C69.1532 47.7142 69.1532 47.7141 69.1532 47.7141C69.1532 47.714 69.1532 47.7139 69.1532 47.7138C69.1532 47.7137 69.1532 47.7136 69.1532 47.7136C69.1532 47.7135 69.1532 47.7134 69.1532 47.7133C69.1532 47.7132 69.1532 47.7131 69.1532 47.7131C69.1532 47.713 69.1532 47.7129 69.1532 47.7128H67.6833C67.6833 47.7129 67.6833 47.713 67.6833 47.7131C67.6833 47.7131 67.6833 47.7132 67.6833 47.7133C67.6833 47.7134 67.6833 47.7135 67.6833 47.7136C67.6833 47.7136 67.6833 47.7137 67.6833 47.7138C67.6833 47.7139 67.6833 47.714 67.6833 47.7141C67.6833 47.7141 67.6833 47.7142 67.6833 47.7143C67.6833 47.7144 67.6833 47.7145 67.6833 47.7145C67.6833 47.7146 67.6833 47.7147 67.6833 47.7148C67.6833 47.7149 67.6833 47.7149 67.6833 47.715C67.6833 47.7151 67.6833 47.7152 67.6833 47.7152C67.6833 47.7153 67.6833 47.7154 67.6833 47.7155C67.6833 47.7155 67.6833 47.7156 67.6833 47.7157C67.6833 47.7158 67.6833 47.7158 67.6833 47.7159C67.6833 47.716 67.6833 47.7161 67.6833 47.7161C67.6833 47.7162 67.6833 47.7163 67.6833 47.7163C67.6833 47.7164 67.6833 47.7165 67.6833 47.7166C67.6833 47.7166 67.6833 47.7167 67.6833 47.7168C67.6833 47.7168 67.6833 47.7169 67.6833 47.717C67.6833 47.717 67.6833 47.7171 67.6833 47.7172C67.6833 47.7172 67.6833 47.7173 67.6833 47.7174C67.6833 47.7174 67.6833 47.7175 67.6833 47.7176C67.6833 47.7176 67.6833 47.7177 67.6833 47.7178C67.6833 47.7178 67.6833 47.7179 67.6833 47.718C67.6833 47.718 67.6833 47.7181 67.6833 47.7182C67.6833 47.7182 67.6833 47.7183 67.6833 47.7183C67.6833 47.7184 67.6833 47.7185 67.6833 47.7185C67.6833 47.7186 67.6833 47.7187 67.6833 47.7187C67.6833 47.7188 67.6833 47.7188 67.6833 47.7189C67.6833 47.719 67.6833 47.719 67.6833 47.7191C67.6833 47.7191 67.6833 47.7192 67.6833 47.7192C67.6833 47.7193 67.6833 47.7194 67.6833 47.7194C67.6833 47.7195 67.6833 47.7195 67.6833 47.7196C67.6833 47.7196 67.6833 47.7197 67.6833 47.7197C67.6833 47.7198 67.6833 47.7199 67.6833 47.7199C67.6833 47.72 67.6833 47.72 67.6833 47.7201C67.6833 47.7201 67.6833 47.7202 67.6833 47.7202C67.6833 47.7203 67.6833 47.7203 67.6833 47.7204C67.6833 47.7204 67.6833 47.7205 67.6833 47.7205C67.6833 47.7206 67.6833 47.7206 67.6833 47.7207C67.6833 47.7207 67.6833 47.7208 67.6833 47.7208C67.6833 47.7209 67.6833 47.7209 67.6833 47.721C67.6833 47.721 67.6833 47.7211 67.6833 47.7211C67.6833 47.7212 67.6833 47.7212 67.6833 47.7213C67.6833 47.7213 67.6833 47.7214 67.6833 47.7214C67.6833 47.7215 67.6833 47.7215 67.6833 47.7215C67.6833 47.7216 67.6833 47.7216 67.6833 47.7217C67.6833 47.7217 67.6833 47.7218 67.6833 47.7218C67.6833 47.7218 67.6833 47.7219 67.6833 47.7219C67.6833 47.722 67.6833 47.722 67.6833 47.7221C67.6833 47.7221 67.6833 47.7221 67.6833 47.7222C67.6833 47.7222 67.6833 47.7223 67.6833 47.7223C67.6833 47.7223 67.6833 47.7224 67.6833 47.7224C67.6833 47.7225 67.6833 47.7225 67.6833 47.7225C67.6833 47.7226 67.6833 47.7226 67.6833 47.7226C67.6833 47.7227 67.6833 47.7227 67.6833 47.7228C67.6833 47.7228 67.6833 47.7228 67.6833 47.7229C67.6833 47.7229 67.6833 47.7229 67.6833 47.723C67.6833 47.723 67.6833 47.723 67.6833 47.7231C67.6833 47.7231 67.6833 47.7231 67.6833 47.7232C67.6833 47.7232 67.6833 47.7232 67.6833 47.7233C67.6833 47.7233 67.6833 47.7233 67.6833 47.7234C67.6833 47.7234 67.6833 47.7234 67.6833 47.7235C67.6833 47.7235 67.6833 47.7235 67.6833 47.7236C67.6833 47.7236 67.6833 47.7236 67.6833 47.7237C67.6833 47.7237 67.6833 47.7237 67.6833 47.7237C67.6833 47.7238 67.6833 47.7238 67.6833 47.7238C67.6833 47.7239 67.6833 47.7239 67.6833 47.7239C67.6833 47.7239 67.6833 47.724 67.6833 47.724C67.6833 47.724 67.6833 47.724 67.6833 47.7241C67.6833 47.7241 67.6833 47.7241 67.6833 47.7241C67.6833 47.7242 67.6833 47.7242 67.6833 47.7242C67.6833 47.7242 67.6833 47.7243 67.6833 47.7243C67.6833 47.7243 67.6833 47.7243 67.6833 47.7244C67.6833 47.7244 67.6833 47.7244 67.6833 47.7244C67.6833 47.7245 67.6833 47.7245 67.6833 47.7245C67.6833 47.7245 67.6833 47.7245 67.6833 47.7246C67.6833 47.7246 67.6833 47.7246 67.6833 47.7246C67.6833 47.7246 67.6833 47.7247 67.6833 47.7247C67.6833 47.7247 67.6833 47.7247 67.6833 47.7247C67.6833 47.7248 67.6833 47.7248 67.6833 47.7248C67.6833 47.7248 67.6833 47.7248 67.6833 47.7248C67.6833 47.7249 67.6833 47.7249 67.6833 47.7249C67.6833 47.7249 67.6833 47.7249 67.6833 47.7249C67.6833 47.725 67.6833 47.725 67.6833 47.725C67.6833 47.725 67.6833 47.725 67.6833 47.725C67.6833 47.7251 67.6833 47.7251 67.6833 47.7251C67.6833 47.7251 67.6833 47.7251 67.6833 47.7251C67.6833 47.7251 67.6833 47.7251 67.6833 47.7252C67.6833 47.7252 67.6833 47.7252 67.6833 47.7252C67.6833 47.7252 67.6833 47.7252 67.6833 47.7252C67.6833 47.7252 67.6833 47.7253 67.6833 47.7253C67.6833 47.7253 67.6833 47.7253 67.6833 47.7253C67.6833 47.7253 67.6833 47.7253 67.6833 47.7253C67.6833 47.7253 67.6833 47.7253 67.6833 47.7253C67.6833 47.7254 67.6833 47.7254 67.6833 47.7254C67.6833 47.7254 67.6833 47.7254 67.6833 47.7254C67.6833 47.7254 67.6833 47.7254 67.6833 47.7254C67.6833 47.7254 67.6833 47.7254 67.6833 47.7254C67.6833 47.7254 67.6833 47.7255 67.6833 47.7255C67.6833 47.7255 67.6833 47.7255 67.6833 47.7255C67.6833 47.7255 67.6833 47.7255 67.6833 47.7255C67.6833 47.7255 67.6833 47.7255 67.6833 47.7255C67.6833 47.7255 67.6833 47.7255 67.6833 47.7255C67.6833 47.7255 67.6833 47.7255 67.6833 47.7255C67.6833 47.7255 67.6833 47.7255 67.6833 47.7255C67.6833 47.7255 67.6833 47.7255 67.6833 47.7255C67.6833 47.7255 67.6833 47.7255 67.6833 47.7255C68.4183 47.7255 69.1532 47.7255 69.1532 47.7255V47.7255C69.1532 47.7255 69.1532 47.7255 69.1532 47.7255V47.7255C69.1532 47.7255 69.1532 47.7255 69.1532 47.7255C69.1532 47.7255 69.1532 47.7255 69.1532 47.7255C69.1532 47.7255 69.1532 47.7255 69.1532 47.7255C69.1532 47.7255 69.1532 47.7255 69.1532 47.7255C69.1532 47.7255 69.1532 47.7255 69.1532 47.7255C69.1532 47.7255 69.1532 47.7255 69.1532 47.7254C69.1532 47.7254 69.1532 47.7254 69.1532 47.7254C69.1532 47.7254 69.1532 47.7254 69.1532 47.7254C69.1532 47.7254 69.1532 47.7254 69.1532 47.7254C69.1532 47.7254 69.1532 47.7254 69.1532 47.7254C69.1532 47.7254 69.1532 47.7254 69.1532 47.7253C69.1532 47.7253 69.1532 47.7253 69.1532 47.7253C69.1532 47.7253 69.1532 47.7253 69.1532 47.7253C69.1532 47.7253 69.1532 47.7253 69.1532 47.7253C69.1532 47.7253 69.1532 47.7252 69.1532 47.7252C69.1532 47.7252 69.1532 47.7252 69.1532 47.7252C69.1532 47.7252 69.1532 47.7252 69.1532 47.7252C69.1532 47.7252 69.1532 47.7251 69.1532 47.7251C69.1532 47.7251 69.1532 47.7251 69.1532 47.7251C69.1532 47.7251 69.1532 47.7251 69.1532 47.7251C69.1532 47.7251 69.1532 47.725 69.1532 47.725C69.1532 47.725 69.1532 47.725 69.1532 47.725C69.1532 47.725 69.1532 47.725 69.1532 47.7249C69.1532 47.7249 69.1532 47.7249 69.1532 47.7249C69.1532 47.7249 69.1532 47.7249 69.1532 47.7249C69.1532 47.7248 69.1532 47.7248 69.1532 47.7248C69.1532 47.7248 69.1532 47.7248 69.1532 47.7248C69.1532 47.7247 69.1532 47.7247 69.1532 47.7247C69.1532 47.7247 69.1532 47.7247 69.1532 47.7247C69.1532 47.7246 69.1532 47.7246 69.1532 47.7246C69.1532 47.7246 69.1532 47.7246 69.1532 47.7246C69.1532 47.7245 69.1532 47.7245 69.1532 47.7245C69.1532 47.7245 69.1532 47.7245 69.1532 47.7244C69.1532 47.7244 69.1532 47.7244 69.1532 47.7244C69.1532 47.7244 69.1532 47.7243 69.1532 47.7243C69.1532 47.7243 69.1532 47.7243 69.1532 47.7243C69.1532 47.7243 69.1532 47.7242 69.1532 47.7242C69.1532 47.7242 69.1532 47.7242 69.1532 47.7241C69.1532 47.7241 69.1532 47.7241 69.1532 47.7241C69.1532 47.7241 69.1532 47.724 69.1532 47.724C69.1532 47.724 69.1532 47.724 69.1532 47.724C69.1532 47.7239 69.1532 47.7239 69.1532 47.7239C69.1532 47.7239 69.1532 47.7238 69.1532 47.7238C69.1532 47.7238 69.1532 47.7238 69.1532 47.7238C69.1532 47.7237 69.1532 47.7237 69.1532 47.7237C69.1532 47.7237 69.1532 47.7236 69.1532 47.7236C69.1532 47.7236 69.1532 47.7236 69.1532 47.7235C69.1532 47.7235 69.1532 47.7235 69.1532 47.7235C69.1532 47.7234 69.1532 47.7234 69.1532 47.7234C69.1532 47.7234 69.1532 47.7233 69.1532 47.7233C69.1532 47.7233 69.1532 47.7233 69.1532 47.7232C69.1532 47.7232 69.1532 47.7232 69.1532 47.7232C69.1532 47.7231 69.1532 47.7231 69.1532 47.7231C69.1532 47.723 69.1532 47.723 69.1532 47.723C69.1532 47.723 69.1532 47.7229 69.1532 47.7229C69.1532 47.7229 69.1532 47.7229 69.1532 47.7228C69.1532 47.7228 69.1532 47.7228 69.1532 47.7227C69.1532 47.7227 69.1532 47.7227 69.1532 47.7227C69.1532 47.7226 69.1532 47.7226 69.1532 47.7226C69.1532 47.7225 69.1532 47.7225 69.1532 47.7225C69.1532 47.7225 69.1532 47.7224 69.1532 47.7224C69.1532 47.7224 69.1532 47.7223 69.1532 47.7223C69.1532 47.7223 69.1532 47.7222 69.1532 47.7222C69.1532 47.7222 69.1532 47.7222 69.1532 47.7221C69.1532 47.7221 69.1532 47.7221 69.1532 47.722C69.1532 47.722 69.1532 47.722 69.1532 47.7219C69.1532 47.7219 69.1532 47.7219 69.1532 47.7219C69.1532 47.7218 69.1532 47.7218 69.1532 47.7218C69.1532 47.7217 69.1532 47.7217 69.1532 47.7217C69.1532 47.7216 69.1532 47.7216 69.1532 47.7216C69.1532 47.7215 69.1532 47.7215 69.1532 47.7215C69.1532 47.7214 69.1532 47.7214 69.1532 47.7214C69.1532 47.7213 69.1532 47.7213 69.1532 47.7213C69.1532 47.7212 69.1532 47.7212 69.1532 47.7212C69.1532 47.7211 69.1532 47.7211 69.1532 47.7211C69.1532 47.721 69.1532 47.721 69.1532 47.721C69.1532 47.7209 69.1532 47.7209 69.1532 47.7209C69.1532 47.7208 69.1532 47.7208 69.1532 47.7208C69.1532 47.7207 69.1532 47.7207 69.1532 47.7207C69.1532 47.7206 69.1532 47.7206 69.1532 47.7206C69.1532 47.7205 69.1532 47.7205 69.1532 47.7204C69.1532 47.7204 69.1532 47.7204 69.1532 47.7203C69.1532 47.7203 69.1532 47.7203 69.1532 47.7202C69.1532 47.7202 69.1532 47.7202 69.1532 47.7201C69.1532 47.7201 69.1532 47.7201 69.1532 47.72C69.1532 47.72 69.1532 47.7199 69.1532 47.7199C69.1532 47.7199 69.1532 47.7198 69.1532 47.7198C69.1532 47.7198 69.1532 47.7197 69.1532 47.7197C69.1532 47.7197 69.1532 47.7196 69.1532 47.7196C69.1532 47.7195 69.1532 47.7195 69.1532 47.7195C69.1532 47.7194 69.1532 47.7194 69.1532 47.7194C69.1532 47.7193 69.1532 47.7193 69.1532 47.7192C69.1532 47.7192 69.1532 47.7192 69.1532 47.7191C69.1532 47.7191 69.1532 47.7191 69.1532 47.719C69.1532 47.719 69.1532 47.7189 69.1532 47.7189C69.1532 47.7189 69.1532 47.7188 69.1532 47.7188C69.1532 47.7187 69.1532 47.7187 69.1532 47.7187C69.1532 47.7186 69.1532 47.7186 69.1532 47.7186C69.1532 47.7185 69.1532 47.7185 69.1532 47.7184C69.1532 47.7184 69.1532 47.7184 69.1532 47.7183C69.1532 47.7183 69.1532 47.7182 69.1532 47.7182C69.1532 47.7182 69.1532 47.7181 69.1532 47.7181C69.1532 47.718 69.1532 47.718 69.1532 47.718C69.1532 47.7179 69.1532 47.7179 69.1532 47.7178C69.1532 47.7178 69.1532 47.7178 69.1532 47.7177C69.1532 47.7177 69.1532 47.7176 69.1532 47.7176C69.1532 47.7176 69.1532 47.7175 69.1532 47.7175C69.1532 47.7174 69.1532 47.7174 69.1532 47.7174C69.1532 47.7173 69.1532 47.7173 69.1532 47.7172C69.1532 47.7172 69.1532 47.7172 69.1532 47.7171C69.1532 47.7171 69.1532 47.717 69.1532 47.717C69.1532 47.717 69.1532 47.7169 69.1532 47.7169C69.1532 47.7168 69.1532 47.7168 69.1532 47.7167C69.1532 47.7167 69.1532 47.7167 69.1532 47.7166C69.1532 47.7166 69.1532 47.7165 69.1532 47.7165C69.1532 47.7165 69.1532 47.7164 69.1532 47.7164C69.1532 47.7163 69.1532 47.7163 69.1532 47.7163C69.1532 47.7162 69.1532 47.7162 69.1532 47.7161C69.1532 47.7161 69.1532 47.716 69.1532 47.716C69.1532 47.716 69.1532 47.7159 69.1532 47.7159C69.1532 47.7158 69.1532 47.7158 69.1532 47.7157C69.1532 47.7157 69.1532 47.7157 69.1532 47.7156C69.1532 47.7156 69.1532 47.7155 69.1532 47.7155C69.1532 47.7155 69.1532 47.7154 69.1532 47.7154C69.1532 47.7153 69.1532 47.7153 69.1532 47.7152C69.1532 47.7152 69.1532 47.7152 69.1532 47.7151C69.1532 47.7151 69.1532 47.715 69.1532 47.715C69.1532 47.7149 69.1532 47.7149 69.1532 47.7149C69.1532 47.7148 69.1532 47.7148 69.1532 47.7147C69.1532 47.7147 69.1532 47.7146 69.1532 47.7146C69.1532 47.7146 69.1532 47.7145 69.1532 47.7145C69.1532 47.7144 69.1532 47.7144 69.1532 47.7143C69.1532 47.7143 69.1532 47.7143 69.1532 47.7142C69.1532 47.7142 69.1532 47.7141 69.1532 47.7141C69.1532 47.714 69.1532 47.714 69.1532 47.714C69.1532 47.7139 69.1532 47.7139 69.1532 47.7138C69.1532 47.7138 69.1532 47.7137 69.1532 47.7137C69.1532 47.7137 69.1532 47.7136 69.1532 47.7136C69.1532 47.7135 69.1532 47.7135 69.1532 47.7134C69.1532 47.7134 69.1532 47.7134 69.1532 47.7133C69.1532 47.7133 69.1532 47.7132 69.1532 47.7132C69.1532 47.7131 69.1532 47.7131 69.1532 47.7131C69.1532 47.713 69.1532 47.713 69.1532 47.7129C69.1532 47.7129 69.1532 47.7128 69.1532 47.7128C69.1532 47.7128 69.1532 47.7127 69.1532 47.7127C69.1532 47.7126 69.1532 47.7126 69.1532 47.7125C69.1532 47.7125 69.1532 47.7125 69.1532 47.7124C69.1532 47.7124 69.1532 47.7123 69.1532 47.7123C69.1532 47.7122 69.1532 47.7122 69.1532 47.7122C69.1532 47.7121 69.1532 47.7121 69.1532 47.712C69.1532 47.712 69.1532 47.7119 69.1532 47.7119C69.1532 47.7119 69.1532 47.7118 69.1532 47.7118C69.1532 47.7117 69.1532 47.7117 69.1532 47.7116C69.1532 47.7116 69.1532 47.7116 69.1532 47.7115C69.1532 47.7115 69.1532 47.7114 69.1532 47.7114C69.1532 47.7113 69.1532 47.7113 69.1532 47.7113C69.1532 47.7112 69.1532 47.7112 69.1532 47.7111C69.1532 47.7111 69.1532 47.711 69.1532 47.711C69.1532 47.711 69.1532 47.7109 69.1532 47.7109C69.1532 47.7108 69.1532 47.7108 69.1532 47.7107C69.1532 47.7107 69.1532 47.7107 69.1532 47.7106C69.1532 47.7106 69.1532 47.7105 69.1532 47.7105C69.1532 47.7104 69.1532 47.7104 69.1532 47.7104C69.1532 47.7103 69.1532 47.7103 69.1532 47.7102C69.1532 47.7102 69.1532 47.7101 69.1532 47.7101C69.1532 47.7101 69.1532 47.71 69.1532 47.71C69.1532 47.7099 69.1532 47.7099 69.1532 47.7099C69.1532 47.7098 69.1532 47.7098 69.1532 47.7097C69.1532 47.7097 69.1532 47.7096 69.1532 47.7096C69.1532 47.7096 69.1532 47.7095 69.1532 47.7095C69.1532 47.7094 69.1532 47.7094 69.1532 47.7094C69.1532 47.7093 69.1532 47.7093 69.1532 47.7092C69.1532 47.7092 69.1532 47.7091 69.1532 47.7091C69.1532 47.7091 69.1532 47.709 69.1532 47.709C69.1532 47.7089 69.1532 47.7089 69.1532 47.7089C69.1532 47.7088 69.1532 47.7088 69.1532 47.7087C69.1532 47.7087 69.1532 47.7086 69.1532 47.7086C69.1532 47.7086 69.1532 47.7085 69.1532 47.7085C69.1532 47.7084 69.1532 47.7084 69.1532 47.7084C69.1532 47.7083 69.1532 47.7083 69.1532 47.7082C69.1532 47.7082 69.1532 47.7082 69.1532 47.7081C69.1532 47.7081 69.1532 47.708 69.1532 47.708C69.1532 47.708 69.1532 47.7079 69.1532 47.7079C69.1532 47.7078 69.1532 47.7078 69.1532 47.7078C69.1532 47.7077 69.1532 47.7077 69.1532 47.7076C69.1532 47.7076 69.1532 47.7076 69.1532 47.7075C69.1532 47.7075 69.1532 47.7074 69.1532 47.7074C69.1532 47.7074 69.1532 47.7073 69.1532 47.7073C69.1532 47.7072 69.1532 47.7072 69.1532 47.7072C69.1532 47.7071 69.1532 47.7071 69.1532 47.707C69.1532 47.707 69.1532 47.707 69.1532 47.7069C69.1532 47.7069 69.1532 47.7069 69.1532 47.7068C69.1532 47.7068 69.1532 47.7067 69.1532 47.7067C69.1532 47.7067 69.1532 47.7066 69.1532 47.7066C69.1532 47.7065 69.1532 47.7065 69.1532 47.7065C69.1532 47.7064 69.1532 47.7064 69.1532 47.7064C69.1532 47.7063 69.1532 47.7063 69.1532 47.7062C69.1532 47.7062 69.1532 47.7062 69.1532 47.7061C69.1532 47.7061 69.1532 47.7061 69.1532 47.706C69.1532 47.706 69.1532 47.7059 69.1532 47.7059C69.1532 47.7059 69.1532 47.7058 69.1532 47.7058C69.1532 47.7058 69.1532 47.7057 69.1532 47.7057C69.1532 47.7057 69.1532 47.7056 69.1532 47.7056C69.1532 47.7055 69.1532 47.7055 69.1532 47.7055C69.1532 47.7054 69.1532 47.7054 69.1532 47.7054C69.1532 47.7053 69.1532 47.7053 69.1532 47.7053C69.1532 47.7052 69.1532 47.7052 69.1532 47.7052C69.1532 47.7051 69.1532 47.7051 69.1532 47.705C69.1532 47.705 69.1532 47.705 69.1532 47.7049C69.1532 47.7049 69.1532 47.7049 69.1532 47.7048C69.1532 47.7048 69.1532 47.7048 69.1532 47.7047C69.1532 47.7047 69.1532 47.7047 69.1532 47.7046C69.1532 47.7046 69.1532 47.7046 69.1532 47.7045C69.1532 47.7045 69.1532 47.7045 69.1532 47.7044C69.1532 47.7044 69.1532 47.7044 69.1532 47.7043C69.1532 47.7043 69.1532 47.7043 69.1532 47.7042C69.1532 47.7042 69.1532 47.7042 69.1532 47.7041C69.1532 47.7041 69.1532 47.7041 69.1532 47.704C69.1532 47.704 69.1532 47.704 69.1532 47.7039C69.1532 47.7039 69.1532 47.7039 69.1532 47.7038C69.1532 47.7038 69.1532 47.7038 69.1532 47.7038C69.1532 47.7037 69.1532 47.7037 69.1532 47.7037C69.1532 47.7036 69.1532 47.7036 69.1532 47.7036C69.1532 47.7035 69.1532 47.7035 69.1532 47.7035C69.1532 47.7034 69.1532 47.7034 69.1532 47.7034C69.1532 47.7034 69.1532 47.7033 69.1532 47.7033C69.1532 47.7033 69.1532 47.7032 69.1532 47.7032C69.1532 47.7032 69.1532 47.7031 69.1532 47.7031C69.1532 47.7031 69.1532 47.7031 69.1532 47.703C69.1532 47.703 69.1532 47.703 69.1532 47.7029C69.1532 47.7029 69.1532 47.7029 69.1532 47.7029C69.1532 47.7028 69.1532 47.7028 69.1532 47.7028C69.1532 47.7027 69.1532 47.7027 69.1532 47.7027C69.1532 47.7027 69.1532 47.7026 69.1532 47.7026C69.1532 47.7026 69.1532 47.7026 69.1532 47.7025C69.1532 47.7025 69.1532 47.7025 69.1532 47.7024C69.1532 47.7024 69.1532 47.7024 69.1532 47.7024C69.1532 47.7023 69.1532 47.7023 69.1532 47.7023C69.1532 47.7023 69.1532 47.7022 69.1532 47.7022C69.1532 47.7022 69.1532 47.7022 69.1532 47.7021C69.1532 47.7021 69.1532 47.7021 69.1532 47.7021C69.1532 47.702 69.1532 47.702 69.1532 47.702C69.1532 47.702 69.1532 47.7019 69.1532 47.7019C69.1532 47.7019 69.1532 47.7019 69.1532 47.7019C69.1532 47.7018 69.1532 47.7018 69.1532 47.7018C69.1532 47.7018 69.1532 47.7017 69.1532 47.7017C69.1532 47.7017 69.1532 47.7017 69.1532 47.7016C69.1532 47.7016 69.1532 47.7016 69.1532 47.7016C69.1532 47.7016 69.1532 47.7015 69.1532 47.7015C69.1532 47.7015 69.1532 47.7015 69.1532 47.7015C69.1532 47.7014 69.1532 47.7014 69.1532 47.7014C69.1532 47.7014 69.1532 47.7013 69.1532 47.7013C69.1532 47.7013 69.1532 47.7013 69.1532 47.7013C69.1532 47.7012 69.1532 47.7012 69.1532 47.7012C69.1532 47.7012 69.1532 47.7012 69.1532 47.7012C69.1532 47.7011 69.1532 47.7011 69.1532 47.7011C69.1532 47.7011 69.1532 47.7011 69.1532 47.701C69.1532 47.701 69.1532 47.701 69.1532 47.701C69.1532 47.701 69.1532 47.701 69.1532 47.7009C69.1532 47.7009 69.1532 47.7009 69.1532 47.7009C69.1532 47.7009 69.1532 47.7009 69.1532 47.7008C69.1532 47.7008 69.1532 47.7008 69.1532 47.7008C69.1532 47.7008 69.1532 47.7008 69.1532 47.7007C69.1532 47.7007 69.1532 47.7007 69.1532 47.7007C69.1532 47.7007 69.1532 47.7007 69.1532 47.7007C69.1532 47.7006 69.1532 47.7006 69.1532 47.7006C69.1532 47.7006 69.1532 47.7006 69.1532 47.7006C69.1532 47.7006 69.1532 47.7006 69.1532 47.7005C69.1532 47.7005 69.1532 47.7005 69.1532 47.7005C69.1532 47.7005 69.1532 47.7005 69.1532 47.7005C69.1532 47.7005 69.1532 47.7004 69.1532 47.7004C69.1532 47.7004 69.1532 47.7004 69.1532 47.7004C69.1532 47.7004 69.1532 47.7004 69.1532 47.7004C69.1532 47.7004 69.1532 47.7003 69.1532 47.7003C69.1532 47.7003 69.1532 47.7003 69.1532 47.7003C69.1532 47.7003 69.1532 47.7003 69.1532 47.7003C69.1532 47.7003 69.1532 47.7003 69.1532 47.7003C69.1532 47.7002 69.1532 47.7002 69.1532 47.7002C69.1532 47.7002 69.1532 47.7002 69.1532 47.7002C69.1532 47.7002 69.1532 47.7002 69.1532 47.7002C69.1532 47.7002 69.1532 47.7002 69.1532 47.7002C69.1532 47.7002 69.1532 47.7002 69.1532 47.7001C69.1532 47.7001 69.1532 47.7001 69.1532 47.7001C69.1532 47.7001 69.1532 47.7001 69.1532 47.7001C69.1532 47.7001 69.1532 47.7001 69.1532 47.7001C69.1532 47.7001 69.1532 47.7001 69.1532 47.7001C69.1532 47.7001 69.1532 47.7001 69.1532 47.7001C69.1532 47.7001 69.1532 47.7001 69.1532 47.7001C69.1532 47.7001 69.1532 47.7001 69.1532 47.7001C69.1532 47.7001 69.1532 47.7001 69.1532 47.7001C69.1532 47.7001 68.4183 47.7001 67.6833 47.7001C67.6833 47.7001 67.6833 47.7001 67.6833 47.7001C67.6833 47.7001 67.6833 47.7001 67.6833 47.7001C67.6833 47.7001 67.6833 47.7001 67.6833 47.7001C67.6833 47.7001 67.6833 47.7001 67.6833 47.7001C67.6833 47.7001 67.6833 47.7001 67.6833 47.7001C67.6833 47.7001 67.6833 47.7001 67.6833 47.7001C67.6833 47.7001 67.6833 47.7001 67.6833 47.7001C67.6833 47.7001 67.6833 47.7001 67.6833 47.7001C67.6833 47.7001 67.6833 47.7002 67.6833 47.7002C67.6833 47.7002 67.6833 47.7002 67.6833 47.7002C67.6833 47.7002 67.6833 47.7002 67.6833 47.7002C67.6833 47.7002 67.6833 47.7002 67.6833 47.7002C67.6833 47.7002 67.6833 47.7002 67.6833 47.7002C67.6833 47.7003 67.6833 47.7003 67.6833 47.7003C67.6833 47.7003 67.6833 47.7003 67.6833 47.7003C67.6833 47.7003 67.6833 47.7003 67.6833 47.7003C67.6833 47.7003 67.6833 47.7004 67.6833 47.7004C67.6833 47.7004 67.6833 47.7004 67.6833 47.7004C67.6833 47.7004 67.6833 47.7004 67.6833 47.7004C67.6833 47.7005 67.6833 47.7005 67.6833 47.7005C67.6833 47.7005 67.6833 47.7005 67.6833 47.7005C67.6833 47.7005 67.6833 47.7006 67.6833 47.7006C67.6833 47.7006 67.6833 47.7006 67.6833 47.7006C67.6833 47.7006 67.6833 47.7006 67.6833 47.7007C67.6833 47.7007 67.6833 47.7007 67.6833 47.7007C67.6833 47.7007 67.6833 47.7007 67.6833 47.7008C67.6833 47.7008 67.6833 47.7008 67.6833 47.7008C67.6833 47.7008 67.6833 47.7008 67.6833 47.7009C67.6833 47.7009 67.6833 47.7009 67.6833 47.7009C67.6833 47.7009 67.6833 47.701 67.6833 47.701C67.6833 47.701 67.6833 47.701 67.6833 47.701C67.6833 47.7011 67.6833 47.7011 67.6833 47.7011C67.6833 47.7011 67.6833 47.7011 67.6833 47.7012C67.6833 47.7012 67.6833 47.7012 67.6833 47.7012C67.6833 47.7013 67.6833 47.7013 67.6833 47.7013C67.6833 47.7013 67.6833 47.7014 67.6833 47.7014C67.6833 47.7014 67.6833 47.7014 67.6833 47.7015C67.6833 47.7015 67.6833 47.7015 67.6833 47.7015C67.6833 47.7016 67.6833 47.7016 67.6833 47.7016C67.6833 47.7016 67.6833 47.7017 67.6833 47.7017C67.6833 47.7017 67.6833 47.7017 67.6833 47.7018C67.6833 47.7018 67.6833 47.7018 67.6833 47.7019C67.6833 47.7019 67.6833 47.7019 67.6833 47.7019C67.6833 47.702 67.6833 47.702 67.6833 47.702C67.6833 47.7021 67.6833 47.7021 67.6833 47.7021C67.6833 47.7022 67.6833 47.7022 67.6833 47.7022C67.6833 47.7023 67.6833 47.7023 67.6833 47.7023C67.6833 47.7024 67.6833 47.7024 67.6833 47.7024C67.6833 47.7025 67.6833 47.7025 67.6833 47.7025C67.6833 47.7026 67.6833 47.7026 67.6833 47.7026C67.6833 47.7027 67.6833 47.7027 67.6833 47.7027C67.6833 47.7028 67.6833 47.7028 67.6833 47.7028C67.6833 47.7029 67.6833 47.7029 67.6833 47.7029C67.6833 47.703 67.6833 47.703 67.6833 47.7031C67.6833 47.7031 67.6833 47.7031 67.6833 47.7032C67.6833 47.7032 67.6833 47.7033 67.6833 47.7033C67.6833 47.7033 67.6833 47.7034 67.6833 47.7034C67.6833 47.7035 67.6833 47.7035 67.6833 47.7035C67.6833 47.7036 67.6833 47.7036 67.6833 47.7037C67.6833 47.7037 67.6833 47.7038 67.6833 47.7038C67.6833 47.7038 67.6833 47.7039 67.6833 47.7039C67.6833 47.704 67.6833 47.704 67.6833 47.7041C67.6833 47.7041 67.6833 47.7041 67.6833 47.7042C67.6833 47.7042 67.6833 47.7043 67.6833 47.7043C67.6833 47.7044 67.6833 47.7044 67.6833 47.7045C67.6833 47.7045 67.6833 47.7046 67.6833 47.7046C67.6833 47.7047 67.6833 47.7047 67.6833 47.7048C67.6833 47.7048 67.6833 47.7049 67.6833 47.7049C67.6833 47.705 67.6833 47.705 67.6833 47.7051C67.6833 47.7051 67.6833 47.7052 67.6833 47.7052C67.6833 47.7053 67.6833 47.7053 67.6833 47.7054C67.6833 47.7054 67.6833 47.7055 67.6833 47.7055C67.6833 47.7056 67.6833 47.7056 67.6833 47.7057C67.6833 47.7057 67.6833 47.7058 67.6833 47.7058C67.6833 47.7059 67.6833 47.706 67.6833 47.706C67.6833 47.7061 67.6833 47.7061 67.6833 47.7062C67.6833 47.7062 67.6833 47.7063 67.6833 47.7064C67.6833 47.7064 67.6833 47.7065 67.6833 47.7065C67.6833 47.7066 67.6833 47.7066 67.6833 47.7067C67.6833 47.7068 67.6833 47.7068 67.6833 47.7069C67.6833 47.7069 67.6833 47.707 67.6833 47.7071C67.6833 47.7071 67.6833 47.7072 67.6833 47.7073C67.6833 47.7073 67.6833 47.7074 67.6833 47.7074C67.6833 47.7075 67.6833 47.7076 67.6833 47.7076C67.6833 47.7077 67.6833 47.7078 67.6833 47.7078C67.6833 47.7079 67.6833 47.708 67.6833 47.708C67.6833 47.7081 67.6833 47.7082 67.6833 47.7082C67.6833 47.7083 67.6833 47.7084 67.6833 47.7084C67.6833 47.7085 67.6833 47.7086 67.6833 47.7086C67.6833 47.7087 67.6833 47.7088 67.6833 47.7088C67.6833 47.7089 67.6833 47.709 67.6833 47.709C67.6833 47.7091 67.6833 47.7092 67.6833 47.7093C67.6833 47.7093 67.6833 47.7094 67.6833 47.7095C67.6833 47.7095 67.6833 47.7096 67.6833 47.7097C67.6833 47.7098 67.6833 47.7098 67.6833 47.7099C67.6833 47.71 67.6833 47.7101 67.6833 47.7101C67.6833 47.7102 67.6833 47.7103 67.6833 47.7104C67.6833 47.7104 67.6833 47.7105 67.6833 47.7106C67.6833 47.7107 67.6833 47.7108 67.6833 47.7108C67.6833 47.7109 67.6833 47.711 67.6833 47.7111C67.6833 47.7111 67.6833 47.7112 67.6833 47.7113C67.6833 47.7114 67.6833 47.7115 67.6833 47.7115C67.6833 47.7116 67.6833 47.7117 67.6833 47.7118C67.6833 47.7119 67.6833 47.712 67.6833 47.712C67.6833 47.7121 67.6833 47.7122 67.6833 47.7123C67.6833 47.7124 67.6833 47.7125 67.6833 47.7125C67.6833 47.7126 67.6833 47.7127 67.6833 47.7128H69.1532ZM69.1531 47.7006C69.105 44.7976 66.856 42.2173 64.0322 42.1997L64.023 43.6696C65.9166 43.6814 67.6462 45.4823 67.6834 47.725L69.1531 47.7006ZM64.0276 42.1997H61.3137V43.6696H64.0276V42.1997ZM62.0486 42.9347V41.2145H60.5787V42.9347H62.0486ZM61.5678 41.9042C62.5444 41.5443 63.3852 40.8826 63.9782 40.0143L62.7644 39.1853C62.3401 39.8065 61.7436 40.2728 61.0595 40.5249L61.5678 41.9042ZM63.9782 40.0143C64.5711 39.1464 64.8886 38.1129 64.8905 37.0552L63.4205 37.0526C63.4192 37.8189 63.1889 38.5637 62.7644 39.1853L63.9782 40.0143ZM64.8905 37.0539C64.8905 35.7046 64.3636 34.3886 63.4336 33.4263L62.3766 34.4478C63.038 35.1322 63.4205 36.0803 63.4205 37.0539H64.8905ZM63.4336 33.4263C62.5028 32.4632 61.2194 31.9084 59.8927 31.9084V33.3783C60.8112 33.3783 61.716 33.7643 62.3766 34.4478L63.4336 33.4263ZM59.8927 31.9084H58.0456V33.3783H59.8927V31.9084ZM58.721 32.933L63.0406 22.8622L61.6897 22.2828L57.3701 32.3536L58.721 32.933ZM63.0391 22.8656C64.0771 20.4791 63.1553 17.5702 60.9523 16.3175L60.2257 17.5952C61.7455 18.4595 62.4436 20.5494 61.6912 22.2794L63.0391 22.8656ZM60.589 16.2214H60.5748V17.6913H60.589V16.2214ZM60.9383 16.3176C60.2543 15.9283 59.4888 15.7362 58.7134 15.7362V17.2061C59.2452 17.2061 59.7585 17.3375 60.2113 17.5951L60.9383 16.3176ZM58.7134 15.7362C56.6852 15.7362 54.8855 17.0906 54.2092 19.0876L55.6014 19.5591C56.0903 18.1158 57.3597 17.2061 58.7134 17.2061V15.7362ZM54.2087 19.0892L49.7328 32.4092L51.1261 32.8774L55.602 19.5575L54.2087 19.0892ZM20.793 41.4645V59.7831H22.2629V41.4645H20.793ZM20.793 59.7831C20.793 63.803 23.8902 67.1927 27.78 67.1927V65.7228C24.7925 65.7228 22.2629 63.0848 22.2629 59.7831H20.793ZM27.78 67.1927H52.2198V65.7228H27.78V67.1927ZM52.2198 67.1927C56.1106 67.1927 59.2068 63.7872 59.2068 59.7831H57.7369C57.7369 63.0711 55.2062 65.7228 52.2198 65.7228V67.1927ZM59.2068 59.7831V41.4645H57.7369V59.7831H59.2068ZM58.4718 40.7295H21.528V42.1994H58.4718V40.7295ZM22.2139 53.226V59.0921H23.6838V53.226H22.2139ZM22.2139 59.0921C22.2139 60.8349 22.8807 62.5362 24.1005 63.7817L25.1507 62.7532C24.2107 61.7934 23.6838 60.4661 23.6838 59.0921H22.2139ZM24.0966 63.7777C25.3019 65.0271 26.9427 65.735 28.66 65.7372L28.6619 64.2673C27.3508 64.2656 26.0887 63.7255 25.1545 62.7572L24.0966 63.7777ZM28.661 65.7372H31.4886V64.2673H28.661V65.7372ZM31.4886 65.7372C32.6994 65.7372 33.6445 64.7228 33.6445 63.5321H32.1746C32.1746 63.9586 31.8408 64.2673 31.4886 64.2673V65.7372ZM33.6445 63.5321C33.6445 62.3414 32.6994 61.3269 31.4886 61.3269V62.7968C31.8408 62.7968 32.1746 63.1056 32.1746 63.5321H33.6445ZM31.4886 61.3269H28.661V62.7968H31.4886V61.3269ZM28.661 61.3269C28.1056 61.3269 27.562 61.0983 27.1785 60.6908L26.108 61.6982C26.776 62.408 27.7102 62.7968 28.661 62.7968V61.3269ZM27.1717 60.6837C26.7665 60.2645 26.5399 59.6988 26.5399 59.1068H25.07C25.07 60.0733 25.4401 61.0071 26.1148 61.7052L27.1717 60.6837ZM26.5399 59.1068V53.2407H25.07V59.1068H26.5399ZM26.5399 53.2407C26.5399 52.05 25.5948 51.0356 24.384 51.0356V52.5055C24.7362 52.5055 25.07 52.8142 25.07 53.2407H26.5399ZM24.384 51.0356C23.1732 51.0356 22.2281 52.05 22.2281 53.2407H23.6981C23.6981 52.8142 24.0318 52.5055 24.384 52.5055V51.0356ZM23.4915 52.7299L23.4773 52.7152L22.4205 53.7368L22.4347 53.7515L23.4915 52.7299ZM46.4185 44.4049C46.4185 43.2142 45.4735 42.1997 44.2626 42.1997V43.6696C44.6148 43.6696 44.9486 43.9783 44.9486 44.4049H46.4185ZM44.2626 42.1997H35.7371V43.6696H44.2626V42.1997ZM35.7371 42.1997C34.5263 42.1997 33.5813 43.2142 33.5813 44.4049H35.0512C35.0512 43.9783 35.385 43.6696 35.7371 43.6696V42.1997ZM33.5813 44.4049V48.8154H35.0512V44.4049H33.5813ZM33.5813 48.8154C33.5813 50.0061 34.5263 51.0206 35.7371 51.0206V49.5507C35.385 49.5507 35.0512 49.242 35.0512 48.8154H33.5813ZM35.7371 51.0206H44.2626V49.5507H35.7371V51.0206ZM44.2626 51.0206C45.4735 51.0206 46.4185 50.0061 46.4185 48.8154H44.9486C44.9486 49.242 44.6148 49.5507 44.2626 49.5507V51.0206ZM46.4185 48.8154V44.4049H44.9486V48.8154H46.4185ZM61.3137 46.61H64.0134V45.1401H61.3137V46.61ZM64.0134 46.61C64.179 46.61 64.3721 46.6949 64.5466 46.9074C64.7222 47.1213 64.837 47.4205 64.8415 47.7239L66.3113 47.7017C66.3017 47.0642 66.0683 46.4445 65.6827 45.9747C65.2959 45.5036 64.7146 45.1401 64.0134 45.1401V46.61ZM64.8415 47.7128C64.8415 48.372 64.3839 48.7799 64.0011 48.7863L64.0257 50.256C65.4049 50.233 66.3114 48.9648 66.3114 47.7128H64.8415ZM64.0134 48.7862H61.3137V50.2561H64.0134V48.7862ZM62.0486 49.5211V45.8751H60.5787V49.5211H62.0486ZM18.6861 48.7715H16.0148V50.2414H18.6861V48.7715ZM16.0148 48.7715C15.6281 48.7715 15.1776 48.3832 15.158 47.7347L13.6888 47.7791C13.726 49.0124 14.6395 50.2414 16.0148 50.2414V48.7715ZM15.1583 47.7569C15.1583 47.0838 15.6263 46.6835 16.0006 46.6835V45.2136C14.6129 45.2136 13.6884 46.4894 13.6884 47.7569H15.1583ZM16.0006 46.6835H18.6861V45.2136H16.0006V46.6835ZM17.9512 45.9486V49.5064H19.4211V45.9486H17.9512ZM42.1068 45.8751V47.3453H43.5767V45.8751H42.1068ZM42.8417 46.6103H37.1581V48.0802H42.8417V46.6103ZM37.893 47.3453V45.8751H36.4231V47.3453H37.893ZM37.1581 46.61H42.8417V45.1401H37.1581V46.61ZM59.8927 37.7891H20.107V39.259H59.8927V37.7891ZM20.107 37.7891C19.9358 37.7891 19.7602 37.7175 19.6127 37.5729L18.5837 38.6226C18.9761 39.0072 19.511 39.259 20.107 39.259V37.7891ZM19.6267 37.587C19.4964 37.4522 19.4211 37.271 19.4211 37.0539H17.9512C17.9512 37.6307 18.16 38.1846 18.5697 38.6085L19.6267 37.587ZM19.4211 37.0539C19.4211 36.8532 19.4998 36.6598 19.6403 36.5064L18.5561 35.5137C18.1851 35.919 17.9512 36.4606 17.9512 37.0539H19.4211ZM19.6267 36.5208C19.6911 36.4541 19.7663 36.4029 19.8472 36.3687L19.275 35.0147C19.0094 35.1269 18.7699 35.2922 18.5697 35.4994L19.6267 36.5208ZM19.8472 36.3687C19.928 36.3345 20.0137 36.3177 20.0995 36.3186L20.1146 34.8488C19.8262 34.8458 19.5406 34.9024 19.275 35.0147L19.8472 36.3687ZM20.107 36.3187H59.8927V34.8487H20.107V36.3187ZM59.8927 36.3187C60.064 36.3187 60.2396 36.3903 60.3871 36.5349L61.4161 35.4852C61.0237 35.1006 60.4888 34.8487 59.8927 34.8487V36.3187ZM60.3731 36.5208C60.5034 36.6556 60.5787 36.8368 60.5787 37.0539H62.0486C62.0486 36.4771 61.8398 35.9232 61.4301 35.4993L60.3731 36.5208ZM60.5787 37.0539C60.5787 37.2545 60.5 37.448 60.3595 37.6014L61.4437 38.594C61.8147 38.1888 62.0486 37.6472 62.0486 37.0539H60.5787ZM60.3731 37.587C60.3087 37.6537 60.2335 37.7049 60.1526 37.7391L60.7248 39.0931C60.9904 38.9808 61.2299 38.8156 61.4301 38.6084L60.3731 37.587ZM60.1526 37.7391C60.0718 37.7733 59.9861 37.7901 59.9003 37.7892L59.8852 39.259C60.1736 39.262 60.4592 39.2053 60.7248 39.0931L60.1526 37.7391ZM55.6093 32.9327L60.4404 21.6564L59.0893 21.0775L54.2582 32.3539L55.6093 32.9327ZM60.4424 21.6516C60.8454 20.6926 60.5762 19.4608 59.5925 18.8927L58.8574 20.1656C59.0956 20.3032 59.2527 20.6886 59.0873 21.0822L60.4424 21.6516ZM59.5794 18.8853C59.3144 18.7395 59.0172 18.6622 58.7141 18.6619L58.7126 20.1318C58.7663 20.1319 58.8204 20.1455 58.8705 20.173L59.5794 18.8853ZM58.7134 18.6619C57.8262 18.6619 57.1504 19.291 56.8849 20.0307L58.2684 20.5273C58.3723 20.2378 58.5775 20.1318 58.7134 20.1318V18.6619ZM56.88 20.0449L52.7309 32.3945L54.1243 32.8627L58.2733 20.513L56.88 20.0449ZM53.4276 33.3636H54.9337V31.8937H53.4276V33.3636ZM54.1988 32.6286V32.6433H55.6687V32.6286H54.1988ZM39.3747 10.7374C39.0344 10.086 39.0342 10.0861 39.034 10.0862C39.0339 10.0863 39.0336 10.0864 39.0334 10.0865C39.0331 10.0867 39.0326 10.0869 39.0322 10.0871C39.0313 10.0876 39.0302 10.0882 39.0289 10.0889C39.0264 10.0902 39.0231 10.092 39.0192 10.0941C39.0113 10.0983 39.0006 10.104 38.9874 10.1113C38.961 10.1258 38.9242 10.1465 38.8784 10.1731C38.7867 10.2264 38.6585 10.304 38.5043 10.4054C38.1967 10.6076 37.781 10.9076 37.3441 11.3018C36.4809 12.0809 35.4766 13.2814 35.1324 14.8753L36.5692 15.1855C36.8219 14.0154 37.5795 13.0694 38.329 12.393C38.6985 12.0595 39.0519 11.8045 39.3117 11.6336C39.4412 11.5485 39.5464 11.485 39.6171 11.4439C39.6525 11.4234 39.6792 11.4084 39.6959 11.3992C39.7043 11.3946 39.7102 11.3914 39.7134 11.3897C39.715 11.3888 39.716 11.3883 39.7162 11.3882C39.7164 11.3881 39.7163 11.3881 39.7161 11.3883C39.716 11.3883 39.7159 11.3884 39.7157 11.3885C39.7156 11.3885 39.7154 11.3886 39.7154 11.3887C39.7152 11.3888 39.715 11.3889 39.3747 10.7374ZM35.1326 14.8742C34.6796 16.9576 35.2712 19.6244 38.5903 22.5504L39.5623 21.4478C36.5441 18.787 36.2548 16.6316 36.569 15.1866L35.1326 14.8742ZM38.592 22.5519C40.5062 24.2289 40.7924 25.2786 40.647 25.9249L42.081 26.2476C42.4186 24.7474 41.5397 23.1801 39.5606 21.4463L38.592 22.5519ZM40.6456 25.9312C40.5311 26.4616 40.1678 26.9034 39.7686 27.2367C39.5749 27.3984 39.3885 27.5213 39.2513 27.603C39.1833 27.6435 39.1286 27.6732 39.0931 27.6918C39.0753 27.701 39.0624 27.7075 39.0551 27.7111C39.0515 27.7129 39.0492 27.714 39.0485 27.7143C39.0481 27.7145 39.0481 27.7145 39.0484 27.7143C39.0486 27.7142 39.0489 27.7141 39.0493 27.7139C39.0495 27.7138 39.0497 27.7137 39.0499 27.7136C39.0501 27.7136 39.0503 27.7135 39.0503 27.7134C39.0505 27.7133 39.0507 27.7132 39.3605 28.3797C39.6702 29.0462 39.6705 29.0461 39.6707 29.046C39.6708 29.046 39.671 29.0459 39.6712 29.0458C39.6715 29.0456 39.6719 29.0455 39.6723 29.0453C39.6731 29.0449 39.674 29.0445 39.675 29.044C39.677 29.0431 39.6794 29.042 39.6822 29.0406C39.6878 29.0379 39.695 29.0345 39.7037 29.0302C39.7211 29.0216 39.7445 29.0098 39.7733 28.9948C39.8307 28.9649 39.9096 28.9218 40.0038 28.8657C40.1912 28.754 40.4444 28.5874 40.7107 28.365C41.2316 27.9302 41.87 27.2252 42.0824 26.2413L40.6456 25.9312ZM39.0299 27.7233C38.7735 27.8524 38.5459 28.0318 38.3594 28.2499L39.4766 29.2052C39.538 29.1334 39.6111 29.0764 39.691 29.0362L39.0299 27.7233ZM38.3594 28.2499C38.173 28.468 38.0311 28.7207 37.9408 28.9929L39.3359 29.4558C39.367 29.362 39.4152 29.277 39.4766 29.2052L38.3594 28.2499ZM37.9408 28.9929C37.8504 29.2652 37.8131 29.5525 37.8306 29.8388L39.2978 29.7495C39.2917 29.6495 39.3048 29.5496 39.3359 29.4558L37.9408 28.9929ZM37.8306 29.8388C37.848 30.1251 37.9199 30.4058 38.0429 30.665L39.3708 30.0347C39.3289 29.9464 39.3038 29.8494 39.2978 29.7495L37.8306 29.8388ZM38.0418 30.6626C38.1639 30.9222 38.3351 31.156 38.5468 31.3497L39.5393 30.2655C39.4708 30.2028 39.4135 30.1254 39.3719 30.037L38.0418 30.6626ZM38.5468 31.3497C38.7585 31.5435 39.0065 31.6934 39.2772 31.7896L39.7692 30.4044C39.686 30.3749 39.6077 30.3281 39.5393 30.2655L38.5468 31.3497ZM39.2772 31.7896C39.5479 31.8857 39.835 31.9258 40.1217 31.9071L40.0261 30.4403C39.9394 30.446 39.8523 30.434 39.7692 30.4044L39.2772 31.7896ZM40.1217 31.9071C40.4084 31.8885 40.6878 31.8114 40.9438 31.6813L40.2779 30.3709C40.1982 30.4114 40.1127 30.4347 40.0261 30.4403L40.1217 31.9071ZM40.6109 31.0261C40.9512 31.6775 40.9514 31.6774 40.9516 31.6773C40.9517 31.6772 40.952 31.6771 40.9522 31.677C40.9525 31.6768 40.9529 31.6766 40.9534 31.6764C40.9543 31.6759 40.9554 31.6753 40.9567 31.6746C40.9592 31.6733 40.9625 31.6716 40.9664 31.6694C40.9743 31.6652 40.9849 31.6595 40.9981 31.6522C41.0246 31.6377 41.0614 31.617 41.1072 31.5904C41.1989 31.5371 41.3271 31.4595 41.4813 31.3581C41.7889 31.1559 42.2046 30.8559 42.6414 30.4617C43.5047 29.6826 44.509 28.4821 44.8532 26.8882L43.4164 26.578C43.1637 27.7481 42.4061 28.6941 41.6566 29.3705C41.2871 29.704 40.9337 29.959 40.6738 30.1299C40.5443 30.215 40.4392 30.2785 40.3685 30.3196C40.3331 30.3402 40.3064 30.3551 40.2897 30.3643C40.2813 30.3689 40.2754 30.3721 40.2722 30.3738C40.2706 30.3747 40.2696 30.3752 40.2693 30.3753C40.2692 30.3754 40.2692 30.3754 40.2695 30.3753C40.2696 30.3752 40.2697 30.3751 40.2699 30.375C40.27 30.375 40.2702 30.3749 40.2702 30.3749C40.2704 30.3748 40.2706 30.3747 40.6109 31.0261ZM44.8529 26.8893C45.3058 24.807 44.7155 22.1246 41.3939 19.2118L40.4247 20.317C43.4404 22.9615 43.7311 25.1308 43.4166 26.577L44.8529 26.8893ZM41.3936 19.2116C39.4792 17.5344 39.1921 16.4985 39.3391 15.8366L37.9041 15.518C37.568 17.0319 38.446 18.5835 40.425 20.3172L41.3936 19.2116ZM39.34 15.8323C39.4547 15.3012 39.8151 14.8631 40.2093 14.5346C40.4009 14.375 40.5851 14.2542 40.7206 14.174C40.7878 14.1341 40.8417 14.1051 40.8767 14.087C40.8942 14.0779 40.9068 14.0717 40.914 14.0682C40.9175 14.0664 40.9197 14.0654 40.9204 14.0651C40.9207 14.0649 40.9207 14.0649 40.9203 14.0651C40.9201 14.0652 40.9198 14.0653 40.9194 14.0655C40.9192 14.0656 40.919 14.0657 40.9188 14.0658C40.9186 14.0659 40.9184 14.066 40.9184 14.066C40.9182 14.0661 40.918 14.0662 40.6109 13.3985C40.3038 12.7307 40.3036 12.7308 40.3034 12.7309C40.3033 12.731 40.303 12.7311 40.3029 12.7312C40.3025 12.7313 40.3021 12.7315 40.3018 12.7317C40.301 12.7321 40.3001 12.7325 40.2991 12.7329C40.297 12.7339 40.2946 12.735 40.2918 12.7363C40.2862 12.739 40.279 12.7424 40.2703 12.7467C40.253 12.7551 40.2296 12.7668 40.201 12.7816C40.1438 12.8112 40.0652 12.8537 39.9715 12.9092C39.785 13.0197 39.5332 13.1846 39.2683 13.4054C38.7495 13.8377 38.1154 14.5391 37.9032 15.5222L39.34 15.8323ZM40.9414 14.0549C41.1979 13.9258 41.4255 13.7464 41.612 13.5283L40.4947 12.573C40.4334 12.6448 40.3603 12.7018 40.2804 12.742L40.9414 14.0549ZM41.612 13.5283C41.7984 13.3102 41.9403 13.0576 42.0306 12.7853L40.6355 12.3224C40.6044 12.4162 40.5561 12.5012 40.4947 12.573L41.612 13.5283ZM42.0306 12.7853C42.1209 12.5131 42.1582 12.2257 42.1408 11.9394L40.6736 12.0287C40.6797 12.1287 40.6666 12.2286 40.6355 12.3224L42.0306 12.7853ZM42.1408 11.9394C42.1234 11.6531 42.0515 11.3724 41.9285 11.1133L40.6006 11.7436C40.6425 11.8318 40.6675 11.9288 40.6736 12.0287L42.1408 11.9394ZM41.9296 11.1156C41.8075 10.856 41.6363 10.6222 41.4246 10.4285L40.4321 11.5127C40.5006 11.5754 40.5579 11.6528 40.5994 11.7412L41.9296 11.1156ZM41.4246 10.4285C41.2129 10.2347 40.9648 10.0848 40.6942 9.98865L40.2022 11.3738C40.2854 11.4033 40.3637 11.4501 40.4321 11.5127L41.4246 10.4285ZM40.6942 9.98865C40.4235 9.8925 40.1364 9.85238 39.8497 9.87107L39.9453 11.3379C40.0319 11.3322 40.1191 11.3443 40.2022 11.3738L40.6942 9.98865ZM39.8497 9.87107C39.563 9.88976 39.2836 9.9668 39.0275 10.0969L39.6934 11.4073C39.7732 11.3668 39.8587 11.3435 39.9453 11.3379L39.8497 9.87107ZM39.889 11.2629L39.9032 11.2482L38.8462 10.2267L38.832 10.2414L39.889 11.2629ZM47.9144 13.7219C47.5388 13.0902 47.5386 13.0903 47.5383 13.0905C47.5383 13.0905 47.538 13.0906 47.5378 13.0908C47.5375 13.091 47.5371 13.0912 47.5367 13.0914C47.5359 13.0919 47.535 13.0925 47.5339 13.0931C47.5318 13.0944 47.5292 13.0959 47.5262 13.0978C47.5202 13.1014 47.5124 13.1063 47.5029 13.1122C47.4838 13.1242 47.458 13.1407 47.4262 13.1617C47.3626 13.2038 47.275 13.2642 47.1702 13.3426C46.9613 13.499 46.6807 13.7298 46.3859 14.0327C45.802 14.6328 45.1265 15.5539 44.8909 16.7728L46.3341 17.0517C46.4964 16.2123 46.9719 15.5382 47.4394 15.0578C47.6704 14.8204 47.8906 14.6395 48.0512 14.5193C48.1311 14.4594 48.1953 14.4153 48.2375 14.3874C48.2585 14.3735 48.274 14.3637 48.283 14.358C48.2875 14.3552 48.2904 14.3534 48.2916 14.3527C48.2922 14.3523 48.2924 14.3522 48.2921 14.3524C48.292 14.3524 48.2918 14.3526 48.2914 14.3528C48.2912 14.3529 48.291 14.353 48.2908 14.3532C48.2907 14.3532 48.2905 14.3534 48.2904 14.3534C48.2902 14.3535 48.29 14.3536 47.9144 13.7219ZM44.8903 16.7758C44.5992 18.3172 44.9388 20.2752 47.0789 22.442L48.1247 21.4091C46.2862 19.5476 46.1427 18.0654 46.3347 17.0486L44.8903 16.7758ZM47.0809 22.4441C48.0265 23.3941 48.118 23.9067 48.072 24.1625L49.5187 24.4227C49.7001 23.4142 49.1379 22.4271 48.1227 21.4071L47.0809 22.4441ZM48.0723 24.1608C48.0386 24.3459 47.9259 24.5135 47.7822 24.6533C47.7135 24.7201 47.6472 24.771 47.5998 24.8041C47.5764 24.8203 47.5588 24.8315 47.5491 24.8375C47.5442 24.8404 47.5415 24.842 47.5412 24.8422C47.541 24.8423 47.5414 24.842 47.5425 24.8414C47.543 24.8411 47.5437 24.8408 47.5446 24.8403C47.545 24.84 47.5455 24.8398 47.546 24.8395C47.5463 24.8393 47.5465 24.8392 47.5468 24.839C47.547 24.839 47.5472 24.8388 47.5472 24.8388C47.5475 24.8387 47.5477 24.8386 47.9002 25.4835C48.2527 26.1284 48.2529 26.1282 48.2532 26.1281C48.2533 26.1281 48.2535 26.1279 48.2537 26.1278C48.254 26.1277 48.2543 26.1275 48.2547 26.1273C48.2554 26.1269 48.2561 26.1265 48.2569 26.1261C48.2585 26.1252 48.2603 26.1242 48.2622 26.1231C48.2662 26.1209 48.2709 26.1182 48.2762 26.1151C48.287 26.1089 48.3006 26.1009 48.3166 26.0911C48.3487 26.0714 48.3909 26.0444 48.4404 26.0099C48.5386 25.9414 48.6695 25.8407 48.8068 25.7072C49.0751 25.4463 49.4101 25.0185 49.5184 24.4245L48.0723 24.1608ZM47.4954 24.87C47.03 25.1772 46.7022 25.6526 46.5714 26.1936L48.0002 26.539C48.0457 26.3506 48.1577 26.1941 48.305 26.0969L47.4954 24.87ZM46.5714 26.1936C46.4407 26.7344 46.5146 27.3071 46.7807 27.7959L48.0717 27.0931C47.9811 26.9267 47.9546 26.7278 48.0002 26.539L46.5714 26.1936ZM46.7807 27.7959C47.0471 28.2853 47.4887 28.6574 48.0206 28.8276L48.4685 27.4276C48.3061 27.3756 48.162 27.2589 48.0717 27.0931L46.7807 27.7959ZM48.0206 28.8276C48.5532 28.998 49.1288 28.9503 49.6267 28.6963L48.9587 27.3869C48.8048 27.4655 48.6302 27.4793 48.4685 27.4276L48.0206 28.8276ZM49.2927 28.0416C49.6683 28.6733 49.6685 28.6732 49.6688 28.6731C49.6689 28.673 49.6691 28.6729 49.6693 28.6728C49.6696 28.6725 49.67 28.6723 49.6704 28.6721C49.6712 28.6716 49.6722 28.671 49.6732 28.6704C49.6754 28.6691 49.6779 28.6675 49.681 28.6657C49.687 28.662 49.6949 28.6572 49.7044 28.6512C49.7235 28.6392 49.7494 28.6226 49.7813 28.6015C49.8449 28.5593 49.9327 28.4988 50.0375 28.4201C50.2464 28.2632 50.527 28.0316 50.8211 27.7272C51.4042 27.1239 52.0759 26.1977 52.3031 24.9703L50.8577 24.7028C50.7012 25.5484 50.229 26.2247 49.7642 26.7057C49.5344 26.9435 49.315 27.1244 49.1549 27.2446C49.0752 27.3044 49.0112 27.3485 48.9692 27.3763C48.9483 27.3902 48.9329 27.4 48.9239 27.4056C48.9194 27.4084 48.9165 27.4102 48.9154 27.4109C48.9148 27.4113 48.9146 27.4113 48.9149 27.4112C48.9151 27.4111 48.9153 27.4109 48.9157 27.4107C48.9159 27.4106 48.9161 27.4105 48.9163 27.4103C48.9164 27.4103 48.9166 27.4102 48.9167 27.4101C48.9169 27.41 48.9171 27.4099 49.2927 28.0416ZM52.3026 24.973C52.5937 23.4316 52.2541 21.4736 50.114 19.3068L49.0682 20.3397C50.9067 22.2012 51.0502 23.6834 50.8582 24.7002L52.3026 24.973ZM50.1158 19.3086C49.1723 18.3468 49.0773 17.838 49.1203 17.604L47.6747 17.3378C47.4904 18.3388 48.0774 19.3296 49.0664 20.3379L50.1158 19.3086ZM49.1206 17.6028C49.1543 17.4176 49.267 17.25 49.4107 17.1102C49.4794 17.0434 49.5457 16.9925 49.5931 16.9595C49.6165 16.9432 49.6341 16.932 49.6438 16.9261C49.6487 16.9231 49.6514 16.9215 49.6517 16.9213C49.6519 16.9212 49.6515 16.9215 49.6504 16.9221C49.6499 16.9224 49.6492 16.9228 49.6483 16.9232C49.6479 16.9235 49.6474 16.9237 49.6469 16.924C49.6466 16.9242 49.6464 16.9243 49.6461 16.9245C49.646 16.9245 49.6457 16.9247 49.6457 16.9247C49.6454 16.9248 49.6452 16.925 49.2927 16.2801C48.9402 15.6352 48.94 15.6353 48.9397 15.6354C48.9396 15.6354 48.9394 15.6356 48.9392 15.6357C48.9389 15.6358 48.9386 15.636 48.9382 15.6362C48.9375 15.6366 48.9368 15.637 48.936 15.6375C48.9344 15.6383 48.9326 15.6393 48.9307 15.6404C48.9267 15.6426 48.922 15.6453 48.9167 15.6484C48.9059 15.6546 48.8923 15.6626 48.8763 15.6725C48.8442 15.6921 48.802 15.7191 48.7525 15.7536C48.6543 15.8221 48.5234 15.9228 48.3861 16.0563C48.1178 16.3172 47.7828 16.745 47.6745 17.3391L49.1206 17.6028ZM49.6624 16.9153C50.6988 16.312 51.0418 14.9784 50.498 13.9397L49.1957 14.6215C49.3908 14.9941 49.2506 15.4542 48.923 15.6448L49.6624 16.9153ZM50.4926 13.9296C49.9166 12.8702 48.6006 12.4801 47.5551 13.0661L48.2737 14.3483C48.5923 14.1698 49.0098 14.2796 49.2012 14.6316L50.4926 13.9296ZM47.1795 13.7072V13.7219H48.6494V13.7072H47.1795ZM30.6076 13.7366C30.2272 13.1078 30.227 13.1079 30.2268 13.108C30.2267 13.1081 30.2264 13.1082 30.2263 13.1084C30.2259 13.1086 30.2255 13.1088 30.2251 13.1091C30.2243 13.1096 30.2233 13.1101 30.2223 13.1108C30.2202 13.1121 30.2176 13.1137 30.2146 13.1155C30.2086 13.1192 30.2009 13.1241 30.1915 13.1301C30.1727 13.1421 30.1473 13.1586 30.1162 13.1796C30.0539 13.2217 29.9683 13.2819 29.8662 13.3602C29.6625 13.5164 29.3893 13.7468 29.1033 14.0501C28.5354 14.652 27.8855 15.5743 27.6674 16.798L29.1146 17.0559C29.2659 16.2066 29.7244 15.5337 30.1725 15.0588C30.3944 14.8235 30.6061 14.6451 30.7603 14.5269C30.8371 14.4681 30.8987 14.4249 30.9389 14.3977C30.959 14.3842 30.9736 14.3747 30.9821 14.3693C30.9863 14.3666 30.989 14.3649 30.99 14.3642C30.9906 14.3639 30.9906 14.3639 30.9903 14.3641C30.9901 14.3642 30.9899 14.3644 30.9895 14.3646C30.9893 14.3647 30.9891 14.3648 30.9888 14.365C30.9887 14.3651 30.9885 14.3652 30.9885 14.3652C30.9882 14.3653 30.988 14.3655 30.6076 13.7366ZM27.6676 16.7969C27.395 18.3132 27.7269 20.2649 29.777 22.4177L30.8415 21.4041C29.0835 19.5579 28.9323 18.0694 29.1144 17.057L27.6676 16.7969ZM29.7732 22.4137C30.6805 23.3809 30.7848 23.9106 30.7368 24.1772L32.1835 24.4374C32.3629 23.4396 31.8136 22.4403 30.8453 21.4081L29.7732 22.4137ZM30.7371 24.1755C30.7011 24.3731 30.5883 24.5446 30.4545 24.6818C30.3899 24.748 30.3282 24.7981 30.2846 24.8302C30.2631 24.846 30.2471 24.8568 30.2385 24.8623C30.2343 24.8651 30.2321 24.8664 30.232 24.8664C30.232 24.8665 30.2326 24.8661 30.2338 24.8654C30.2344 24.8651 30.2351 24.8646 30.236 24.8641C30.2364 24.8638 30.2369 24.8635 30.2375 24.8632C30.2377 24.8631 30.238 24.8629 30.2383 24.8628C30.2384 24.8627 30.2386 24.8625 30.2387 24.8625C30.2389 24.8624 30.2392 24.8622 30.6076 25.4982C30.9761 26.1341 30.9763 26.134 30.9766 26.1338C30.9766 26.1338 30.9769 26.1336 30.977 26.1335C30.9774 26.1333 30.9777 26.1332 30.9781 26.1329C30.9788 26.1325 30.9795 26.1321 30.9803 26.1316C30.9819 26.1307 30.9836 26.1297 30.9856 26.1285C30.9894 26.1262 30.994 26.1235 30.9992 26.1203C31.0097 26.1139 31.0229 26.1056 31.0383 26.0956C31.0692 26.0756 31.1098 26.0481 31.1571 26.0131C31.2512 25.9437 31.376 25.8422 31.5068 25.7081C31.7637 25.4447 32.0772 25.0207 32.1832 24.4392L30.7371 24.1755ZM30.2279 24.8689C29.1955 25.492 28.8687 26.8317 29.4559 27.8733L30.7363 27.1514C30.5278 26.7816 30.6557 26.3276 30.9874 26.1274L30.2279 24.8689ZM29.4559 27.8733C30.0516 28.93 31.3759 29.3025 32.4225 28.6708L31.663 27.4124C31.3455 27.604 30.9363 27.5061 30.7363 27.1514L29.4559 27.8733ZM32.0428 28.0416C32.4268 28.6682 32.427 28.6681 32.4273 28.668C32.4273 28.6679 32.4276 28.6678 32.4278 28.6676C32.4281 28.6674 32.4285 28.6672 32.4289 28.6669C32.4297 28.6664 32.4307 28.6659 32.4317 28.6652C32.4338 28.6639 32.4364 28.6623 32.4393 28.6604C32.4453 28.6567 32.453 28.6518 32.4624 28.6457C32.4811 28.6337 32.5064 28.617 32.5375 28.5957C32.5996 28.5533 32.685 28.4925 32.787 28.4135C32.9904 28.2561 33.2632 28.0239 33.5488 27.719C34.1158 27.114 34.765 26.1885 34.9829 24.9655L33.5358 24.7076C33.3844 25.5576 32.9253 26.2347 32.4762 26.7139C32.2539 26.9512 32.0418 27.1316 31.8873 27.2512C31.8103 27.3107 31.7486 27.3545 31.7082 27.3821C31.6881 27.3958 31.6733 27.4055 31.6648 27.411C31.6605 27.4138 31.6578 27.4155 31.6568 27.4161C31.6563 27.4165 31.6562 27.4165 31.6565 27.4163C31.6566 27.4162 31.6569 27.4161 31.6573 27.4159C31.6575 27.4157 31.6577 27.4156 31.6579 27.4155C31.658 27.4154 31.6582 27.4153 31.6583 27.4152C31.6585 27.4151 31.6587 27.415 32.0428 28.0416ZM34.9827 24.9666C35.2554 23.4503 34.9235 21.4986 32.8734 19.3458L31.8089 20.3595C33.5669 22.2056 33.7181 23.6941 33.536 24.7065L34.9827 24.9666ZM32.8772 19.3498C31.9669 18.3794 31.8674 17.852 31.913 17.604L30.4674 17.3378C30.2857 18.3248 30.8398 19.3264 31.8051 20.3554L32.8772 19.3498ZM31.9132 17.6028C31.9493 17.4051 32.0621 17.2336 32.1959 17.0964C32.2605 17.0302 32.3222 16.9801 32.3658 16.948C32.3873 16.9322 32.4033 16.9214 32.4118 16.9159C32.4161 16.9132 32.4183 16.9118 32.4183 16.9118C32.4184 16.9118 32.4178 16.9121 32.4166 16.9128C32.416 16.9132 32.4153 16.9136 32.4144 16.9141C32.4139 16.9144 32.4135 16.9147 32.4129 16.915C32.4127 16.9151 32.4124 16.9153 32.4121 16.9155C32.412 16.9155 32.4117 16.9157 32.4117 16.9157C32.4114 16.9158 32.4112 16.916 32.0428 16.2801C31.6743 15.6441 31.6741 15.6443 31.6738 15.6444C31.6737 15.6444 31.6735 15.6446 31.6733 15.6447C31.673 15.6449 31.6727 15.6451 31.6723 15.6453C31.6716 15.6457 31.6709 15.6461 31.6701 15.6466C31.6685 15.6475 31.6668 15.6485 31.6648 15.6497C31.6609 15.652 31.6564 15.6548 31.6511 15.658C31.6407 15.6644 31.6275 15.6726 31.6121 15.6826C31.5812 15.7027 31.5406 15.7301 31.4933 15.7651C31.3992 15.8345 31.2744 15.936 31.1436 16.0701C30.8867 16.3336 30.5732 16.7575 30.4672 17.3391L31.9132 17.6028ZM32.4225 16.9093C33.4549 16.2862 33.7817 14.9465 33.1945 13.9049L31.9141 14.6268C32.1226 14.9966 31.9947 15.4506 31.663 15.6508L32.4225 16.9093ZM33.1957 13.907C33.0554 13.6564 32.8677 13.4353 32.6422 13.2573L31.7317 14.4113C31.8037 14.4681 31.8657 14.5403 31.9129 14.6248L33.1957 13.907ZM32.6422 13.2573C32.4166 13.0793 32.1577 12.9482 31.8803 12.8727L31.4946 14.2912C31.5791 14.3141 31.6597 14.3545 31.7317 14.4113L32.6422 13.2573ZM31.8803 12.8727C31.6028 12.7973 31.3131 12.7793 31.0284 12.8201L31.2368 14.2752C31.3227 14.2629 31.4102 14.2682 31.4946 14.2912L31.8803 12.8727ZM31.0284 12.8201C30.7437 12.8609 30.4708 12.9594 30.2253 13.1089L30.99 14.3643C31.0669 14.3174 31.1508 14.2875 31.2368 14.2752L31.0284 12.8201Z" fill="#78B9F4" mask="url(#path-2-inside-1_474_527)"/>
</svg>
