<svg width="185" height="37" viewBox="0 0 185 37" fill="none" xmlns="http://www.w3.org/2000/svg">
<path d="M18.055 3.84642C18.4484 2.63573 20.1612 2.63573 20.5545 3.84641L23.1402 11.8042C23.3161 12.3456 23.8206 12.7122 24.3899 12.7122H32.7573C34.0303 12.7122 34.5595 14.3412 33.5297 15.0894L26.7604 20.0076C26.2998 20.3422 26.1071 20.9354 26.283 21.4768L28.8686 29.4346C29.262 30.6453 27.8763 31.652 26.8465 30.9038L20.0772 25.9856C19.6166 25.651 18.9929 25.651 18.5324 25.9856L11.7631 30.9038C10.7332 31.652 9.3475 30.6453 9.74088 29.4346L12.3265 21.4768C12.5024 20.9354 12.3097 20.3422 11.8491 20.0076L5.07985 15.0894C4.04998 14.3412 4.57926 12.7122 5.85226 12.7122H14.2196C14.7889 12.7122 15.2934 12.3456 15.4693 11.8042L18.055 3.84642Z" fill="#78B9F4"/>
<path d="M54.8497 3.84642C55.243 2.63573 56.9558 2.63573 57.3492 3.84641L59.9348 11.8042C60.1108 12.3456 60.6153 12.7122 61.1846 12.7122H69.5519C70.8249 12.7122 71.3542 14.3412 70.3243 15.0894L63.555 20.0076C63.0945 20.3422 62.9017 20.9354 63.0777 21.4768L65.6633 29.4346C66.0567 30.6453 64.671 31.652 63.6411 30.9038L56.8718 25.9856C56.4113 25.651 55.7876 25.651 55.327 25.9856L48.5577 30.9038C47.5279 31.652 46.1422 30.6453 46.5356 29.4346L49.1212 21.4768C49.2971 20.9354 49.1044 20.3422 48.6438 20.0076L41.8745 15.0894C40.8447 14.3412 41.3739 12.7122 42.6469 12.7122H51.0142C51.5835 12.7122 52.0881 12.3456 52.264 11.8042L54.8497 3.84642Z" fill="#78B9F4"/>
<path d="M91.6441 3.84642C92.0375 2.63573 93.7503 2.63573 94.1436 3.84641L96.7293 11.8042C96.9052 12.3456 97.4098 12.7122 97.9791 12.7122H106.346C107.619 12.7122 108.149 14.3412 107.119 15.0894L100.349 20.0076C99.8889 20.3422 99.6962 20.9354 99.8721 21.4768L102.458 29.4346C102.851 30.6453 101.465 31.652 100.436 30.9038L93.6663 25.9856C93.2057 25.651 92.582 25.651 92.1215 25.9856L85.3522 30.9038C84.3223 31.652 82.9366 30.6453 83.33 29.4346L85.9156 21.4768C86.0916 20.9354 85.8988 20.3422 85.4383 20.0076L78.669 15.0894C77.6391 14.3412 78.1684 12.7122 79.4414 12.7122H87.8087C88.378 12.7122 88.8825 12.3456 89.0584 11.8042L91.6441 3.84642Z" fill="#78B9F4"/>
<path d="M128.439 3.84642C128.832 2.63573 130.545 2.63573 130.938 3.84641L133.524 11.8042C133.7 12.3456 134.204 12.7122 134.774 12.7122H143.141C144.414 12.7122 144.943 14.3412 143.913 15.0894L137.144 20.0076C136.684 20.3422 136.491 20.9354 136.667 21.4768L139.252 29.4346C139.646 30.6453 138.26 31.652 137.23 30.9038L130.461 25.9856C130 25.651 129.377 25.651 128.916 25.9856L122.147 30.9038C121.117 31.652 119.731 30.6453 120.125 29.4346L122.71 21.4768C122.886 20.9354 122.694 20.3422 122.233 20.0076L115.464 15.0894C114.434 14.3412 114.963 12.7122 116.236 12.7122H124.603C125.173 12.7122 125.677 12.3456 125.853 11.8042L128.439 3.84642Z" fill="#78B9F4"/>
<path d="M165.233 3.84642C165.627 2.63573 167.339 2.63573 167.733 3.84641L170.318 11.8042C170.494 12.3456 170.999 12.7122 171.568 12.7122H179.935C181.208 12.7122 181.738 14.3412 180.708 15.0894L173.939 20.0076C173.478 20.3422 173.285 20.9354 173.461 21.4768L176.047 29.4346C176.44 30.6453 175.055 31.652 174.025 30.9038L167.255 25.9856C166.795 25.651 166.171 25.651 165.711 25.9856L158.941 30.9038C157.911 31.652 156.526 30.6453 156.919 29.4346L159.505 21.4768C159.681 20.9354 159.488 20.3422 159.027 20.0076L152.258 15.0894C151.228 14.3412 151.757 12.7122 153.03 12.7122H161.398C161.967 12.7122 162.472 12.3456 162.648 11.8042L165.233 3.84642Z" fill="#78B9F4"/>
</svg>
