<svg width="215" height="261" viewBox="0 0 215 261" fill="none" xmlns="http://www.w3.org/2000/svg">
<rect width="214.045" height="274" transform="translate(0.477539)" fill="white"/>
<rect x="22.4775" y="18" width="169" height="142" fill="#0047BB"/>
<path d="M19.609 195.504V180.958H24.5238C25.6649 180.958 26.5977 181.164 27.3221 181.576C28.0513 181.984 28.591 182.535 28.9414 183.231C29.2918 183.927 29.467 184.704 29.467 185.561C29.467 186.418 29.2918 187.197 28.9414 187.897C28.5958 188.598 28.0607 189.157 27.3363 189.574C26.6119 189.985 25.6838 190.191 24.5522 190.191H21.0295V188.629H24.4954C25.2766 188.629 25.904 188.494 26.3775 188.224C26.851 187.954 27.1942 187.59 27.4073 187.13C27.6251 186.666 27.734 186.143 27.734 185.561C27.734 184.978 27.6251 184.458 27.4073 183.998C27.1942 183.539 26.8486 183.179 26.3704 182.919C25.8922 182.654 25.2577 182.521 24.467 182.521H21.3704V195.504H19.609ZM31.4165 195.504H29.57L34.9109 180.958H36.729L42.07 195.504H40.2234L35.8768 183.26H35.7631L31.4165 195.504ZM32.0984 189.822H39.5415V191.385H32.0984V189.822ZM55.8697 180.958V195.504H54.1651L46.239 184.083H46.0969V195.504H44.3356V180.958H46.0401L53.9947 192.407H54.1367V180.958H55.8697ZM58.5987 182.521V180.958H69.5078V182.521H64.9339V195.504H63.1726V182.521H58.5987ZM83.8935 188.231C83.8935 189.765 83.6165 191.091 83.0625 192.208C82.5085 193.326 81.7486 194.188 80.7827 194.794C79.8168 195.4 78.7135 195.703 77.473 195.703C76.2325 195.703 75.1293 195.4 74.1634 194.794C73.1974 194.188 72.4375 193.326 71.8835 192.208C71.3295 191.091 71.0526 189.765 71.0526 188.231C71.0526 186.697 71.3295 185.371 71.8835 184.254C72.4375 183.136 73.1974 182.275 74.1634 181.669C75.1293 181.063 76.2325 180.76 77.473 180.76C78.7135 180.76 79.8168 181.063 80.7827 181.669C81.7486 182.275 82.5085 183.136 83.0625 184.254C83.6165 185.371 83.8935 186.697 83.8935 188.231ZM82.1889 188.231C82.1889 186.972 81.9782 185.909 81.5568 185.042C81.1402 184.176 80.5743 183.52 79.8594 183.075C79.1491 182.63 78.3537 182.407 77.473 182.407C76.5923 182.407 75.7945 182.63 75.0795 183.075C74.3693 183.52 73.8035 184.176 73.3821 185.042C72.9654 185.909 72.7571 186.972 72.7571 188.231C72.7571 189.491 72.9654 190.554 73.3821 191.42C73.8035 192.287 74.3693 192.942 75.0795 193.387C75.7945 193.833 76.5923 194.055 77.473 194.055C78.3537 194.055 79.1491 193.833 79.8594 193.387C80.5743 192.942 81.1402 192.287 81.5568 191.42C81.9782 190.554 82.1889 189.491 82.1889 188.231ZM98.3892 180.958V195.504H96.6847L88.7585 184.083H88.6165V195.504H86.8551V180.958H88.5597L96.5142 192.407H96.6562V180.958H98.3892ZM101.914 195.504V180.958H110.692V182.521H103.675V187.436H110.238V188.998H103.675V193.941H110.806V195.504H101.914Z" fill="#01003F"/>
<path d="M19.3533 225.434V224.155L24.1545 218.9C24.7179 218.284 25.1819 217.749 25.5465 217.294C25.9111 216.835 26.181 216.404 26.3562 216.002C26.5361 215.595 26.6261 215.168 26.6261 214.723C26.6261 214.212 26.503 213.769 26.2567 213.395C26.0153 213.021 25.6838 212.732 25.2624 212.529C24.841 212.325 24.3675 212.223 23.842 212.223C23.2833 212.223 22.7956 212.339 22.3789 212.571C21.967 212.799 21.6474 213.118 21.4201 213.53C21.1976 213.942 21.0863 214.425 21.0863 214.979H19.4102C19.4102 214.127 19.6067 213.379 19.9996 212.735C20.3926 212.091 20.9277 211.589 21.6048 211.229C22.2866 210.869 23.0513 210.689 23.8988 210.689C24.7511 210.689 25.5063 210.869 26.1644 211.229C26.8226 211.589 27.3387 212.074 27.7127 212.685C28.0868 213.296 28.2738 213.975 28.2738 214.723C28.2738 215.258 28.1767 215.782 27.9826 216.293C27.7932 216.8 27.4618 217.365 26.9883 217.99C26.5195 218.611 25.8685 219.368 25.0352 220.263L21.7681 223.757V223.871H28.5295V225.434H19.3533ZM31.9173 225.434L38.4229 212.564V212.451H30.9229V210.888H40.2411V212.536L33.7638 225.434H31.9173ZM42.8885 225.434V224.155L47.6896 218.9C48.2531 218.284 48.7171 217.749 49.0817 217.294C49.4463 216.835 49.7161 216.404 49.8913 216.002C50.0713 215.595 50.1612 215.168 50.1612 214.723C50.1612 214.212 50.0381 213.769 49.7919 213.395C49.5504 213.021 49.219 212.732 48.7976 212.529C48.3762 212.325 47.9027 212.223 47.3771 212.223C46.8184 212.223 46.3307 212.339 45.9141 212.571C45.5021 212.799 45.1825 213.118 44.9553 213.53C44.7327 213.942 44.6214 214.425 44.6214 214.979H42.9453C42.9453 214.127 43.1418 213.379 43.5348 212.735C43.9278 212.091 44.4628 211.589 45.1399 211.229C45.8217 210.869 46.5864 210.689 47.4339 210.689C48.2862 210.689 49.0414 210.869 49.6996 211.229C50.3577 211.589 50.8738 212.074 51.2479 212.685C51.6219 213.296 51.8089 213.975 51.8089 214.723C51.8089 215.258 51.7119 215.782 51.5178 216.293C51.3284 216.8 50.9969 217.365 50.5234 217.99C50.0547 218.611 49.4036 219.368 48.5703 220.263L45.3033 223.757V223.871H52.0646V225.434H42.8885ZM59.657 225.632C58.6816 225.632 57.8198 225.46 57.0717 225.114C56.3284 224.764 55.7483 224.283 55.3317 223.672C54.915 223.057 54.709 222.356 54.7138 221.57C54.709 220.954 54.8298 220.386 55.076 219.865C55.3222 219.34 55.6584 218.902 56.0845 218.551C56.5154 218.196 56.996 217.971 57.5263 217.877V217.792C56.8303 217.612 56.2763 217.221 55.8643 216.62C55.4524 216.014 55.2488 215.325 55.2536 214.553C55.2488 213.814 55.4358 213.154 55.8146 212.571C56.1934 211.989 56.7143 211.53 57.3771 211.194C58.0447 210.857 58.8047 210.689 59.657 210.689C60.4998 210.689 61.2526 210.857 61.9155 211.194C62.5784 211.53 63.0992 211.989 63.478 212.571C63.8615 213.154 64.0556 213.814 64.0604 214.553C64.0556 215.325 63.8449 216.014 63.4283 216.62C63.0163 217.221 62.4695 217.612 61.7876 217.792V217.877C62.3132 217.971 62.7867 218.196 63.2081 218.551C63.6295 218.902 63.9657 219.34 64.2166 219.865C64.4676 220.386 64.5954 220.954 64.6001 221.57C64.5954 222.356 64.3823 223.057 63.9609 223.672C63.5443 224.283 62.9643 224.764 62.2209 225.114C61.4822 225.46 60.6276 225.632 59.657 225.632ZM59.657 224.07C60.3151 224.07 60.8833 223.963 61.3615 223.75C61.8397 223.537 62.209 223.237 62.4695 222.848C62.7299 222.46 62.8625 222.006 62.8672 221.485C62.8625 220.935 62.7204 220.45 62.4411 220.029C62.1617 219.607 61.7805 219.276 61.2976 219.034C60.8194 218.793 60.2725 218.672 59.657 218.672C59.0367 218.672 58.4827 218.793 57.995 219.034C57.5121 219.276 57.1309 219.607 56.8516 220.029C56.5769 220.45 56.442 220.935 56.4467 221.485C56.442 222.006 56.5675 222.46 56.8232 222.848C57.0836 223.237 57.4553 223.537 57.9382 223.75C58.4212 223.963 58.9941 224.07 59.657 224.07ZM59.657 217.167C60.1778 217.167 60.6394 217.062 61.0419 216.854C61.4491 216.646 61.7687 216.355 62.0007 215.98C62.2327 215.606 62.3511 215.168 62.3558 214.667C62.3511 214.174 62.2351 213.746 62.0078 213.381C61.7805 213.012 61.4657 212.728 61.0632 212.529C60.6607 212.325 60.192 212.223 59.657 212.223C59.1125 212.223 58.6366 212.325 58.2294 212.529C57.8222 212.728 57.5073 213.012 57.2848 213.381C57.0623 213.746 56.9534 214.174 56.9581 214.667C56.9534 215.168 57.0646 215.606 57.2919 215.98C57.5239 216.355 57.8435 216.646 58.2507 216.854C58.6579 217.062 59.1267 217.167 59.657 217.167ZM84.9073 215.434H83.146C83.0418 214.927 82.8595 214.482 82.5991 214.098C82.3434 213.715 82.0309 213.393 81.6616 213.132C81.297 212.867 80.8922 212.668 80.4471 212.536C80.002 212.403 79.538 212.337 79.055 212.337C78.1744 212.337 77.3765 212.56 76.6616 213.005C75.9513 213.45 75.3855 214.105 74.9641 214.972C74.5475 215.838 74.3391 216.901 74.3391 218.161C74.3391 219.42 74.5475 220.483 74.9641 221.35C75.3855 222.216 75.9513 222.872 76.6616 223.317C77.3765 223.762 78.1744 223.985 79.055 223.985C79.538 223.985 80.002 223.918 80.4471 223.786C80.8922 223.653 81.297 223.457 81.6616 223.196C82.0309 222.931 82.3434 222.607 82.5991 222.223C82.8595 221.835 83.0418 221.39 83.146 220.888H84.9073C84.7747 221.632 84.5333 222.297 84.1829 222.884C83.8325 223.471 83.3969 223.971 82.8761 224.382C82.3552 224.79 81.7705 225.1 81.1218 225.313C80.4779 225.526 79.7889 225.632 79.055 225.632C77.8145 225.632 76.7113 225.329 75.7454 224.723C74.7795 224.117 74.0195 223.256 73.4656 222.138C72.9116 221.021 72.6346 219.695 72.6346 218.161C72.6346 216.627 72.9116 215.301 73.4656 214.184C74.0195 213.066 74.7795 212.204 75.7454 211.598C76.7113 210.992 77.8145 210.689 79.055 210.689C79.7889 210.689 80.4779 210.796 81.1218 211.009C81.7705 211.222 82.3552 211.534 82.8761 211.946C83.3969 212.354 83.8325 212.851 84.1829 213.438C84.5333 214.02 84.7747 214.685 84.9073 215.434Z" fill="#01003F"/>
</svg>
