<svg width="25" height="31" viewBox="0 0 25 31" fill="none" xmlns="http://www.w3.org/2000/svg">
<path d="M13.9161 29.1836V5.67127L21.9009 13.6561C22.0404 13.7987 22.2069 13.9123 22.3906 13.9901C22.5743 14.068 22.7716 14.1087 22.9711 14.1098C23.1706 14.1109 23.3684 14.0724 23.5529 13.9965C23.7375 13.9207 23.9051 13.809 24.0462 13.6679C24.1873 13.5268 24.299 13.3591 24.3748 13.1745C24.4506 12.99 24.4891 12.7922 24.488 12.5927C24.4868 12.3932 24.4461 12.1958 24.3682 12.0122C24.2903 11.8285 24.1767 11.6621 24.034 11.5226L13.4741 0.962681C13.1912 0.67987 12.8076 0.520996 12.4076 0.520996C12.0076 0.520996 11.6239 0.67987 11.341 0.962681L0.78112 11.5226C0.640766 11.6625 0.529459 11.8288 0.453603 12.0119C0.377747 12.195 0.338838 12.3913 0.339113 12.5895C0.339176 12.8878 0.427686 13.1794 0.593453 13.4275C0.75922 13.6755 0.994801 13.8688 1.27041 13.9829C1.54603 14.0971 1.8493 14.127 2.14189 14.0688C2.43448 14.0106 2.70325 13.867 2.91422 13.6561L10.899 5.67127V29.1836C10.899 29.5837 11.058 29.9674 11.3409 30.2504C11.6238 30.5333 12.0075 30.6922 12.4076 30.6922C12.8077 30.6922 13.1914 30.5333 13.4743 30.2504C13.7572 29.9674 13.9161 29.5837 13.9161 29.1836Z" fill="white"/>
</svg>
