<svg width="31" height="25" viewBox="0 0 31 25" fill="none" xmlns="http://www.w3.org/2000/svg">
<path d="M28.9835 10.5714L5.47107 10.5714L13.4559 2.58662C13.5985 2.44711 13.7121 2.28069 13.7899 2.09699C13.8678 1.91329 13.9085 1.71597 13.9096 1.51644C13.9107 1.31692 13.8722 1.11916 13.7963 0.934613C13.7205 0.750068 13.6088 0.582404 13.4677 0.44133C13.3266 0.300255 13.1589 0.188572 12.9743 0.112748C12.7898 0.0369248 12.592 -0.00153602 12.3925 -0.00040192C12.193 0.000732179 11.9956 0.0414381 11.812 0.119355C11.6283 0.197271 11.4619 0.310851 11.3224 0.453521L0.762485 11.0134C0.479675 11.2963 0.3208 11.68 0.3208 12.08C0.3208 12.48 0.479675 12.8636 0.762486 13.1465L11.3224 23.7064C11.4623 23.8468 11.6286 23.9581 11.8117 24.0339C11.9948 24.1098 12.1911 24.1487 12.3893 24.1484C12.6876 24.1484 12.9792 24.0599 13.2273 23.8941C13.4753 23.7283 13.6686 23.4927 13.7827 23.2171C13.8969 22.9415 13.9268 22.6383 13.8686 22.3457C13.8104 22.0531 13.6668 21.7843 13.4559 21.5733L5.47107 13.5885L28.9835 13.5885C29.3835 13.5885 29.7673 13.4296 30.0502 13.1467C30.3331 12.8638 30.492 12.4801 30.492 12.08C30.492 11.6799 30.3331 11.2962 30.0502 11.0133C29.7673 10.7304 29.3835 10.5714 28.9835 10.5714Z" fill="white"/>
</svg>
