<svg width="11" height="21" viewBox="0 0 11 21" fill="none" xmlns="http://www.w3.org/2000/svg">
<path fill-rule="evenodd" clip-rule="evenodd" d="M10.2027 20.2996C10.0132 20.4859 9.76175 20.5898 9.50036 20.5898C9.23898 20.5898 8.98757 20.4859 8.79803 20.2996L0.582088 12.0907C0.398178 11.9097 0.251737 11.692 0.15167 11.4506C0.0516024 11.2092 0 10.9493 0 10.6866C0 10.4239 0.0516024 10.164 0.15167 9.92265C0.251737 9.68127 0.398178 9.46349 0.582088 9.28254L8.85752 1.01304C9.2413 0.630604 9.86304 0.625637 10.2526 1.0031C10.3469 1.09303 10.4223 1.20207 10.4742 1.32345C10.5261 1.44483 10.5534 1.57596 10.5543 1.7087C10.5552 1.84144 10.5297 1.97295 10.4795 2.09507C10.4292 2.21719 10.3553 2.32732 10.2622 2.41861L2.68908 9.98483C2.59705 10.0753 2.52377 10.1842 2.47369 10.305C2.42361 10.4257 2.39779 10.5557 2.39779 10.6871C2.39779 10.8185 2.42361 10.9485 2.47369 11.0693C2.52377 11.19 2.59705 11.2989 2.68908 11.3894L10.2017 18.896C10.2937 18.9864 10.367 19.0953 10.4171 19.2159C10.4671 19.3366 10.493 19.4665 10.493 19.5978C10.493 19.7291 10.4671 19.8591 10.4171 19.9797C10.367 20.1004 10.2947 20.2092 10.2027 20.2996Z" fill="#01003F"/>
</svg>
