<svg width="31" height="25" viewBox="0 0 31 25" fill="none" xmlns="http://www.w3.org/2000/svg">
<path d="M1.82954 13.9169L25.3419 13.9169L17.3571 21.9017C17.2145 22.0412 17.1009 22.2076 17.023 22.3913C16.9452 22.575 16.9045 22.7723 16.9034 22.9718C16.9023 23.1714 16.9408 23.3691 17.0166 23.5537C17.0925 23.7382 17.2042 23.9059 17.3453 24.047C17.4864 24.188 17.6541 24.2997 17.8386 24.3755C18.0232 24.4514 18.221 24.4898 18.4205 24.4887C18.62 24.4875 18.8173 24.4468 19.001 24.3689C19.1847 24.291 19.3511 24.1774 19.4906 24.0348L30.0505 13.4749C30.3333 13.192 30.4922 12.8083 30.4922 12.4083C30.4922 12.0083 30.3333 11.6247 30.0505 11.3418L19.4906 0.781853C19.3507 0.641498 19.1844 0.530192 19.0013 0.454336C18.8182 0.37848 18.6219 0.33957 18.4237 0.339845C18.1254 0.339909 17.8338 0.428419 17.5857 0.594185C17.3377 0.759952 17.1444 0.995533 17.0303 1.27115C16.9161 1.54676 16.8862 1.85003 16.9444 2.14262C17.0026 2.43521 17.1462 2.70398 17.3571 2.91495L25.3419 10.8997L1.82954 10.8997C1.42944 10.8997 1.04573 11.0587 0.762825 11.3416C0.479915 11.6245 0.320979 12.0082 0.320979 12.4083C0.320979 12.8084 0.479915 13.1921 0.762825 13.475C1.04573 13.7579 1.42944 13.9169 1.82954 13.9169Z" fill="white"/>
</svg>
