<svg width="38" height="37" viewBox="0 0 38 37" fill="none" xmlns="http://www.w3.org/2000/svg">
<path fill-rule="evenodd" clip-rule="evenodd" d="M34.5325 10.5661C34.8326 10.8714 35 11.2764 35 11.6974C35 12.1184 34.8326 12.5234 34.5325 12.8287L21.3101 26.0624C21.0186 26.3586 20.6678 26.5945 20.279 26.7557C19.8903 26.9169 19.4716 27 19.0485 27C18.6254 27 18.2067 26.9169 17.8179 26.7557C17.4291 26.5945 17.0784 26.3586 16.7869 26.0624L3.46689 12.7329C2.85089 12.1147 2.84289 11.1132 3.45089 10.4858C3.59574 10.3339 3.77137 10.2123 3.96688 10.1287C4.1624 10.0451 4.37361 10.0012 4.58742 9.9998C4.80122 9.99835 5.01306 10.0394 5.20976 10.1203C5.40647 10.2012 5.58385 10.3204 5.73089 10.4703L17.9181 22.6686C18.0638 22.8168 18.2393 22.9349 18.4337 23.0155C18.6282 23.0962 18.8377 23.1378 19.0493 23.1378C19.2609 23.1378 19.4704 23.0962 19.6648 23.0155C19.8593 22.9349 20.0348 22.8168 20.1805 22.6686L32.2717 10.5677C32.4173 10.4195 32.5926 10.3015 32.7869 10.2208C32.9813 10.1402 33.1906 10.0986 33.4021 10.0986C33.6136 10.0986 33.8229 10.1402 34.0172 10.2208C34.2116 10.3015 34.3869 10.4179 34.5325 10.5661Z" fill="#001AFF"/>
</svg>
