<svg width="37" height="44" viewBox="0 0 37 44" fill="none" xmlns="http://www.w3.org/2000/svg">
<path fill-rule="evenodd" clip-rule="evenodd" d="M10.5664 6.46751C10.8717 6.16735 11.2766 6 11.6976 6C12.1187 6 12.5236 6.16735 12.8289 6.46751L26.0627 19.6899C26.3589 19.9814 26.5948 20.3322 26.7559 20.721C26.9171 21.1097 27.0002 21.5284 27.0002 21.9515C27.0002 22.3746 26.9171 22.7933 26.7559 23.1821C26.5948 23.5709 26.3589 23.9216 26.0627 24.2131L12.7331 37.5331C12.1149 38.1491 11.1135 38.1571 10.486 37.5491C10.3341 37.4043 10.2126 37.2286 10.129 37.0331C10.0454 36.8376 10.0015 36.6264 10 36.4126C9.9986 36.1988 10.0396 35.9869 10.1206 35.7902C10.2015 35.5935 10.3206 35.4162 10.4706 35.2691L22.6688 23.0819C22.8171 22.9362 22.9351 22.7607 23.0158 22.5663C23.0964 22.3718 23.138 22.1624 23.138 21.9507C23.138 21.7391 23.0964 21.5296 23.0158 21.3352C22.9351 21.1407 22.8171 20.9652 22.6688 20.8195L10.5679 8.72831C10.4197 8.58271 10.3017 8.4074 10.2211 8.21306C10.1404 8.01872 10.0988 7.80942 10.0988 7.59791C10.0988 7.38639 10.1404 7.17709 10.2211 6.98276C10.3017 6.78842 10.4182 6.61311 10.5664 6.46751Z" fill="black"/>
</svg>
