<svg width="51" height="51" viewBox="0 0 51 51" fill="none" xmlns="http://www.w3.org/2000/svg">
<rect x="0.645046" y="0.645046" width="49.5197" height="49.5197" stroke="#01003F" stroke-width="1.29009"/>
<path d="M26.9161 38.9741V15.4617L34.9009 23.4465C35.0404 23.5892 35.2069 23.7027 35.3906 23.7806C35.5743 23.8585 35.7716 23.8992 35.9711 23.9003C36.1706 23.9014 36.3684 23.8629 36.5529 23.787C36.7375 23.7112 36.9051 23.5994 37.0462 23.4583C37.1873 23.3172 37.299 23.1496 37.3748 22.965C37.4506 22.7804 37.4891 22.5827 37.488 22.3832C37.4868 22.1836 37.4461 21.9863 37.3682 21.8026C37.2903 21.6189 37.1767 21.4525 37.034 21.3131L26.4741 10.7531C26.1912 10.4703 25.8076 10.3115 25.4076 10.3115C25.0076 10.3115 24.6239 10.4703 24.341 10.7531L13.7811 21.3131C13.6408 21.453 13.5295 21.6193 13.4536 21.8024C13.3777 21.9855 13.3388 22.1818 13.3391 22.38C13.3392 22.6783 13.4277 22.9699 13.5935 23.2179C13.7592 23.4659 13.9948 23.6592 14.2704 23.7734C14.546 23.8876 14.8493 23.9174 15.1419 23.8592C15.4345 23.8011 15.7032 23.6574 15.9142 23.4465L23.899 15.4617V38.9741C23.899 39.3742 24.058 39.7579 24.3409 40.0408C24.6238 40.3237 25.0075 40.4827 25.4076 40.4827C25.8077 40.4827 26.1914 40.3237 26.4743 40.0408C26.7572 39.7579 26.9161 39.3742 26.9161 38.9741Z" fill="#01003F"/>
</svg>
