<?xml version="1.0" encoding="UTF-8"?>
<svg id="Capa_2" data-name="Capa 2" xmlns="http://www.w3.org/2000/svg" viewBox="0 0 83.78 98.46">
  <defs>
    <style>
      .cls-1 {
        fill: #0026ff;
        stroke-width: 0px;
      }
    </style>
  </defs>
  <g id="Capa_1-2" data-name="Capa 1">
    <path class="cls-1" d="M12.64,92.68l3.41-9.23,9.23-3.41-9.23-3.41-3.41-9.23-3.41,9.23-9.23,3.41,9.23,3.41,3.41,9.23Z"/>
    <path class="cls-1" d="M33.74,76.09c-5.54-1.95-8.68-6.19-8.68-11.83,0-4.99,3.37-9.88,8.47-12.48V17.48h-.22c-16.72,0-26.59,10.42-26.59,23.66,0,7.49,2.17,13.68,6.62,18.13.33.33.43.65.43.87,0,.76-.65,1.3-1.95,1.3-4.45,0-10.09-5.97-10.09-18.02,0-15.52,11.83-28.66,31.81-30.18,0-2.17,0-4.23.11-6.08.11-6.51.87-7.16,1.84-7.16,1.19,0,4.45,2.5,4.45,10.86v2.28c19,.87,33.87,13.13,33.87,30.29,0,14.76-6.95,24.86-16.28,29.96,10.75,17.59,14.98,19.65,21.28,19.65,2.39,0,3.37-.54,4.23-.54.54,0,.76.43.76.87,0,2.17-4.02,5.1-9.77,5.1-8.03,0-13.57-3.58-23.45-22.25-2.93.76-5.86,1.19-8.79,1.19-.76,0-1.41,0-2.06-.11-.11,8.68-.43,14-2.39,14-1.41,0-3.58-2.06-3.58-7.06v-8.14ZM29.18,63.72c0,3.47,1.52,6.4,4.45,8.14,0-4.78,0-10.2-.11-16.28-3.15,2.06-4.34,4.67-4.34,8.14ZM39.71,73.81c.87.11,1.74.11,2.71.11,2.28,0,4.45-.22,6.51-.65-2.71-5.32-5.75-11.72-9.23-19.43v19.97ZM41.12,50.04c3.15,0,4.23,1.95,6.84,6.62,2.93,5.43,5.54,9.99,7.92,14,7.38-4.34,11.72-12.48,11.72-23.12,0-15.74-12.16-27.03-27.68-29.53,0,9.77-.11,21.6-.11,32.13.43-.11.87-.11,1.3-.11Z"/>
  </g>
</svg>