<svg width="65" height="66" viewBox="0 0 65 66" fill="none" xmlns="http://www.w3.org/2000/svg">
<path fill-rule="evenodd" clip-rule="evenodd" d="M6.74135 13.4517L36.2814 7.9358V57.4767L6.73177 53.0133L6.74135 13.4517ZM37.4881 23.9378L37.5121 20.8388L54.0419 20.8436V47.8336H37.4881L37.4977 45.0805H48.9757V42.6783H37.4881V40.6122H48.9757V38.3805H37.4881V36.1391C44.7954 37.3524 46.208 32.2799 46.1026 29.9556H39.6813V23.5967C38.9247 23.6893 38.0819 23.7429 37.4881 23.9378ZM37.4881 17.5692L57.7673 17.5789L57.7578 42.1618H55.8998V19.299H37.4881V17.5692ZM0.152405 65.7116H64.6915L64.6819 0.046875H0.152405V65.7116Z" fill="#78B9F4"/>
<path fill-rule="evenodd" clip-rule="evenodd" d="M19.4623 25.7214C21.7033 25.5064 22.7964 25.8677 22.6912 28.246C22.5998 30.2812 21.4655 30.6609 19.4303 30.5465L19.4623 25.7214ZM16.7501 23.0138L16.6907 38.6875L19.3388 38.8568L19.4211 33.4187C21.621 33.2129 23.3178 33.1763 24.4521 31.9277C25.4949 30.7798 26.0117 28.7354 25.7647 26.691C25.1518 21.7012 21.1774 22.9315 16.7501 23.0138ZM38.8772 27.1483H44.8458C44.8458 23.7639 43.0712 21.3398 38.8864 21.3398L38.8772 27.1483Z" fill="#78B9F4"/>
</svg>
