<svg width="57" height="57" viewBox="0 0 57 57" fill="none" xmlns="http://www.w3.org/2000/svg">
<path fill-rule="evenodd" clip-rule="evenodd" d="M0.0032959 0.367188H56.6636V56.6844H0.0032959V0.367188Z" fill="#78B9F4"/>
<path fill-rule="evenodd" clip-rule="evenodd" d="M32.612 26.6063L32.6252 44.4081L38.8186 44.4389L38.8406 29.1312L38.8186 28.4538C41.062 26.492 42.518 25.8454 45.5927 25.9201C45.8434 25.9245 45.9182 25.9245 45.9182 25.6166V21.1167C45.9402 20.3205 45.7642 20.105 44.8537 20.1358C42.4124 20.215 41.7042 20.4129 40.0107 21.8469C39.6456 22.1548 38.5811 23.4348 38.5811 23.4348C38.5811 21.8821 38.2292 20.8264 37.7981 20.5141C37.5034 20.2985 37.4286 20.3117 36.9975 20.3117H36.175L32.7439 20.2633C32.3657 20.3293 32.3393 20.4173 32.3525 20.8484C32.3964 22.7926 32.612 24.165 32.612 26.6063ZM10.7458 13.2561V13.3573C10.759 17.3426 10.8294 39.5035 10.8426 43.7043V43.8758C10.8382 44.4873 11.2956 44.3773 11.4892 44.3729L27.6854 44.3289C28.3364 44.3157 28.4904 44.1134 28.5783 43.7131L29.4097 39.5299C29.4713 39.2352 29.4713 38.8701 28.9038 38.8965H17.0756V13.2077C17.0624 12.9482 17.1152 12.5963 16.5433 12.6139L11.2736 12.7371H11.1549C10.6666 12.7635 10.759 12.9702 10.7458 13.2561Z" fill="white"/>
</svg>
