<svg width="66" height="66" viewBox="0 0 66 66" fill="none" xmlns="http://www.w3.org/2000/svg">
<path fill-rule="evenodd" clip-rule="evenodd" d="M36.6415 7.40217V57.49L7.37691 52.3275V12.5647L36.6415 7.40217ZM38.0321 13.1844H57.4667C58.5408 13.1844 58.747 13.3991 58.747 14.4872V50.4001C58.747 51.4883 58.5408 51.703 57.4667 51.703H38.0321V48.3166H45.4502V43.1151H38.0321V41.5536H45.4502V36.3472H38.0321V34.7858H45.4502V29.5794H38.0321V28.018H45.4502V22.8164H38.0321V21.255H45.4502V16.0486H38.0321V13.1844ZM0.615791 65.7559H65.2252L65.2348 0H0.606201L0.615791 65.7559Z" fill="#78B9F4"/>
<path fill-rule="evenodd" clip-rule="evenodd" d="M25.302 23.2139L22.9097 28.7249L21.0509 23.5475L18.0606 23.6818L21.0294 31.2247L17.6862 38.6029L20.625 38.8239L22.9828 33.5166L25.1772 39.1315L28.5591 39.3178L24.8932 31.1944L28.3999 22.9886L25.302 23.2139ZM45.1976 45.5609H52.7703V40.9425H45.1976V45.5609ZM45.1976 39.5561H52.7703V34.9333H45.1976V39.5561ZM45.1976 33.5469H52.7703V28.9242H45.1976V33.5469ZM45.1976 21.5329H52.7703V16.9102H45.1976V21.5329ZM45.1976 27.5378H52.7703V22.9193H45.1976V27.5378Z" fill="#78B9F4"/>
</svg>
