<svg width="65" height="66" viewBox="0 0 65 66" fill="none" xmlns="http://www.w3.org/2000/svg">
<path fill-rule="evenodd" clip-rule="evenodd" d="M7.24745 52.2577L7.27137 13.0791L36.448 7.99167V57.3305L7.24745 52.2577ZM53.2126 39.0325H37.6007V35.9528H53.2126V33.9013H37.6007V30.8264H53.2126V28.7749H37.6007V25.6952H53.2126V23.6437H37.6007V20.5639H53.2126V18.5124H37.6007L37.6294 13.6687H56.5273C57.5413 13.6297 57.7469 13.8344 57.7087 14.8723V50.6253C57.723 51.2442 57.5365 51.7753 56.5273 51.6584H37.6294L37.6007 46.2153H53.2126V44.1637H37.6007V41.084H53.2126V39.0325ZM0.335938 65.7559H64.9646L64.8785 0H0.335938V65.7559Z" fill="#78B9F4"/>
<path fill-rule="evenodd" clip-rule="evenodd" d="M27.5277 23.5554L25.2175 36.1959L22.826 23.955L19.5879 24.145L17.292 35.7525L15.3501 24.5056L12.4898 24.5398L15.4649 40.8252L18.4686 40.9909L20.9367 29.7343L22.252 35.4406C22.6347 37.38 23.0221 39.2366 23.376 41.2151L26.772 41.5708L30.7085 23.4336L27.5277 23.5554Z" fill="#78B9F4"/>
</svg>
