<svg width="66" height="66" viewBox="0 0 66 66" fill="none" xmlns="http://www.w3.org/2000/svg">
<path fill-rule="evenodd" clip-rule="evenodd" d="M7.68506 51.8103V13.0819L37.0778 7.66078V57.2363L7.68506 51.8103ZM53.9366 47.1651H38.3997L38.3901 33.1756L41.2494 35.1713C42.0253 35.8007 43.0119 35.6836 43.6489 35.2201L55.1388 26.8127L55.1627 45.6427C55.1579 46.9162 55.2298 47.1651 53.9366 47.1651ZM41.3739 32.3851L38.3901 30.121V23.0653H51.7383C52.246 23.0604 52.7393 23.0653 53.1751 23.0653C56.384 23.0507 54.8849 24.1485 53.4242 25.2318L43.7495 32.4046C42.897 33.039 42.2744 33.1365 41.3739 32.3851ZM38.3901 19.4496H56.6475C58.6638 19.4496 58.6638 20.1376 58.6638 21.6746V40.0361C58.6638 41.0071 58.6638 41.3097 57.6532 41.3097C56.6379 41.3097 56.6379 41.0462 56.6427 40.1093C56.6427 40.0508 56.6379 39.9776 56.6379 39.9337V21.6893H38.3901V19.4496ZM0.879272 65.7559H65.5031L65.5079 0L0.879272 0.00487948V65.7559Z" fill="#78B9F4"/>
<path fill-rule="evenodd" clip-rule="evenodd" d="M17.3112 32.6377C15.6762 24.403 23.8834 21.9573 25.088 28.8318C26.6039 37.4787 18.5799 39.0313 17.3112 32.6377ZM27.5245 30.6958C27.5245 26.2762 25.5918 22.6992 21.3187 22.6992C14.948 22.6992 13.1389 31.282 16.2945 36.2101C17.5631 38.1886 21.021 39.7 24.0529 38.0192C26.2192 36.8192 27.5245 34.117 27.5245 30.6958Z" fill="#78B9F4"/>
</svg>
